<svg width="14" height="14" viewBox="0 0 14 14" fill="none" xmlns="http://www.w3.org/2000/svg">
<path fill-rule="evenodd" clip-rule="evenodd" d="M6.99999 1C7.41421 1 7.75 1.33579 7.75 1.75V6.25H12.25C12.6642 6.25 13 6.58579 13 7C13 7.41422 12.6642 7.75 12.25 7.75H7.75V12.25C7.75 12.6642 7.41421 13 6.99999 13C6.58578 13 6.24999 12.6642 6.24999 12.25V7.75H1.75C1.33579 7.75 1 7.41422 1 7C1 6.58579 1.33579 6.25 1.75 6.25H6.24999V1.75C6.24999 1.33579 6.58578 1 6.99999 1Z" fill="white" stroke="white" stroke-width="0.2" stroke-linecap="round" stroke-linejoin="round"/>
</svg>
