<svg width="27" height="28" viewBox="0 0 27 28" fill="none" xmlns="http://www.w3.org/2000/svg">
<path d="M23.051 22.5235C11.9195 27.8211 5.01111 23.3887 0.588855 20.6966C0.315207 20.5269 -0.149898 20.7362 0.253644 21.1997C1.72692 22.9861 6.55515 27.2918 12.8574 27.2918C19.164 27.2918 22.9158 23.8506 23.3852 23.2504C23.8513 22.6551 23.522 22.3268 23.0509 22.5235H23.051ZM26.1773 20.7969C25.8783 20.4077 24.3596 20.3351 23.4038 20.4525C22.4465 20.5666 21.0096 21.1516 21.1345 21.5029C21.1986 21.6345 21.3295 21.5755 21.9871 21.5163C22.6465 21.4505 24.4938 21.2174 24.8787 21.7206C25.2655 22.2273 24.2896 24.6409 24.1113 25.0302C23.9391 25.4194 24.1771 25.5198 24.5006 25.2606C24.8196 25.0014 25.3972 24.3302 25.7847 23.3805C26.1697 22.4255 26.4044 21.0933 26.1772 20.7969H26.1773Z" fill="#FF9900"/>
<path fill-rule="evenodd" clip-rule="evenodd" d="M15.566 11.7137C15.566 13.1037 15.6011 14.2629 14.8985 15.4974C14.3315 16.5011 13.4332 17.1183 12.4296 17.1183C11.0595 17.1183 10.2617 16.0745 10.2617 14.534C10.2617 11.4928 12.9865 10.9409 15.566 10.9409V11.7137ZM19.164 20.4103C18.9282 20.621 18.5869 20.6362 18.321 20.4956C17.1367 19.5121 16.9259 19.0554 16.2735 18.117C14.3164 20.1143 12.9314 20.7114 10.3922 20.7114C7.39127 20.7114 5.05273 18.8596 5.05273 15.1512C5.05273 12.2557 6.62354 10.2835 8.85651 9.32005C10.7936 8.46685 13.4985 8.31633 15.566 8.08055V7.61883C15.566 6.7707 15.6312 5.76708 15.1344 5.03446C14.6978 4.37705 13.8648 4.10605 13.1321 4.10605C11.7722 4.10605 10.5577 4.80355 10.2617 6.24879C10.2014 6.57004 9.96559 6.88621 9.64445 6.90123L6.18181 6.52995C5.89081 6.46458 5.56967 6.2288 5.64996 5.7821C6.44784 1.58695 10.2365 0.322266 13.6288 0.322266C15.3651 0.322266 17.6333 0.783986 19.0034 2.09881C20.7397 3.71964 20.5741 5.88248 20.5741 8.23604V13.7963C20.5741 15.4673 21.2666 16.2 21.9189 17.1033C22.1497 17.4244 22.2 17.811 21.9089 18.0517C21.1812 18.6589 19.8865 19.788 19.174 20.4204L19.1639 20.4103" fill="black"/>
<path d="M23.051 22.5235C11.9195 27.8211 5.01111 23.3887 0.588855 20.6966C0.315207 20.5269 -0.149898 20.7362 0.253644 21.1997C1.72692 22.9861 6.55515 27.2918 12.8574 27.2918C19.164 27.2918 22.9158 23.8506 23.3852 23.2504C23.8513 22.6551 23.522 22.3268 23.0509 22.5235H23.051ZM26.1773 20.7969C25.8783 20.4077 24.3596 20.3351 23.4038 20.4525C22.4465 20.5666 21.0096 21.1516 21.1345 21.5029C21.1986 21.6345 21.3295 21.5755 21.9871 21.5163C22.6465 21.4505 24.4938 21.2174 24.8787 21.7206C25.2655 22.2273 24.2896 24.6409 24.1113 25.0302C23.9391 25.4194 24.1771 25.5198 24.5006 25.2606C24.8196 25.0014 25.3972 24.3302 25.7847 23.3805C26.1697 22.4255 26.4044 21.0933 26.1772 20.7969H26.1773Z" fill="#FF9900"/>
</svg>
