<svg width="19" height="14" viewBox="0 0 19 14" fill="none" xmlns="http://www.w3.org/2000/svg">
<path d="M2.93451 5.71891C3.03164 5.77802 3.11644 5.75437 3.1961 5.75437C7.83378 5.75592 12.4715 5.75592 17.1092 5.75489C17.3507 5.75489 17.5866 5.77647 17.7855 5.93014C18.0579 6.14034 18.1827 6.42043 18.1149 6.75962C18.0445 7.11115 17.8251 7.33881 17.4715 7.42618C17.3394 7.45907 17.2047 7.45959 17.0696 7.45959C12.4514 7.45907 7.83276 7.45907 3.2146 7.45907C3.13186 7.45907 3.04912 7.45907 2.95507 7.45907C2.95815 7.56289 3.0337 7.6004 3.08304 7.64974C4.42182 8.99109 5.76111 10.3309 7.10246 11.6697C7.29108 11.8578 7.42727 12.0634 7.42418 12.3434C7.4211 12.6919 7.27155 12.9494 6.96062 13.1041C6.64969 13.2588 6.35059 13.2243 6.07461 13.0157C6.00317 12.9617 5.9379 12.899 5.87418 12.8358C4.03843 11.0016 2.20473 9.16532 0.367955 7.33213C0.0919758 7.05667 -0.0848154 6.75653 0.0416109 6.35156C0.0930036 6.1871 0.196817 6.05708 0.315534 5.93785C2.19548 4.05687 4.07594 2.17692 5.95641 0.296459C6.20669 0.0461757 6.50066 -0.0648325 6.85064 0.038467C7.1775 0.134572 7.36765 0.363783 7.43549 0.69167C7.50025 1.0026 7.38307 1.25956 7.16773 1.47644C6.72421 1.92304 6.27812 2.36708 5.83306 2.81265C4.9157 3.73001 3.99783 4.64737 3.08098 5.56525C3.03318 5.61304 2.98745 5.66341 2.93451 5.71891Z" fill="#4E4E4E"/>
</svg>
