<svg width="27" height="27" viewBox="0 0 27 27" fill="none" xmlns="http://www.w3.org/2000/svg">
<path d="M14.1625 15.2935H17.3305C18.2315 15.2935 18.8015 14.7978 18.8015 14.0012C18.8015 13.2501 18.2315 12.709 17.3305 12.709H14.1625C14.0576 12.709 13.9678 12.7988 13.9678 12.8897V15.1128C13.9819 15.2178 14.0566 15.2935 14.1625 15.2935ZM14.1625 20.4161H17.4355C18.4414 20.4161 19.0417 19.9052 19.0417 19.0037C19.0417 18.2223 18.4716 17.5913 17.4355 17.5913H14.1625C14.0576 17.5913 13.9678 17.6811 13.9678 17.772V20.2212C13.9819 20.3414 14.0566 20.4161 14.1625 20.4161Z" fill="#34313F"/>
<path d="M25.7529 1.05132L16.384 10.396H17.9155C20.3026 10.396 21.7141 11.8982 21.7141 13.5357C21.7141 14.828 20.8434 15.774 19.9122 16.195C19.7619 16.2555 19.7619 16.4655 19.9273 16.5251C21.0079 16.9461 21.7737 18.0728 21.7737 19.3943C21.7737 21.257 20.5276 22.7441 18.1102 22.7441H11.4745C11.3696 22.7441 11.2798 22.6542 11.2798 22.5634V15.4873L0.994795 25.7345C0.859598 25.8697 0.949393 26.11 1.14512 26.11H25.8729C25.9627 26.11 26.0384 26.0353 26.0384 25.9445V1.1866C26.0828 1.02103 25.8729 0.93118 25.7529 1.05132Z" fill="#34313F"/>
</svg>
