<svg width="26" height="28" viewBox="0 0 26 28" fill="none" xmlns="http://www.w3.org/2000/svg">
<path d="M0.39268 27.9993C0.105667 27.8361 0 27.5876 0 27.2532C0.00499775 19.1654 0.00214189 11.0783 0.00499775 2.99121C0.00571172 1.28257 1.26586 0.00236805 2.93725 0.00163942C9.38007 -0.000546473 15.8236 -0.000546473 22.2664 0.00163942C23.9378 0.00236805 25.1887 1.28184 25.198 2.99267C25.2015 3.68487 25.1994 4.37707 25.1987 5.06927C25.198 5.66383 24.9888 5.88096 24.4119 5.88169C23.2967 5.88315 22.1807 5.88169 21.0655 5.88242C20.6393 5.88242 20.6386 5.88242 20.6386 6.31085C20.6386 13.2503 20.6379 20.1905 20.6407 27.13C20.6407 27.4863 20.5886 27.8025 20.258 28C13.6367 27.9993 7.0147 27.9993 0.39268 27.9993ZM1.21017 14.6712C1.21017 18.5876 1.21017 22.5039 1.21017 26.4203C1.21017 26.7897 1.21088 26.7919 1.55858 26.7919C7.40381 26.7927 13.2498 26.7905 19.095 26.7978C19.3656 26.7978 19.4463 26.7198 19.442 26.4429C19.4148 24.6039 19.4234 22.7641 19.4148 20.925C19.3906 15.6155 19.3963 10.3052 19.4106 4.99567C19.4127 4.17815 19.4106 3.35625 19.4998 2.54092C19.5384 2.18899 19.5691 1.83342 19.754 1.51719C19.7982 1.44214 19.9046 1.37001 19.8618 1.2833C19.8104 1.17911 19.684 1.23157 19.5919 1.23157C14.068 1.22938 8.5433 1.22938 3.01936 1.23011C2.84158 1.23011 2.66309 1.22501 2.48745 1.27091C1.71637 1.47056 1.2116 2.1358 1.21088 2.9781C1.20874 6.87481 1.21017 10.773 1.21017 14.6712ZM22.2921 4.6503C22.7733 4.6503 23.2538 4.64593 23.735 4.65249C23.9085 4.65467 23.9992 4.6095 23.9956 4.40913C23.9864 3.88233 24.0056 3.3548 23.9871 2.828C23.9564 1.9245 23.1981 1.2221 22.2835 1.22938C21.3861 1.23667 20.6628 1.94854 20.6436 2.85787C20.6321 3.36646 20.6457 3.87577 20.6364 4.38435C20.6329 4.58618 20.7078 4.65686 20.9035 4.65249C21.3661 4.64374 21.8295 4.6503 22.2921 4.6503Z" fill="#5F5F5F"/>
<path d="M11.8543 11.3684C11.8543 11.2294 11.8601 11.0893 11.8533 10.9502C11.8281 10.4862 11.5869 10.2294 11.1404 10.2142C10.5486 10.1939 9.94996 10.2426 9.3649 10.1675C8.10859 10.0061 7.3211 9.11066 7.22036 7.78889C7.18839 7.37367 7.19033 6.9544 7.2562 6.53716C7.42377 5.47933 8.14056 4.6692 9.13728 4.48038C9.43852 4.42353 9.56444 4.30069 9.53538 3.98497C9.51795 3.79614 9.53538 3.60528 9.58963 3.42052C9.70489 3.02663 10.071 2.76166 10.4449 2.8043C10.8237 2.84795 11.123 3.18093 11.1617 3.59107C11.185 3.84081 11.0765 4.12608 11.2237 4.33318C11.3661 4.53317 11.6509 4.46515 11.8669 4.54028C12.8452 4.88138 13.5271 5.86713 13.4874 6.90465C13.47 7.36657 13.1803 7.69853 12.7512 7.74625C12.3841 7.78787 12.0248 7.51884 11.9095 7.11175C11.8853 7.02749 11.8717 6.93917 11.8572 6.85186C11.7797 6.39198 11.554 6.14935 11.1065 6.126C10.6115 6.10062 10.1137 6.09859 9.61869 6.12803C9.13631 6.15646 8.90481 6.42142 8.84766 6.92394C8.84378 6.9615 8.84378 7.00008 8.84184 7.03764C8.7847 8.24471 9.01426 8.49749 10.165 8.49749C10.4914 8.49749 10.8188 8.49546 11.1452 8.4985C12.4761 8.51069 13.4835 9.56242 13.4855 10.9614C13.4864 11.4537 13.5484 11.9512 13.4109 12.4364C13.1736 13.275 12.6573 13.8323 11.8727 14.1277C11.6489 14.212 11.3293 14.1409 11.2111 14.3582C11.1104 14.544 11.1762 14.8272 11.1607 15.0658C11.1239 15.6526 10.5815 16.019 10.0662 15.8038C9.70586 15.6536 9.57413 15.3389 9.53926 14.9632C9.4792 14.3216 9.48017 14.3216 8.90287 14.1389C7.95458 13.8384 7.2746 12.9268 7.2223 11.8862C7.19808 11.3969 7.50514 10.9878 7.93424 10.94C8.41759 10.8852 8.75564 11.1715 8.83894 11.7045C8.93386 12.3187 9.17021 12.5339 9.76204 12.5379C10.1495 12.541 10.536 12.54 10.9234 12.5379C11.6238 12.5349 11.8523 12.2943 11.8572 11.5552C11.8572 11.4923 11.8572 11.4283 11.8572 11.3654C11.8572 11.3684 11.8553 11.3684 11.8543 11.3684Z" fill="#5F5F5F"/>
<path d="M10.3263 20.3883C12.3154 20.3883 14.3045 20.3883 16.2936 20.3883C16.3829 20.3883 16.4721 20.3862 16.5613 20.3898C16.9347 20.4073 17.1911 20.6514 17.1989 20.9924C17.2061 21.3414 16.9412 21.6081 16.5563 21.6154C16.048 21.6248 15.5397 21.6183 15.0313 21.619C11.4544 21.619 7.87739 21.619 4.30043 21.6183C4.16763 21.6183 4.03055 21.6205 3.90204 21.5913C3.62216 21.5279 3.4351 21.2787 3.43653 21.0004C3.43796 20.7206 3.62573 20.4765 3.90703 20.4138C4.02698 20.3869 4.15478 20.3891 4.27901 20.3891C6.29453 20.3883 8.31077 20.3883 10.3263 20.3883Z" fill="#5F5F5F"/>
<path d="M10.3551 17.4882C12.3528 17.4882 14.3504 17.4882 16.3481 17.4882C16.4459 17.4882 16.5445 17.4846 16.6423 17.4919C16.9393 17.5137 17.152 17.7243 17.1913 18.0289C17.2256 18.2948 17.0514 18.5724 16.7872 18.6657C16.6594 18.7109 16.5252 18.7152 16.391 18.7152C12.3421 18.7145 8.29317 18.7145 4.24427 18.7145C4.17288 18.7145 4.10077 18.7152 4.0308 18.7065C3.66239 18.6599 3.41893 18.3939 3.43535 18.0602C3.45177 17.7265 3.71737 17.4897 4.09434 17.4897C6.18126 17.4875 8.26818 17.4882 10.3551 17.4882Z" fill="#5F5F5F"/>
<path d="M10.3274 24.5217C8.30259 24.5217 6.2785 24.5217 4.2537 24.5217C4.15588 24.5217 4.05664 24.5261 3.95954 24.5151C3.68752 24.4845 3.46405 24.2514 3.43621 23.9759C3.41051 23.7158 3.57686 23.4433 3.82246 23.3522C3.95812 23.302 4.1002 23.2939 4.24442 23.2939C8.29331 23.2947 12.3422 23.2939 16.3911 23.2961C16.506 23.2961 16.6246 23.3041 16.7352 23.3318C17.023 23.4047 17.2179 23.6765 17.195 23.9534C17.1686 24.2754 16.938 24.5122 16.6146 24.5173C16.0441 24.5268 15.4729 24.521 14.9025 24.521C13.3774 24.5217 11.8524 24.5217 10.3274 24.5217Z" fill="#5F5F5F"/>
</svg>
