<svg width="14" height="15" viewBox="0 0 14 15" fill="none" xmlns="http://www.w3.org/2000/svg">
<path d="M13.0264 2.0725C13.3659 1.69736 13.3659 1.12605 13.0264 0.750907C12.6355 0.318819 11.9569 0.318819 11.5659 0.750908L7.03045 5.76322L2.495 0.750908C2.10402 0.31882 1.42543 0.318819 1.03445 0.750908C0.695002 1.12605 0.695002 1.69736 1.03445 2.0725L5.70224 7.23108L1.03445 12.3897C0.695002 12.7648 0.695002 13.3361 1.03445 13.7113C1.42543 14.1433 2.10402 14.1433 2.495 13.7113L7.03045 8.69894L11.5659 13.7113C11.9569 14.1433 12.6355 14.1433 13.0264 13.7113C13.3659 13.3361 13.3659 12.7648 13.0264 12.3897L8.35865 7.23108L13.0264 2.0725Z" fill="#4E4E4E"/>
</svg>
