<svg width="27" height="23" viewBox="0 0 27 23" fill="none" xmlns="http://www.w3.org/2000/svg">
<path d="M26.9668 4.17877C26.9432 4.42793 26.6131 4.66143 26.0016 4.79131C23.8434 5.25094 21.6842 5.70919 19.5251 6.16744C17.9294 6.5064 16.3284 6.83938 14.7391 7.18572C14.1819 7.3073 13.6681 7.30638 13.1073 7.18664C9.36701 6.38574 5.62037 5.59313 1.87465 4.7996C1.25051 4.66742 0.88417 4.44267 0.87422 4.09173C0.86427 3.73204 1.23242 3.49946 1.86922 3.36405C5.67736 2.55625 9.4855 1.74936 13.2918 0.939247C13.7522 0.841149 14.1882 0.859571 14.6378 0.955366C16.8476 1.42651 19.0601 1.89397 21.2717 2.36374C22.8574 2.7004 24.4431 3.03614 26.0242 3.37787C26.6565 3.51373 26.9695 3.76105 26.9668 4.17877ZM21.5983 4.08804C21.5178 4.06225 21.4843 4.04751 21.4445 4.03922C19.004 3.5211 16.5636 3.0039 14.1249 2.4844C13.9766 2.45308 13.8508 2.45769 13.7052 2.48854C11.2973 3.00114 8.8876 3.51143 6.47969 4.02311C6.41366 4.03692 6.3214 4.03738 6.29878 4.09311C6.35848 4.10877 6.41638 4.12581 6.47788 4.1387C8.87674 4.64715 11.2765 5.15468 13.6735 5.66543C13.8716 5.70781 14.039 5.69307 14.2244 5.65392C16.038 5.26752 17.8535 4.88342 19.668 4.49886C20.2994 4.3653 20.9307 4.23035 21.5983 4.08804Z" fill="#5F5F5F"/>
<path d="M13.9071 22.643C13.6882 22.6453 13.4847 22.602 13.2865 22.548C9.46406 21.499 5.64069 20.45 1.82003 19.3987C1.01843 19.1779 0.669871 18.6238 0.995015 18.1147C1.31115 17.6199 2.14878 17.3897 2.93867 17.6045C5.86136 18.3995 8.77864 19.2023 11.6977 20.0027C12.3003 20.1676 12.9109 20.3213 13.5018 20.5022C13.8062 20.5954 14.0557 20.5835 14.3592 20.4993C17.8448 19.5351 21.3377 18.5811 24.826 17.6205C25.3835 17.4668 25.9086 17.4822 26.3832 17.7296C27.2974 18.2055 27.1074 19.0943 26.0239 19.3969C24.0973 19.935 22.1636 20.4625 20.2325 20.9935C18.4051 21.4961 16.5767 21.9974 14.7483 22.4988C14.479 22.5718 14.2079 22.6471 13.9071 22.643Z" fill="#5F5F5F"/>
<path d="M26.9646 8.26373C26.9429 8.70573 26.6002 9.00438 25.9952 9.17342C24.7681 9.51627 23.5364 9.85374 22.3066 10.1918C19.7628 10.8918 17.2163 11.5883 14.6743 12.2925C14.1634 12.4341 13.6814 12.4347 13.1687 12.2931C9.44837 11.2646 5.72538 10.242 2.00057 9.2218C1.40826 9.05933 0.953396 8.82041 0.883765 8.37602C0.760781 7.60013 1.82243 7.07212 2.92838 7.35345C3.52884 7.50636 4.11844 7.67778 4.71256 7.84144C7.70489 8.66512 10.6981 9.4876 13.6886 10.3143C13.8604 10.362 14.0069 10.3537 14.1733 10.3077C17.7064 9.3323 21.2413 8.36049 24.7753 7.3869C25.6507 7.14559 26.4727 7.32896 26.8398 7.84921C26.9339 7.98061 26.9773 8.1168 26.9646 8.26373Z" fill="#5F5F5F"/>
<path d="M0.874038 13.5193C0.869519 12.6647 1.90804 12.204 2.93843 12.4779C4.27884 12.8348 5.61022 13.206 6.9434 13.573C9.1732 14.1865 11.4048 14.7982 13.6301 15.4188C13.885 15.4898 14.0829 15.4468 14.3044 15.386C17.805 14.4216 21.3065 13.4572 24.8089 12.4958C25.5962 12.2798 26.3653 12.4361 26.7567 12.8795C27.2258 13.4112 26.886 14.0391 25.9695 14.2969C24.7339 14.6448 23.4902 14.9808 22.2501 15.3221C19.7175 16.0186 17.184 16.7126 14.6551 17.4138C14.1688 17.5487 13.7042 17.5606 13.2143 17.4252C9.46514 16.3897 5.71326 15.3567 1.95956 14.3285C1.30517 14.1507 0.895731 13.8654 0.874038 13.5193Z" fill="#5F5F5F"/>
</svg>
