<svg width="18" height="18" viewBox="0 0 18 18" fill="none" xmlns="http://www.w3.org/2000/svg">
<g clip-path="url(#clip0_990_5595)">
<path d="M3.83208 17.9999C3.21368 17.8771 2.66524 17.6203 2.22473 17.1599C1.70934 16.621 1.4302 15.982 1.42985 15.2319C1.42844 12.0336 1.42704 8.83539 1.43055 5.63714C1.43231 4.12135 2.6902 2.86837 4.21071 2.86591C6.47794 2.8624 8.74516 2.8624 11.0124 2.86591C12.5329 2.86837 13.7908 4.12065 13.7925 5.63679C13.7964 8.80591 13.7802 11.975 13.8006 15.1438C13.8091 16.4575 12.8922 17.6813 11.5433 17.9606C11.4919 17.9712 11.4416 17.9866 11.391 17.9996C8.87102 17.9999 6.35172 17.9999 3.83208 17.9999ZM2.86 10.4459C2.86 11.995 2.85754 13.5442 2.86106 15.0933C2.86282 15.9722 3.44676 16.5785 4.31547 16.5813C6.51204 16.5887 8.70825 16.5884 10.9048 16.5817C11.7602 16.5789 12.3585 15.9852 12.3603 15.1312C12.3666 12.0038 12.3663 8.87609 12.3603 5.74872C12.3585 4.89398 11.7626 4.29854 10.9076 4.29574C8.71106 4.28872 6.51485 4.29118 4.31829 4.29504C3.89782 4.29574 3.52797 4.43433 3.23477 4.75188C2.95985 5.04942 2.86141 5.40661 2.86106 5.79854C2.8593 7.34767 2.86 8.89679 2.86 10.4459Z" fill="#7D7AB9"/>
<path d="M14.2031 0.0351562C14.5747 0.121472 14.9404 0.223577 15.2645 0.435858C16.1177 0.995507 16.6001 1.77481 16.6025 2.80252C16.6113 6.33972 16.6064 9.87691 16.6057 13.4141C16.6057 13.7702 16.3979 14.0492 16.0777 14.1334C15.7539 14.2187 15.4181 14.072 15.2547 13.7773C15.1805 13.6432 15.1749 13.4997 15.1749 13.3523C15.1759 10.8559 15.1756 8.35937 15.1756 5.86288C15.1756 4.89235 15.1766 3.92182 15.1752 2.9513C15.1745 2.50498 15.0409 2.1134 14.6971 1.80744C14.3947 1.53831 14.0337 1.4513 13.6417 1.4513C11.1227 1.4513 8.6038 1.4513 6.08485 1.45095C5.97974 1.45095 5.87392 1.46112 5.77126 1.42603C5.49915 1.33375 5.32021 1.15024 5.27134 0.867437C5.21896 0.56463 5.32478 0.314454 5.58247 0.137612C5.64013 0.0983142 5.70481 0.0691913 5.76634 0.0355071C8.57813 0.0351562 11.3906 0.0351562 14.2031 0.0351562Z" fill="#7D7AB9"/>
</g>
<defs>
<clipPath id="clip0_990_5595">
<rect width="18" height="18" fill="white"/>
</clipPath>
</defs>
</svg>
