<svg width="25" height="22" viewBox="0 0 25 22" fill="none" xmlns="http://www.w3.org/2000/svg">
<path d="M24.4663 11.5585C24.25 12.2632 23.7723 12.7096 22.9778 12.8385C22.8643 12.857 22.7466 12.8578 22.6307 12.8578C20.2133 12.8587 17.7963 12.86 15.3788 12.8583C14.2791 12.8574 13.5237 12.1588 13.5232 11.1421C13.5218 8.03594 13.5228 4.93019 13.5228 1.82401C13.5228 0.82714 13.9163 0.317106 14.9304 0C17.6595 0 20.3882 0 23.1173 0C23.8072 0.193358 24.256 0.609291 24.4663 1.24608C24.4663 4.68355 24.4663 8.12102 24.4663 11.5585ZM15.0746 6.41302C15.0746 7.95258 15.0746 9.49257 15.0746 11.0321C15.0746 11.4051 15.0955 11.4249 15.4914 11.4253C17.8325 11.4257 20.1742 11.4257 22.5154 11.4253C22.9136 11.4253 22.961 11.3823 22.961 11.0214C22.9615 7.94914 22.9615 4.87691 22.961 1.80467C22.961 1.44717 22.9005 1.39046 22.5205 1.39046C20.1868 1.39003 17.8535 1.39003 15.5197 1.39046C15.122 1.39046 15.0746 1.43342 15.0746 1.79393C15.0746 3.33348 15.0746 4.87347 15.0746 6.41302Z" fill="#5F5F5F"/>
<path d="M0.650391 10.4416C0.867159 9.73774 1.34489 9.29044 2.13893 9.16111C2.25243 9.14263 2.37012 9.1422 2.48594 9.1422C4.90342 9.14134 7.32043 9.14048 9.73791 9.14177C10.8376 9.14263 11.593 9.84087 11.5935 10.8575C11.5949 13.9632 11.5939 17.0694 11.5939 20.1752C11.5939 21.1716 11.2018 21.6795 10.1863 22C7.45719 22 4.72852 22 1.99938 22C1.31093 21.8054 0.859716 21.3912 0.650391 20.754C0.650391 17.3165 0.650391 13.879 0.650391 10.4416ZM10.0421 15.5896C10.0421 14.05 10.0421 12.5105 10.0421 10.9709C10.0421 10.595 10.0217 10.5752 9.62813 10.5752C7.27903 10.5748 4.9304 10.5748 2.5813 10.5752C2.20545 10.5752 2.15567 10.6225 2.15567 10.9752C2.15521 14.0543 2.15521 17.1335 2.15567 20.213C2.15567 20.5469 2.22405 20.6096 2.59386 20.6096C4.93505 20.61 7.27624 20.61 9.61743 20.6096C9.99142 20.6096 10.0421 20.5615 10.0421 20.2083C10.0421 18.6687 10.0421 17.1292 10.0421 15.5896Z" fill="#5F5F5F"/>
<path d="M14.9311 21.9998C14.1706 21.7983 13.6845 21.3592 13.5449 20.6249C13.5249 20.52 13.5244 20.4113 13.524 20.3043C13.5226 18.9878 13.5216 17.6712 13.5235 16.3547C13.5249 15.3398 14.2808 14.6419 15.3814 14.6415C17.7519 14.6398 20.1219 14.6411 22.4924 14.6411C23.5702 14.6411 24.114 14.9994 24.4666 15.9413C24.4666 17.5453 24.4666 19.1498 24.4666 20.7538C24.2568 21.3906 23.807 21.8056 23.1176 21.9998C20.3889 21.9998 17.6602 21.9998 14.9311 21.9998ZM19.005 16.0745C17.8189 16.0745 16.6331 16.0741 15.447 16.0749C15.1162 16.0754 15.0762 16.1097 15.0762 16.4019C15.0748 17.691 15.0748 18.9796 15.0762 20.2687C15.0767 20.5454 15.1455 20.6085 15.4498 20.609C17.8217 20.6102 20.194 20.6102 22.5659 20.609C22.8845 20.609 22.9613 20.5346 22.9618 20.2381C22.9627 18.9706 22.9627 17.7034 22.9618 16.4359C22.9613 16.1329 22.8976 16.0754 22.5636 16.0749C21.3774 16.0741 20.1912 16.0745 19.005 16.0745Z" fill="#5F5F5F"/>
<path d="M10.1863 0C10.9501 0.198514 11.4311 0.641517 11.5721 1.37413C11.5921 1.47897 11.593 1.58768 11.593 1.69467C11.5944 3.01122 11.5953 4.32777 11.5935 5.64432C11.5921 6.65966 10.8362 7.35747 9.73605 7.35833C7.36555 7.36004 4.99552 7.35876 2.62503 7.35876C1.54816 7.35876 1.00066 6.99825 0.650391 6.05853C0.650391 4.45453 0.650391 2.85009 0.650391 1.24608C0.860181 0.608861 1.31 0.193787 1.99938 0C4.72852 0 7.45719 0 10.1863 0ZM6.10448 5.92533C7.28275 5.92533 8.46149 5.92576 9.63976 5.9249C10.0124 5.9249 10.0417 5.89869 10.0417 5.56139C10.0426 4.30113 10.0421 3.04044 10.0417 1.78018C10.0417 1.44202 9.98724 1.39046 9.62813 1.39046C7.27903 1.39003 4.92993 1.39003 2.58084 1.39046C2.22545 1.39046 2.15567 1.45319 2.15567 1.77545C2.15474 3.02884 2.15474 4.28179 2.15567 5.53518C2.15567 5.8742 2.20963 5.9249 2.56921 5.9249C3.74748 5.92576 4.92621 5.92533 6.10448 5.92533Z" fill="#5F5F5F"/>
</svg>
