<svg width="18" height="18" viewBox="0 0 18 18" fill="none" xmlns="http://www.w3.org/2000/svg">
<path d="M8.60923 1.90671C10.9255 1.90671 13.2417 1.90618 15.558 1.90724C15.9804 1.90724 16.2568 2.18254 16.2462 2.58226C16.2372 2.91791 15.9804 3.18686 15.6448 3.20274C15.4732 3.21068 15.3007 3.20857 15.1286 3.20486C15.0179 3.20221 14.9698 3.2488 14.9766 3.35839C14.9804 3.41769 14.9766 3.47752 14.9766 3.53681C14.9766 7.29574 14.9608 11.0547 14.9851 14.8131C14.9936 16.1043 14.0486 17.2871 12.7568 17.475C12.6329 17.493 12.5063 17.4983 12.3814 17.4983C9.86662 17.4994 7.35184 17.5015 4.83706 17.4983C3.39702 17.4962 2.24393 16.3378 2.24287 14.8925C2.24076 11.0938 2.24181 7.29521 2.24181 3.4971C2.24181 3.20539 2.24181 3.20592 1.95116 3.20539C1.8188 3.20539 1.68592 3.21121 1.55409 3.20168C1.22055 3.17839 0.966955 2.88668 0.972249 2.54096C0.977014 2.20001 1.22637 1.93159 1.56097 1.90935C1.63986 1.90406 1.7198 1.90671 1.79921 1.90671C4.06993 1.90671 6.33958 1.90671 8.60923 1.90671ZM3.54156 9.11644C3.54156 10.9954 3.53944 12.8738 3.54262 14.7527C3.54367 15.64 4.09481 16.1986 4.97683 16.1996C7.3979 16.2033 9.81897 16.2012 12.2406 16.1996C12.446 16.1996 12.6498 16.1753 12.8431 16.0964C13.3884 15.874 13.6785 15.4055 13.679 14.7358C13.6801 10.9715 13.678 7.20786 13.6833 3.44363C13.6838 3.2488 13.6224 3.20063 13.435 3.20116C10.2197 3.20645 7.00507 3.20698 3.78986 3.2001C3.58338 3.19957 3.53732 3.26416 3.53785 3.46004C3.5442 5.34586 3.54103 7.23115 3.54156 9.11644Z" fill="#5F5F5F"/>
<path d="M8.62196 0.00130274C9.46852 0.00130274 10.3156 -0.000814937 11.1622 0.00236162C11.4629 0.00342047 11.6963 0.18819 11.7795 0.471433C11.8594 0.744616 11.7488 1.03898 11.5042 1.19939C11.3956 1.27034 11.2765 1.29945 11.1468 1.29945C9.45316 1.2984 7.76006 1.30051 6.06642 1.29734C5.68947 1.29681 5.41628 1.01145 5.41946 0.640849C5.42264 0.275016 5.68735 0.00447932 6.06166 0.00236162C6.91562 -0.00187379 7.76906 0.000773315 8.62196 0.00130274Z" fill="#5F5F5F"/>
<path d="M7.03521 9.86082C7.03521 10.9191 7.0368 11.978 7.03415 13.0363C7.03363 13.3429 6.85574 13.579 6.57832 13.6626C6.31149 13.7436 6.02666 13.6462 5.85565 13.4175C5.77359 13.3074 5.73706 13.1835 5.73706 13.0469C5.73759 10.9234 5.736 8.79985 5.73865 6.67632C5.73918 6.30307 6.01342 6.03889 6.37978 6.03677C6.7525 6.03465 7.03204 6.30519 7.03362 6.68585C7.03733 7.74417 7.03521 8.8025 7.03521 9.86082Z" fill="#5F5F5F"/>
<path d="M10.1843 9.85288C10.1843 8.79456 10.1822 7.73571 10.1859 6.67738C10.1869 6.35126 10.404 6.09554 10.7068 6.04366C11.0393 5.98648 11.331 6.1559 11.4485 6.46985C11.4798 6.55297 11.4819 6.63768 11.4819 6.72344C11.4819 8.81415 11.483 10.9043 11.4814 12.995C11.4814 13.4117 11.2177 13.6875 10.8302 13.6865C10.449 13.6854 10.1843 13.4027 10.1837 12.9881C10.1832 11.9436 10.1843 10.8985 10.1843 9.85288Z" fill="#5F5F5F"/>
</svg>
