<svg width="426" height="180" viewBox="0 0 426 180" fill="none" xmlns="http://www.w3.org/2000/svg">
<path d="M0.963013 0.00115967H-9.15527e-05C14.4095 35.1082 35.7737 67.3352 63.3982 94.9596C118.24 149.801 191.213 180 268.873 180C325.474 180 379.575 163.942 425.998 134.012V132.91C380.704 162.247 326.743 179.305 268.873 179.305C148.179 179.305 44.4972 105.146 0.963013 0.00115967Z" fill="#7D7AB9"/>
<path d="M13.0851 0.00100708H12.122C25.9296 32.1169 45.8399 61.6305 71.2881 87.0695C124.018 139.799 194.186 168.841 268.873 168.841C325.78 168.841 380.047 151.959 425.998 120.611V119.5C381.232 150.171 327.122 168.146 268.873 168.146C154.458 168.146 55.9433 98.8305 13.0851 0.00100708Z" fill="#7D7AB9"/>
<path d="M25.2818 0.00386047H24.3187C37.4781 29.1285 55.916 55.9195 79.1787 79.1822C129.807 129.81 197.168 157.685 268.864 157.685C326.104 157.685 380.584 139.895 425.989 106.964V105.844C381.844 137.996 327.54 156.99 268.864 156.99C160.756 156.99 67.4177 92.5175 25.2818 0.00386047Z" fill="#7D7AB9"/>
<path d="M37.5985 0.000808716H36.6169C49.0632 26.1343 66.0101 50.2212 87.0688 71.2799C135.585 119.796 200.15 146.522 268.864 146.522C326.502 146.522 381.205 127.714 425.989 93.0146V91.8848C382.566 125.677 328.03 145.828 268.864 145.828C167.071 145.828 78.9472 86.1802 37.5985 0.000808716Z" fill="#7D7AB9"/>
<path d="M50.0447 -0.000289917H49.0446C60.7037 23.1513 76.1134 44.5341 94.968 63.3887C141.382 109.803 203.141 135.362 268.864 135.362C326.965 135.362 381.946 115.378 425.989 78.6965V77.5575C383.409 113.192 328.604 134.677 268.864 134.677C173.406 134.668 90.5229 79.8263 50.0447 -0.000289917Z" fill="#7D7AB9"/>
<path d="M62.6393 0.000549316H61.6298C72.4092 20.1795 86.2353 38.8674 102.858 55.4995C147.161 99.8023 206.123 124.204 268.864 124.204C327.512 124.204 382.835 102.886 425.989 63.9267V62.7691C384.428 100.488 329.281 123.51 268.864 123.51C179.777 123.51 102.154 73.4559 62.6393 0.000549316Z" fill="#7D7AB9"/>
<path d="M75.3906 0.00188446H74.3905C84.1975 17.2174 96.3752 33.2197 110.757 47.6015C152.958 89.8022 209.105 113.037 268.873 113.037C328.169 113.037 383.908 90.1448 425.998 48.5646V47.37C385.677 87.4963 330.123 112.343 268.873 112.343C186.166 112.352 113.85 67.0674 75.3906 0.00188446Z" fill="#7D7AB9"/>
<path d="M268.864 101.191C192.603 101.191 125.639 60.6574 88.3745 0.000312805H87.3651C96.0794 14.2617 106.535 27.597 118.648 39.7099C158.737 79.7991 212.087 101.886 268.864 101.886C325.641 101.886 378.992 79.7991 419.09 39.7099C421.452 37.3484 423.757 34.9314 425.989 32.4773V31.2179C387.215 74.1502 331.142 101.191 268.864 101.191Z" fill="#7D7AB9"/>
<path d="M268.864 90.0247C199.095 90.0247 137.548 54.2046 101.608 0.00214386H100.58C108.053 11.3372 116.721 21.9961 126.538 31.8216C164.525 69.8087 215.069 90.7285 268.864 90.7285C322.659 90.7285 373.204 69.8087 411.191 31.8216C416.46 26.5524 421.387 21.033 425.989 15.31V13.9579C389.225 60.2703 332.457 90.0247 268.864 90.0247Z" fill="#7D7AB9"/>
<path d="M422.562 0.000526428C388.14 47.7298 332.076 78.864 268.863 78.864C205.65 78.864 149.586 47.7298 115.165 0.000526428H114.127C120.175 8.43696 126.944 16.4381 134.427 23.9207C170.302 59.7964 218.05 79.5586 268.863 79.5586C319.676 79.5586 367.415 59.7964 403.3 23.9207C410.782 16.4381 417.552 8.43696 423.599 0.000526428H422.562Z" fill="#7D7AB9"/>
<path d="M408.569 0.00141144C375.898 41.2205 325.418 67.7058 268.863 67.7058C212.299 67.7058 161.82 41.2205 129.148 0.00141144H128.093C132.482 5.57631 137.233 10.9382 142.326 16.0316C176.1 49.8051 221.042 68.4004 268.863 68.4004C316.695 68.4004 361.627 49.8051 395.401 16.0316C400.494 10.9382 405.217 5.57631 409.606 0.00141144H408.569Z" fill="#7D7AB9"/>
<path d="M394.041 0.00274658C363.406 34.656 318.65 56.5481 268.874 56.5481C219.098 56.5481 174.341 34.656 143.707 0.00274658H142.615C145.05 2.78093 147.587 5.50357 150.227 8.14285C181.889 39.8049 224.025 57.252 268.874 57.252C313.714 57.252 355.85 39.8142 387.521 8.14285C390.16 5.50357 392.688 2.7902 395.124 0.00274658H394.041Z" fill="#7D7AB9"/>
<path d="M378.714 0.00211334C350.515 28.034 311.676 45.3885 268.864 45.3885C226.052 45.3885 187.213 28.034 159.014 0.00211334H157.875C157.959 0.0854568 158.033 0.168812 158.116 0.242897C187.676 29.8028 227.006 46.083 268.873 46.083C310.74 46.083 350.07 29.8028 379.63 0.242897C379.714 0.159554 379.788 0.0761986 379.871 0.00211334H378.714Z" fill="#7D7AB9"/>
<path d="M362.221 5.72205e-05C337.004 21.3365 304.416 34.2273 268.864 34.2273C233.322 34.2273 200.734 21.3365 175.508 5.72205e-05H174.258C200.576 22.596 233.757 34.9219 268.855 34.9219C303.953 34.9219 337.143 22.596 363.471 5.72205e-05H362.221Z" fill="#7D7AB9"/>
<path d="M343.819 0.00187111C322.436 14.5503 296.627 23.0701 268.863 23.0701C241.1 23.0701 215.3 14.5596 193.908 0.00187111H192.5C214.763 15.4393 241.165 23.7646 268.863 23.7646C296.562 23.7646 322.964 15.4486 345.227 0.00187111H343.819Z" fill="#7D7AB9"/>
<path d="M321.501 0.0017662C305.545 7.63252 287.7 11.9109 268.873 11.9109C250.046 11.9109 232.191 7.63252 216.245 0.0017662L214.457 0.0017662C231.173 8.24373 249.685 12.6055 268.882 12.6055C288.079 12.6055 306.591 8.24373 323.307 0.0017662H321.501Z" fill="#7D7AB9"/>
<path d="M281.707 0.00113726C277.494 0.491951 273.206 0.741976 268.872 0.741976C264.529 0.741976 260.251 0.48269 256.037 0.00113726L250.962 0.00113726C256.796 0.945721 262.779 1.43652 268.872 1.43652C274.966 1.43652 280.948 0.936461 286.782 0.00113726L281.707 0.00113726Z" fill="#7D7AB9"/>
</svg>
