<svg width="18" height="18" viewBox="0 0 18 18" fill="none" xmlns="http://www.w3.org/2000/svg">
<path d="M8.99988 17.9996C6.52758 17.9996 4.05477 18.0007 1.58248 17.9991C0.794879 17.9986 0.178742 17.4961 0.0232873 16.7307C0.00521119 16.6429 0.0010795 16.5515 0.0010795 16.4616C4.65771e-05 13.9764 -0.000469895 11.4907 0.000563025 9.00547C0.00107949 8.51638 0.341943 8.12026 0.802109 8.06241C1.30308 7.99941 1.73277 8.28604 1.86085 8.76583C1.89132 8.88049 1.88513 8.99617 1.88513 9.11238C1.88564 11.359 1.88564 13.6056 1.88564 15.8517C1.88564 16.1135 1.88616 16.1135 2.15317 16.1135C6.71713 16.1135 11.2811 16.1135 15.845 16.1135C16.112 16.1135 16.1126 16.113 16.1126 15.8517C16.1126 13.573 16.1115 11.2939 16.1136 9.01528C16.1141 8.30773 16.7917 7.85531 17.4363 8.1342C17.7952 8.28966 17.9951 8.57577 17.9961 8.96725C18.0013 11.485 18.0028 14.0027 17.9956 16.52C17.9935 17.3205 17.2911 17.997 16.4746 17.9981C13.9837 18.0017 11.4918 17.9991 8.99988 17.9996Z" fill="#7D7AB9"/>
<path d="M8.05665 10.9897C8.05665 10.9143 8.05665 10.8389 8.05665 10.7635C8.05665 7.49685 8.05613 4.23024 8.05716 0.964151C8.05716 0.37332 8.48531 -0.0274525 9.07562 0.00146926C9.53114 0.023677 9.91745 0.40844 9.94069 0.865507C9.94483 0.949173 9.94276 1.03336 9.94276 1.11702C9.94276 4.33199 9.94276 7.54695 9.94276 10.7614C9.94276 10.8373 9.94276 10.9132 9.94276 10.9948C10.0409 10.9866 10.0739 10.9158 10.1209 10.8693C10.6885 10.3048 11.2515 9.73571 11.8216 9.1738C12.0959 8.90369 12.4269 8.80453 12.7998 8.93106C13.1681 9.05656 13.387 9.32254 13.4464 9.70627C13.4996 10.0466 13.3617 10.3224 13.1252 10.5589C12.2756 11.4075 11.4271 12.2565 10.578 13.1056C10.2903 13.3933 10.0047 13.6825 9.71448 13.9676C9.28014 14.3947 8.7172 14.3978 8.28647 13.9686C7.14303 12.8293 6.0032 11.6874 4.86234 10.5455C4.57984 10.2625 4.46002 9.92886 4.5912 9.53945C4.71515 9.17122 4.98165 8.95121 5.36486 8.89078C5.69694 8.8381 5.9717 8.96567 6.20359 9.19704C6.7562 9.74914 7.30881 10.3012 7.86039 10.8544C7.90997 10.9039 7.95129 10.9628 7.99622 11.017C8.01688 11.0083 8.03651 10.999 8.05665 10.9897Z" fill="#7D7AB9"/>
</svg>
