<svg width="136" height="27" viewBox="0 0 136 27" fill="none" xmlns="http://www.w3.org/2000/svg">
<path d="M11.816 16.268C12.2827 16.5853 12.516 17.0987 12.516 17.808C12.516 18.4987 12.3387 19.068 11.984 19.516C11.6293 19.964 11.1627 20.3373 10.584 20.636C9.38933 21.252 8.148 21.56 6.86 21.56C5.572 21.56 4.54533 21.42 3.78 21.14C3.03333 20.86 2.408 20.4587 1.904 19.936C0.914667 18.9467 0.42 17.5467 0.42 15.736C0.42 12.9173 1.18533 10.6493 2.716 8.932C4.35867 7.084 6.608 6.16 9.464 6.16C11.2373 6.16 12.5627 6.53333 13.44 7.28C14.0933 7.84 14.42 8.57733 14.42 9.492C14.42 12.7773 11.5827 14.42 5.908 14.42C5.83333 14.9053 5.796 15.3533 5.796 15.764C5.796 16.6227 5.98267 17.22 6.356 17.556C6.748 17.8733 7.29867 18.032 8.008 18.032C8.71733 18.032 9.44533 17.8733 10.192 17.556C10.9573 17.22 11.4987 16.7907 11.816 16.268ZM6.104 13.216C7.42933 13.216 8.47467 12.8053 9.24 11.984C10.0053 11.2 10.388 10.1827 10.388 8.932C10.388 8.50267 10.304 8.176 10.136 7.952C9.98667 7.70933 9.75333 7.588 9.436 7.588C9.11867 7.588 8.82 7.65333 8.54 7.784C8.27867 7.896 8.008 8.15733 7.728 8.568C7.03733 9.50133 6.496 11.0507 6.104 13.216ZM16.5823 20.16C16.153 19.6747 15.8357 19.0493 15.6303 18.284C15.4437 17.5187 15.3503 16.5107 15.3503 15.26C15.3503 14.0093 15.565 12.8147 15.9943 11.676C16.4237 10.5373 17.0303 9.55733 17.8143 8.736C19.4197 7.01867 21.5477 6.16 24.1983 6.16C25.1503 6.16 25.9717 6.31867 26.6623 6.636L31.4503 6.16L29.3783 17.08C29.3223 17.304 29.2943 17.6213 29.2943 18.032C29.2943 18.4427 29.4157 18.7787 29.6583 19.04C29.9197 19.3013 30.237 19.4507 30.6103 19.488C30.4237 20.1227 29.985 20.6267 29.2943 21C28.6223 21.3733 27.9037 21.56 27.1383 21.56C26.373 21.56 25.729 21.4107 25.2063 21.112C24.7023 20.832 24.3757 20.4493 24.2263 19.964C23.9277 20.4307 23.461 20.8133 22.8263 21.112C22.1917 21.4107 21.445 21.56 20.5863 21.56C19.7463 21.56 18.981 21.448 18.2903 21.224C17.5997 21 17.0303 20.6453 16.5823 20.16ZM22.4903 8.792C22.285 9.128 22.089 9.58533 21.9023 10.164C21.7157 10.724 21.4637 11.7693 21.1463 13.3C20.8477 14.812 20.6983 16.1093 20.6983 17.192C20.6983 18.2747 20.7823 18.9747 20.9503 19.292C21.1183 19.6093 21.3517 19.768 21.6503 19.768C22.2477 19.768 22.761 19.488 23.1903 18.928C23.6383 18.3493 23.9463 17.556 24.1143 16.548L25.5983 8.344C25.2063 8.008 24.777 7.84 24.3103 7.84C23.8623 7.84 23.4983 7.91467 23.2183 8.064C22.957 8.21333 22.7143 8.456 22.4903 8.792ZM41.3324 11.172C41.5937 10.4813 41.7244 9.83733 41.7244 9.24C41.7244 8.13867 41.2764 7.588 40.3804 7.588C39.9137 7.588 39.4844 7.80267 39.0924 8.232C38.719 8.64267 38.5324 9.10933 38.5324 9.632C38.5324 10.0053 38.6817 10.3413 38.9804 10.64C39.4097 11.0507 40.175 11.592 41.2764 12.264C42.3777 12.936 43.1337 13.552 43.5444 14.112C43.9737 14.6533 44.1884 15.3067 44.1884 16.072C44.1884 16.8187 44.0017 17.5373 43.6284 18.228C43.2737 18.9187 42.7697 19.5067 42.1164 19.992C40.7164 21.0373 38.8964 21.56 36.6564 21.56C35.443 21.56 34.3697 21.2427 33.4364 20.608C32.503 19.992 32.0364 19.32 32.0364 18.592C32.0364 17.864 32.2977 17.2853 32.8204 16.856C33.3617 16.4267 34.0244 16.212 34.8084 16.212C35.5924 16.212 36.227 16.3613 36.7124 16.66C36.4697 17.276 36.3484 17.7893 36.3484 18.2C36.3484 19.432 36.871 20.048 37.9164 20.048C38.3644 20.048 38.7377 19.908 39.0364 19.628C39.335 19.348 39.4844 18.9653 39.4844 18.48C39.4844 17.528 38.6817 16.548 37.0764 15.54C35.7697 14.6813 34.967 14.084 34.6684 13.748C34.1644 13.1507 33.9124 12.4787 33.9124 11.732C33.9124 10.9853 34.0897 10.2573 34.4444 9.548C34.799 8.83867 35.303 8.232 35.9564 7.728C37.319 6.68267 39.1857 6.16 41.5564 6.16C42.7697 6.16 43.731 6.40267 44.4404 6.888C45.1684 7.37333 45.5324 8.02667 45.5324 8.848C45.5324 9.66933 45.2804 10.3133 44.7764 10.78C44.291 11.2467 43.6004 11.48 42.7044 11.48C42.0884 11.48 41.631 11.3773 41.3324 11.172ZM55.4816 17.836C54.5109 18.844 53.1389 19.348 51.3656 19.348C49.1442 19.348 47.8002 18.536 47.3336 16.912C47.1842 16.4267 47.1096 15.9133 47.1096 15.372C47.1096 14.8307 47.1656 14.28 47.2776 13.72L48.5936 6.72L54.2776 6.16L52.7376 14.308C52.7002 14.5507 52.6536 14.8027 52.5976 15.064C52.5416 15.3253 52.5136 15.596 52.5136 15.876C52.5136 16.1373 52.5602 16.3613 52.6536 16.548C52.7469 16.716 52.8589 16.856 52.9896 16.968C53.2136 17.1173 53.5216 17.192 53.9136 17.192C54.3242 17.192 54.6976 16.9493 55.0336 16.464C55.3882 15.9787 55.6496 15.316 55.8176 14.476L57.3576 6.72L62.8736 6.16L60.7736 17.164C60.0829 20.748 59.0282 23.2493 57.6096 24.668C56.8816 25.396 56.0416 25.9 55.0896 26.18C54.1562 26.4787 53.0829 26.628 51.8696 26.628C49.9096 26.628 48.3696 26.32 47.2496 25.704C46.1296 25.088 45.5696 24.2667 45.5696 23.24C45.5696 22.4747 45.8589 21.868 46.4376 21.42C47.0162 20.9907 47.7536 20.776 48.6496 20.776C49.4336 20.776 50.1242 20.944 50.7216 21.28C51.0762 21.4853 51.3376 21.7187 51.5056 21.98C51.0762 22.3533 50.8616 22.848 50.8616 23.464C50.8616 24.2853 51.2349 24.696 51.9816 24.696C53.2136 24.696 54.1842 23.2773 54.8936 20.44C55.0989 19.6 55.2949 18.732 55.4816 17.836ZM76.9342 19.096C76.1502 19.88 75.2168 20.4867 74.1342 20.916C73.0702 21.3453 72.0062 21.56 70.9422 21.56C69.8782 21.56 69.1595 21.4667 68.7862 21.28L67.9182 26.04L62.2342 26.6L66.0982 6.72L70.6622 6.244L70.2982 8.176C71.0822 6.85067 72.2862 6.188 73.9102 6.188C75.7395 6.188 77.1395 6.776 78.1102 7.952C78.9688 9.016 79.3982 10.36 79.3982 11.984C79.3982 13.608 79.1835 14.9987 78.7542 16.156C78.3248 17.3133 77.7182 18.2933 76.9342 19.096ZM69.1222 19.432C69.5142 19.768 69.9528 19.936 70.4382 19.936C70.9235 19.936 71.3062 19.8427 71.5862 19.656C71.8662 19.4693 72.1088 19.1893 72.3142 18.816C72.8742 17.808 73.3782 15.7733 73.8262 12.712C73.9568 11.816 74.0222 10.9293 74.0222 10.052C74.0222 9.17467 73.9195 8.596 73.7142 8.316C73.5275 8.036 73.2475 7.896 72.8742 7.896C71.7355 7.896 70.9795 9.00667 70.6062 11.228L69.1222 19.432ZM87.7774 19.46C87.1987 20.86 85.9854 21.56 84.1374 21.56C83.204 21.56 82.4387 21.2333 81.8414 20.58C81.356 20.0387 81.1134 19.46 81.1134 18.844C81.1134 17.444 81.44 15.2133 82.0934 12.152L84.1374 1.4L89.8214 0.839999L87.1054 15.008C86.788 16.3893 86.6294 17.3227 86.6294 17.808C86.6294 18.872 87.012 19.4227 87.7774 19.46ZM91.3675 20.16C90.9382 19.6747 90.6208 19.0493 90.4155 18.284C90.2288 17.5187 90.1355 16.5107 90.1355 15.26C90.1355 14.0093 90.3502 12.8147 90.7795 11.676C91.2088 10.5373 91.8155 9.55733 92.5995 8.736C94.2048 7.01867 96.3328 6.16 98.9835 6.16C99.9355 6.16 100.757 6.31867 101.448 6.636L106.236 6.16L104.164 17.08C104.108 17.304 104.079 17.6213 104.079 18.032C104.079 18.4427 104.201 18.7787 104.444 19.04C104.705 19.3013 105.022 19.4507 105.396 19.488C105.209 20.1227 104.77 20.6267 104.079 21C103.408 21.3733 102.689 21.56 101.924 21.56C101.158 21.56 100.514 21.4107 99.9915 21.112C99.4875 20.832 99.1608 20.4493 99.0115 19.964C98.7128 20.4307 98.2462 20.8133 97.6115 21.112C96.9768 21.4107 96.2302 21.56 95.3715 21.56C94.5315 21.56 93.7662 21.448 93.0755 21.224C92.3848 21 91.8155 20.6453 91.3675 20.16ZM97.2755 8.792C97.0702 9.128 96.8742 9.58533 96.6875 10.164C96.5008 10.724 96.2488 11.7693 95.9315 13.3C95.6328 14.812 95.4835 16.1093 95.4835 17.192C95.4835 18.2747 95.5675 18.9747 95.7355 19.292C95.9035 19.6093 96.1368 19.768 96.4355 19.768C97.0328 19.768 97.5462 19.488 97.9755 18.928C98.4235 18.3493 98.7315 17.556 98.8995 16.548L100.384 8.344C99.9915 8.008 99.5622 7.84 99.0955 7.84C98.6475 7.84 98.2835 7.91467 98.0035 8.064C97.7422 8.21333 97.4995 8.456 97.2755 8.792ZM119.59 21.56C117.331 21.56 116.202 20.6827 116.202 18.928C116.22 18.4427 116.304 17.7893 116.454 16.968L116.958 14.392C117.462 11.9653 117.714 10.4813 117.714 9.94C117.714 8.85733 117.396 8.316 116.762 8.316C115.698 8.316 114.886 9.70667 114.326 12.488L112.674 21L107.046 21.56L109.958 6.692L114.55 6.16L114.102 8.904C114.979 7.07467 116.762 6.16 119.45 6.16C120.756 6.16 121.68 6.44 122.222 7C122.782 7.54133 123.062 8.428 123.062 9.66C123.062 10.8173 122.763 12.7493 122.166 15.456C121.886 16.6693 121.746 17.5093 121.746 17.976C121.746 18.424 121.867 18.7787 122.11 19.04C122.371 19.3013 122.688 19.4507 123.062 19.488C122.875 20.1227 122.455 20.6267 121.802 21C121.167 21.3733 120.43 21.56 119.59 21.56ZM125.748 18.2C125.748 17.696 125.879 16.8093 126.14 15.54L127.624 7.98H125.972L126.084 7.14C128.324 6.468 130.527 5.31067 132.692 3.668H134.036L133.364 6.72H135.548L135.296 7.98H133.14L131.712 15.54C131.47 16.6973 131.348 17.472 131.348 17.864C131.348 18.76 131.74 19.3013 132.524 19.488C132.338 20.1227 131.908 20.6267 131.236 21C130.564 21.3733 129.752 21.56 128.8 21.56C127.848 21.56 127.102 21.2613 126.56 20.664C126.019 20.0667 125.748 19.2453 125.748 18.2Z" fill="#626262"/>
</svg>
