<svg width="59" height="24" viewBox="0 0 59 24" fill="none" xmlns="http://www.w3.org/2000/svg">
<path d="M8.21403 5.99023C4.16238 5.99023 0.786133 7.70915 0.786133 12.895C0.786133 17.0034 3.05641 19.5906 8.31865 19.5906C14.5126 19.5906 14.9096 15.5105 14.9096 15.5105H11.9084C11.9084 15.5105 11.2649 17.7075 8.13557 17.7075C5.58683 17.7075 3.75368 15.9857 3.75368 13.5725H15.2235V12.0581C15.2235 9.67061 13.7078 5.99023 8.21403 5.99023V5.99023ZM8.10941 7.92567C10.5355 7.92567 12.1895 9.41197 12.1895 11.6396H3.82006C3.82006 9.2747 5.97893 7.92567 8.10941 7.92567V7.92567Z" fill="#E53238"/>
<path d="M15.2211 0.967773V16.9855C15.2211 17.8947 15.1562 19.1714 15.1562 19.1714H18.0188C18.0188 19.1714 18.1215 18.2545 18.1215 17.4165C18.1215 17.4165 19.5358 19.6291 23.3814 19.6291C27.4309 19.6291 30.1816 16.8176 30.1816 12.7896C30.1816 9.04247 27.655 6.02868 23.3879 6.02868C19.3921 6.02868 18.1505 8.18644 18.1505 8.18644V0.967773H15.2211ZM22.649 8.00989C25.399 8.00989 27.1476 10.0508 27.1476 12.7896C27.1476 15.7265 25.128 17.6479 22.6687 17.6479C19.7337 17.6479 18.1505 15.3562 18.1505 12.8158C18.1505 10.4486 19.5711 8.00989 22.649 8.00989Z" fill="#0064D2"/>
<path d="M37.2961 5.99023C31.2007 5.99023 30.8097 9.32778 30.8097 9.86111H33.8437C33.8437 9.86111 34.0028 7.9126 37.0868 7.9126C39.0909 7.9126 40.6439 8.82989 40.6439 10.5934V11.2211H37.0868C32.3646 11.2211 29.8682 12.6026 29.8682 15.4059C29.8682 18.1647 32.1748 19.6658 35.292 19.6658C39.5402 19.6658 40.9087 17.3184 40.9087 17.3184C40.9087 18.2521 40.9806 19.1721 40.9806 19.1721H43.6778C43.6778 19.1721 43.5732 18.0317 43.5732 17.3021V10.9956C43.5732 6.86047 40.2378 5.99023 37.2961 5.99023V5.99023ZM40.6439 13.1043V13.9412C40.6439 15.0328 39.9703 17.7467 36.0047 17.7467C33.8331 17.7467 32.9021 16.663 32.9021 15.4059C32.9021 13.119 36.0375 13.1043 40.6439 13.1043V13.1043Z" fill="#F5AF02"/>
<path d="M41.9395 6.51367H45.3526L50.251 16.3272L55.1382 6.51367H58.23L49.3281 23.9849H46.085L48.6537 19.1146L41.9395 6.51367Z" fill="#86B817"/>
</svg>
