<svg width="304" height="409" viewBox="0 0 304 409" fill="none" xmlns="http://www.w3.org/2000/svg">
<path d="M244.625 283.884H231.539V409.181H244.625V283.884Z" fill="#4E49A0"/>
<path d="M300.912 279.292H172.917V288.483H300.912V279.292Z" fill="#4E49A0"/>
<path d="M296.809 279.829H172.917V288.483H296.809V279.829Z" fill="#7D7AB9"/>
<path d="M241.513 283.884H228.426V409.181H241.513V283.884Z" fill="#7D7AB9"/>
<path d="M303.536 279.292V255.981C303.536 237.827 288.682 222.974 270.529 222.974H177.696C160.985 222.974 147.318 236.646 147.318 253.352V279.292H303.536Z" fill="#7D7AB9"/>
<path d="M287.405 227.662C282.461 224.693 276.686 222.974 270.528 222.974H177.696C171.773 222.974 166.238 224.698 161.554 227.662H287.405Z" fill="#7D7AB9"/>
<path d="M303.541 272.426H147.318V279.291H303.541V272.426Z" fill="#7D7AB9"/>
<path d="M196.398 253.842C196.398 242.272 190.15 232.24 181.209 227.663C176.073 225.034 169.905 225.034 164.769 227.663C155.823 232.235 149.58 242.272 149.58 253.842V278.622C149.841 278.883 149.99 279.032 150.251 279.292H196.382C196.388 279.287 196.393 279.282 196.398 279.276V253.842Z" fill="#4E4E4E"/>
<path d="M166.216 253.841C166.216 242.314 172.416 232.319 181.304 227.721C181.272 227.705 181.24 227.684 181.203 227.662C176.067 225.033 169.899 225.033 164.763 227.662C155.817 232.234 149.574 242.271 149.574 253.841V278.621C149.835 278.882 149.984 279.031 150.245 279.291H166.887C166.626 279.031 166.477 278.882 166.216 278.621V253.841Z" fill="#5F5F5F"/>
<path d="M230.458 248.222H207.701V259.6H230.458V248.222Z" fill="#4E49A0"/>
<path d="M218.644 252.575V254.656H257.191C258.862 254.656 260.219 256.013 260.219 257.684V262.224H273.785V254.656V253.905V252.569H218.644V252.575Z" fill="white"/>
<path d="M213.854 254.07C213.854 254.81 213.258 255.406 212.518 255.406C211.779 255.406 211.183 254.81 211.183 254.07C211.183 253.33 211.779 252.734 212.518 252.734C213.253 252.734 213.854 253.336 213.854 254.07Z" fill="white"/>
<path d="M236.883 288.482C236.883 289.222 236.287 289.818 235.547 289.818C234.807 289.818 234.211 289.222 234.211 288.482C234.211 287.743 234.807 287.146 235.547 287.146C236.287 287.146 236.883 287.743 236.883 288.482Z" fill="white"/>
<path d="M208.213 275.23C208.639 275.656 208.639 276.343 208.213 276.769C207.787 277.194 207.101 277.194 206.675 276.769C206.249 276.343 206.249 275.656 206.675 275.23C207.101 274.805 207.792 274.805 208.213 275.23Z" fill="white"/>
<path d="M216.084 275.23C216.51 275.656 216.51 276.343 216.084 276.769C215.659 277.194 214.972 277.194 214.546 276.769C214.121 276.343 214.121 275.656 214.546 275.23C214.972 274.805 215.664 274.805 216.084 275.23Z" fill="white"/>
<path d="M223.956 275.23C224.382 275.656 224.382 276.343 223.956 276.769C223.53 277.194 222.844 277.194 222.418 276.769C221.992 276.343 221.992 275.656 222.418 275.23C222.844 274.805 223.536 274.805 223.956 275.23Z" fill="white"/>
<path d="M231.827 275.23C232.252 275.656 232.252 276.343 231.827 276.769C231.401 277.194 230.714 277.194 230.289 276.769C229.863 276.343 229.863 275.656 230.289 275.23C230.714 274.805 231.406 274.805 231.827 275.23Z" fill="white"/>
<path d="M239.698 275.23C240.124 275.656 240.124 276.343 239.698 276.769C239.272 277.194 238.586 277.194 238.16 276.769C237.734 276.343 237.734 275.656 238.16 275.23C238.586 274.805 239.278 274.805 239.698 275.23Z" fill="white"/>
<path d="M247.569 275.23C247.995 275.656 247.995 276.343 247.569 276.769C247.144 277.194 246.457 277.194 246.031 276.769C245.605 276.343 245.605 275.656 246.031 275.23C246.457 274.805 247.149 274.805 247.569 275.23Z" fill="white"/>
<path d="M255.441 275.23C255.867 275.656 255.867 276.343 255.441 276.769C255.015 277.194 254.329 277.194 253.903 276.769C253.477 276.343 253.477 275.656 253.903 275.23C254.329 274.805 255.02 274.805 255.441 275.23Z" fill="white"/>
<path d="M263.312 275.23C263.737 275.656 263.737 276.343 263.312 276.769C262.886 277.194 262.199 277.194 261.773 276.769C261.348 276.343 261.348 275.656 261.773 275.23C262.199 274.805 262.886 274.805 263.312 275.23Z" fill="white"/>
<path d="M271.183 275.23C271.609 275.656 271.609 276.343 271.183 276.769C270.757 277.194 270.071 277.194 269.645 276.769C269.219 276.343 269.219 275.656 269.645 275.23C270.071 274.805 270.757 274.805 271.183 275.23Z" fill="white"/>
<path d="M279.054 275.23C279.48 275.656 279.48 276.343 279.054 276.769C278.628 277.194 277.942 277.194 277.516 276.769C277.09 276.343 277.09 275.656 277.516 275.23C277.942 274.805 278.628 274.805 279.054 275.23Z" fill="white"/>
<path d="M286.926 275.23C287.352 275.656 287.352 276.343 286.926 276.769C286.5 277.194 285.813 277.194 285.388 276.769C284.962 276.343 284.962 275.656 285.388 275.23C285.813 274.805 286.5 274.805 286.926 275.23Z" fill="white"/>
<path d="M294.797 275.23C295.223 275.656 295.223 276.343 294.797 276.769C294.372 277.194 293.685 277.194 293.259 276.769C292.834 276.343 292.834 275.656 293.259 275.23C293.685 274.805 294.372 274.805 294.797 275.23Z" fill="white"/>
<path d="M187.883 225.901C188.207 225.901 188.469 225.639 188.469 225.316C188.469 224.993 188.207 224.73 187.883 224.73C187.56 224.73 187.298 224.993 187.298 225.316C187.298 225.639 187.56 225.901 187.883 225.901Z" fill="white"/>
<path d="M195.334 225.901C195.658 225.901 195.92 225.639 195.92 225.316C195.92 224.993 195.658 224.73 195.334 224.73C195.011 224.73 194.749 224.993 194.749 225.316C194.749 225.639 195.011 225.901 195.334 225.901Z" fill="white"/>
<path d="M202.785 225.901C203.108 225.901 203.371 225.639 203.371 225.316C203.371 224.993 203.108 224.73 202.785 224.73C202.462 224.73 202.2 224.993 202.2 225.316C202.2 225.639 202.462 225.901 202.785 225.901Z" fill="white"/>
<path d="M210.23 225.901C210.554 225.901 210.816 225.639 210.816 225.316C210.816 224.993 210.554 224.73 210.23 224.73C209.907 224.73 209.645 224.993 209.645 225.316C209.645 225.639 209.907 225.901 210.23 225.901Z" fill="white"/>
<path d="M217.682 225.901C218.005 225.901 218.267 225.639 218.267 225.316C218.267 224.993 218.005 224.73 217.682 224.73C217.358 224.73 217.096 224.993 217.096 225.316C217.096 225.639 217.358 225.901 217.682 225.901Z" fill="white"/>
<path d="M225.132 225.901C225.456 225.901 225.718 225.639 225.718 225.316C225.718 224.993 225.456 224.73 225.132 224.73C224.809 224.73 224.547 224.993 224.547 225.316C224.547 225.639 224.809 225.901 225.132 225.901Z" fill="white"/>
<path d="M232.998 224.9C233.227 225.129 233.227 225.502 232.998 225.73C232.77 225.959 232.397 225.959 232.168 225.73C231.939 225.502 231.939 225.129 232.168 224.9C232.397 224.671 232.77 224.671 232.998 224.9Z" fill="white"/>
<path d="M240.029 225.901C240.352 225.901 240.614 225.639 240.614 225.316C240.614 224.993 240.352 224.73 240.029 224.73C239.705 224.73 239.443 224.993 239.443 225.316C239.443 225.639 239.705 225.901 240.029 225.901Z" fill="white"/>
<path d="M247.895 224.9C248.124 225.129 248.124 225.502 247.895 225.73C247.666 225.959 247.294 225.959 247.065 225.73C246.836 225.502 246.836 225.129 247.065 224.9C247.294 224.671 247.666 224.671 247.895 224.9Z" fill="white"/>
<path d="M254.931 225.901C255.254 225.901 255.516 225.639 255.516 225.316C255.516 224.993 255.254 224.73 254.931 224.73C254.607 224.73 254.345 224.993 254.345 225.316C254.345 225.639 254.607 225.901 254.931 225.901Z" fill="white"/>
<path d="M262.797 224.9C263.026 225.129 263.026 225.502 262.797 225.73C262.568 225.959 262.195 225.959 261.967 225.73C261.738 225.502 261.738 225.129 261.967 224.9C262.195 224.671 262.568 224.671 262.797 224.9Z" fill="white"/>
<path d="M269.827 225.901C270.15 225.901 270.413 225.639 270.413 225.316C270.413 224.993 270.15 224.73 269.827 224.73C269.504 224.73 269.242 224.993 269.242 225.316C269.242 225.639 269.504 225.901 269.827 225.901Z" fill="white"/>
<path d="M138.089 297.136C134.092 305.715 136.061 313.703 142.459 318.2C146.274 320.883 152.219 321.803 158.414 320.547C169.851 318.232 181.496 310.702 186.914 300.659L199.41 277.481H147.259C147.254 277.487 147.248 277.487 147.238 277.492L138.089 297.136Z" fill="#4E49A0"/>
<path d="M138.009 296.321C134.172 304.544 136.067 312.202 142.203 316.513C145.865 319.089 151.57 319.967 157.52 318.764C168.499 316.545 179.676 309.328 184.875 299.701L196.339 278.471C196.584 278.019 196.233 277.486 195.695 277.486H146.812C146.807 277.492 146.801 277.492 146.791 277.497L138.009 296.321Z" fill="#7D7AB9"/>
<path d="M140.42 296.556C137.014 303.858 138.696 310.659 144.14 314.486C147.392 316.769 152.459 317.551 157.738 316.487C167.488 314.512 177.414 308.11 182.028 299.557L192.204 280.707C192.422 280.308 192.113 279.834 191.634 279.834H148.228C148.222 279.839 148.217 279.839 148.212 279.845L140.42 296.556Z" fill="#7D7AB9"/>
<path d="M252.597 66.51L101.829 0L64.5294 84.5527L215.298 151.063L252.597 66.51Z" fill="#FCFCFC"/>
<path d="M172.423 41.1934L64.5234 84.5521L215.297 151.072L172.423 41.1934Z" fill="#F3F3F3"/>
<path opacity="0.2" d="M250.443 65.5676L101.825 0L150.128 93.2263L250.443 65.5676Z" fill="#070707"/>
<path d="M250.443 65.5676L101.825 0L153.199 84.7643L250.443 65.5676Z" fill="#F3F3F3"/>
<path opacity="0.2" d="M132.853 59.8781L64.5234 84.5511L131.656 57.5684L132.853 59.8781Z" fill="#070707"/>
<path opacity="0.2" d="M185.914 83.2911L215.297 151.073L188.426 82.6152L185.914 83.2911Z" fill="#070707"/>
<path d="M117.447 189.513L7.7489 200.418L0 122.29L112.285 133.19L117.447 189.513Z" fill="#FCFCFC"/>
<path d="M65.1048 135.1L7.74902 200.417L117.447 189.512L65.1048 135.1Z" fill="#F3F3F3"/>
<path opacity="0.2" d="M111.124 133.073L0 122.29L69.3144 175.303L111.124 133.073Z" fill="#070707"/>
<path d="M111.124 133.073L0 122.29L68.3138 168.954L111.124 133.073Z" fill="#F3F3F3"/>
<path opacity="0.2" d="M47.2972 158.469L7.74902 200.417L45.6686 157.224L47.2972 158.469Z" fill="#070707"/>
<path opacity="0.2" d="M85.6201 158.767L117.446 189.512L86.7058 157.687L85.6201 158.767Z" fill="#070707"/>
<path d="M129.185 263.746L53.0908 271.51L61.4358 203.5L132.224 228.764L129.185 263.746Z" fill="#FCFCFC"/>
<path d="M107.216 224.527L53.0908 271.51L129.185 263.746L107.216 224.527Z" fill="#F3F3F3"/>
<path opacity="0.2" d="M131.703 228.577L61.4355 203.5L104.651 252.841L131.703 228.577Z" fill="#070707"/>
<path d="M131.703 228.577L61.4355 203.5L104.858 248.29L131.703 228.577Z" fill="#F3F3F3"/>
<path opacity="0.2" d="M92.6124 239.094L53.0908 271.511L91.6704 238.014L92.6124 239.094Z" fill="#070707"/>
<path opacity="0.2" d="M116.146 242.495L129.186 263.746L116.865 241.861L116.146 242.495Z" fill="#070707"/>
<path d="M175.846 65.9996C172.551 67.6281 169.257 67.9687 166.947 67.9687C159.672 67.9687 154.153 63.5195 154.153 55.3022C154.153 47.4735 159.076 41.9492 166.947 41.9492C174.435 41.9492 179.571 47.0424 179.571 54.2751C179.571 58.6392 177.346 61.6781 173.578 61.6781C171.779 61.6781 170.199 60.9064 169.597 59.1128C168.613 60.3529 167.245 61.082 165.702 61.082C162.663 61.082 160.31 58.1708 160.31 54.5359C160.31 50.3847 163.434 48.0323 166.218 48.0323C166.947 48.0323 168.783 48.2452 169.044 48.2452H170.928V57.1011C171.226 58.8574 172.253 59.7568 173.584 59.7568C176.064 59.7568 177.309 57.1916 177.309 54.2378C177.309 48.2878 173.158 43.9663 166.995 43.9663C160.449 43.9663 156.468 48.7135 156.468 55.1798C156.468 61.8537 160.449 65.9197 167.378 65.9197C170.247 65.9197 173.286 65.2332 175.255 64.0783L175.846 65.9996ZM168.783 50.3793C166.899 50.1665 166.899 50.1665 166.346 50.1665C163.951 50.1665 162.45 51.9653 162.45 54.4454C162.45 56.2017 163.179 58.9372 165.617 58.9372C167.288 58.9372 168.097 57.6972 168.528 56.8403C168.826 56.2389 168.741 56.2389 168.783 56.1538V50.3793Z" fill="#CA9765"/>
<path d="M73.0687 154.924C70.4766 156.205 67.8844 156.473 66.067 156.473C60.3425 156.473 56 152.972 56 146.507C56 140.347 59.8735 136 66.067 136C71.959 136 76 140.008 76 145.698C76 149.132 74.2496 151.523 71.2848 151.523C69.8693 151.523 68.6256 150.916 68.1524 149.505C67.3777 150.481 66.3015 151.054 65.0871 151.054C62.696 151.054 60.8451 148.764 60.8451 145.904C60.8451 142.637 63.3032 140.786 65.4933 140.786C66.067 140.786 67.5117 140.954 67.7169 140.954H69.1993V147.922C69.4338 149.304 70.242 150.012 71.2889 150.012C73.2404 150.012 74.2203 147.993 74.2203 145.669C74.2203 140.987 70.9539 137.587 66.1047 137.587C60.9539 137.587 57.8216 141.322 57.8216 146.41C57.8216 151.662 60.9539 154.861 66.4062 154.861C68.6633 154.861 71.0544 154.321 72.6038 153.412L73.0687 154.924ZM67.5117 142.633C66.0293 142.466 66.0293 142.466 65.5938 142.466C63.7094 142.466 62.5285 143.881 62.5285 145.832C62.5285 147.214 63.1022 149.367 65.0201 149.367C66.335 149.367 66.9715 148.391 67.3107 147.717C67.5452 147.244 67.4782 147.244 67.5117 147.177V142.633Z" fill="#CA9765"/>
<path d="M108.838 238.016C107.192 238.83 105.546 239 104.392 239C100.757 239 98 236.777 98 232.672C98 228.76 100.46 226 104.392 226C108.134 226 110.7 228.545 110.7 232.158C110.7 234.339 109.588 235.857 107.705 235.857C106.807 235.857 106.017 235.471 105.717 234.575C105.225 235.195 104.541 235.559 103.77 235.559C102.252 235.559 101.077 234.105 101.077 232.289C101.077 230.215 102.637 229.039 104.028 229.039C104.392 229.039 105.31 229.146 105.44 229.146H106.381V233.57C106.53 234.448 107.043 234.897 107.708 234.897C108.947 234.897 109.569 233.615 109.569 232.14C109.569 229.167 107.495 227.008 104.416 227.008C101.146 227.008 99.1567 229.38 99.1567 232.61C99.1567 235.945 101.146 237.976 104.608 237.976C106.041 237.976 107.559 237.633 108.543 237.056L108.838 238.016ZM105.31 230.212C104.368 230.106 104.368 230.106 104.092 230.106C102.895 230.106 102.145 231.004 102.145 232.243C102.145 233.121 102.51 234.488 103.728 234.488C104.562 234.488 104.967 233.868 105.182 233.44C105.331 233.139 105.288 233.139 105.31 233.097V230.212Z" fill="#CA9765"/>
</svg>
