<svg width="47" height="23" viewBox="0 0 47 23" fill="none" xmlns="http://www.w3.org/2000/svg">
<path d="M5.31893 2.25254V8.48655C5.31893 8.48655 7.51175 8.48655 8.68533 8.39731C9.60825 8.23545 9.77812 8.14621 9.94799 7.22169L10.2877 5.8676H11.2914L11.1216 8.82689L11.2107 11.8588H10.1987L9.94799 10.6749C9.69733 9.83234 9.35758 9.66113 8.68533 9.5802C7.84425 9.49096 5.31893 9.49096 5.31893 9.49096V14.7195C5.31893 15.725 5.82855 16.1546 7.00213 16.1546H10.5384C11.6312 16.1546 12.7229 16.0653 13.4035 14.4684L14.3181 12.442H15.1675C15.0784 12.8632 14.6579 16.5758 14.5771 17.4111C14.5771 17.4111 11.3805 17.3302 10.0371 17.3302H3.97547L0.358398 17.4111V16.4949L1.53198 16.2355C2.38135 16.0653 2.63202 15.8142 2.63202 15.1408C2.63202 15.1408 2.7211 12.8632 2.7211 9.06865C2.7211 5.28342 2.63202 3.00481 2.63202 3.00481C2.63202 2.25046 2.38135 2.08029 1.53198 1.91012L0.358398 1.66109V0.736576L3.89468 0.809209H10.6275C11.9709 0.809209 14.2363 0.566406 14.2363 0.566406C14.2363 0.566406 14.1555 1.99313 14.0664 5.36539H13.1435L12.8037 4.18147C12.4723 2.66551 11.9699 1.91116 11.0397 1.91116H5.74776C5.31893 1.9122 5.31893 1.99313 5.31893 2.25254ZM18.9461 2.91765H19.9581V6.46008L23.4136 6.28991L23.2437 7.89511L19.8773 7.6357V13.878C19.8773 15.6451 20.4678 16.3258 21.4797 16.3258C22.3944 16.3258 23.0739 15.8152 23.3245 15.394L23.8259 15.9854C23.3245 17.161 21.9003 17.7525 20.5485 17.7525C18.8736 17.7525 17.5136 16.747 17.5136 14.8098V7.7239H15.5062V6.88135C17.1904 6.71118 18.4448 5.69743 18.9461 2.91765ZM26.1886 13.7877L26.8598 15.3929C27.1105 16.0653 27.7009 16.747 29.0443 16.747C30.4769 16.747 31.0673 15.9854 31.0673 15.0609C31.0673 12.1908 25.4272 13.0344 25.4272 9.15893C25.4272 6.97059 27.1912 5.94853 29.4649 5.94853C30.4769 5.94853 31.9902 6.1187 32.7505 6.45904C32.5806 7.30159 32.4915 8.39628 32.4915 9.23986L31.6577 9.32079L31.0673 7.63466C30.8974 7.22169 30.2179 6.88032 29.3841 6.88032C28.3721 6.88032 27.3611 7.30159 27.3611 8.39628C27.3611 11.0069 33.171 10.4227 33.171 14.2983C33.171 16.4949 31.2371 17.6705 28.8744 17.6705C27.1105 17.6705 25.3382 16.9898 25.3382 16.9898C25.508 15.9844 25.4272 14.8907 25.3382 13.7877H26.1886V13.7877ZM32.7515 21.8781C33.0022 20.9535 33.1721 19.779 33.3419 18.676L34.2648 18.595L34.6046 20.3621C34.6854 20.7834 34.9361 21.1237 35.6083 21.1237C36.7011 21.1237 38.1336 20.4513 39.4843 18.0918C38.8856 16.6568 37.1216 12.0279 35.5192 8.48551C35.0987 7.55373 35.0179 7.47176 34.4347 7.30159L34.0059 7.13972V6.28887L36.5385 6.37811L39.6459 6.20794V7.05152L38.8856 7.22169C38.2952 7.30263 38.0518 7.63466 38.0518 7.97604C38.0518 8.06528 38.0518 8.14621 38.1326 8.31638C38.2942 8.82689 39.6459 12.6132 40.6579 15.1418C41.4917 13.3748 43.0941 9.41107 43.3448 8.73765C43.4339 8.39731 43.5147 8.31638 43.5147 8.06528C43.5147 7.6357 43.264 7.3846 42.6809 7.22273L42.0822 7.05152V6.20898L44.4449 6.28991L46.6294 6.20898V7.05152L46.2088 7.38356C45.3678 7.7239 45.2787 7.80483 44.9462 8.48551L41.2483 17.159C39.0555 22.1364 36.7819 22.5577 35.1867 22.5577C34.1758 22.5587 33.4155 22.2993 32.7515 21.8781Z" fill="#F45800"/>
</svg>
