<svg width="4" height="18" viewBox="0 0 4 18" fill="none" xmlns="http://www.w3.org/2000/svg">
<path fill-rule="evenodd" clip-rule="evenodd" d="M1.62795 0.0200554C0.898601 0.193018 0.342014 0.724438 0.0865147 1.49191C-0.0598091 1.93148 -0.0584663 1.95933 0.392845 7.85494C0.758926 12.6372 0.816023 13.3005 0.877117 13.4802C0.967079 13.7448 1.22382 14.0515 1.47283 14.1919C1.64592 14.2894 1.68591 14.2975 1.99592 14.2975C2.30592 14.2975 2.34592 14.2894 2.519 14.1919C2.76801 14.0515 3.02475 13.7448 3.11472 13.4802C3.17581 13.3005 3.23291 12.6372 3.59899 7.85494C3.90979 3.79499 4.01031 2.34496 3.99918 2.08131C3.97527 1.51402 3.78774 1.0516 3.41532 0.64146C3.04128 0.229561 2.61098 0.0243504 2.07584 0.00262886C1.90001 -0.00448256 1.69844 0.00333296 1.62795 0.0200554ZM1.65014 15.1798C0.686995 15.4652 0.368165 16.8178 1.08316 17.585C1.84911 18.4069 3.12015 17.9406 3.28361 16.7777C3.42728 15.7557 2.56229 14.9095 1.65014 15.1798Z" fill="white"/>
</svg>
