<svg id="Layer_1" data-name="Layer 1" xmlns="http://www.w3.org/2000/svg" viewBox="0 0 440.99 487.66"><defs><style>.cls-1{fill:#5f5f5f;}</style></defs><title>Group</title><path class="cls-1" d="M74.05,492.91C63,490.7,52,488.2,41.92,482.83c-23.76-12.77-37-31.58-36.84-59.5.49-59.68.79-119.27-.07-178.86-.48-34,20.21-53.73,43.39-63.51A102.45,102.45,0,0,1,87,173.29c22.7-.29,45.41,0,68.21-.18,4.42,0,6.15,1.24,6.06,5.95-.29,11.13-.2,22.16,0,33.29.1,4-1.44,5.18-5.29,5.18-21.16-.1-42.23-.2-63.4,0-10.58.1-20.87,1.15-30.49,6.14C53.69,228,49.45,234,49.45,244q.42,89.82,0,179.72c0,8.54,3.36,14.2,10.38,18.33A49.37,49.37,0,0,0,84.34,449c21.17.2,42.24.1,63.4.11l213.56,0c9,0,17.7-1.06,26-4.8,9.42-4.31,14.72-10.55,14.62-22-.37-59.78-.27-119.56-.07-179.24,0-8.73-3.65-14.3-10.87-18.52-9.52-5.57-20-6.91-30.78-7-21.26-.19-42.62-.2-63.88,0-4.71.1-6.44-1.25-6.25-6.14.39-10.94.2-21.88,0-32.82-.1-3.74,1.06-5.47,5.1-5.47,23.66.1,47.33-.47,71,.3,24.34.77,46.56,7.88,64,26.21a55.21,55.21,0,0,1,15.77,39.15q.14,94.41,0,188.83c-.1,24.86-13.28,41.84-34.06,53.93-10.77,6.23-22.61,9.11-34.63,11.41Z" transform="translate(-5 -5.29)"/><path class="cls-1" d="M203.49,82.53c-2.31.38-3,1.92-4.14,3-7.31,7.2-14.52,14.58-21.93,21.78-8.95,8.73-22.9,8.82-31.27.47a22,22,0,0,1,0-31.56q31.89-32.1,64.07-63.9c9.53-9.4,22.9-9.3,32.42.1q32,31.67,63.68,63.53c9.33,9.4,9.42,22.55.57,31.47s-22.51,8.73-32-.48c-7.51-7.29-14.82-14.78-22.32-22.17-1.25-1.25-2.5-2.4-3.94-3.74-1.25,2.11-.77,4-.77,5.75l0,211.1c0,11-5.2,19.1-14.34,22.45a22.17,22.17,0,0,1-30-19.19c-.1-2-.1-4.13-.09-6.14l0-206.78C203.49,86.36,203.49,84.54,203.49,82.53Z" transform="translate(-5 -5.29)"/></svg>