<svg id="Layer_1" data-name="Layer 1" xmlns="http://www.w3.org/2000/svg" viewBox="0 0 397 481"><defs><style>.cls-1{fill:#7d7ab9;}</style></defs><title>Vector</title><path class="cls-1" d="M175.77,424.51c10-9.52,18.76-18.23,27.91-26.34,8.76-7.79,12.39-17.58,12.29-29.91-.26-28.24,0-56.48-.13-84.72-.11-18.79,6.12-34.45,18.06-47.45,9.42-10.25,19-20.38,28.46-30.55q46.56-49.83,93.15-99.66a32.3,32.3,0,0,0,9.3-23.77c-.24-12.32-.05-24.66-.06-37,0-9.47-.85-10.4-9.42-10.4H39.72c-7,0-8.47,1.67-8.49,9.44,0,11.8.13,23.59-.05,35.39-.18,10.8,3.13,19.51,10.16,27.25,38.05,41.88,75.7,84.23,113.83,126,14.15,15.52,20.85,33.64,20.69,55.65-.32,42.72-.1,85.44-.1,128.16C175.77,418.74,175.77,420.84,175.77,424.51ZM367.76,0C388.82,8,397,20.66,397,45.55c0,9.12.08,18.22,0,27.34-.06,6.41.32,12.84-.56,19.25a68.82,68.82,0,0,1-18.21,38.66c-39,41.79-77.76,83.88-117.13,125.26-9.82,10.33-14.11,21.5-13.77,36.35.62,27.32.22,54.68.16,82-.05,19.2-6.94,35-19.89,47.5-18.46,17.8-37.16,35.29-55.61,53.1-5.62,5.41-11.66,7.76-18.6,4.44-7.41-3.54-9.81-10.53-9.8-19.17.09-58.25,0-116.51.13-174.76,0-10.34-3.08-18.52-9.66-25.78-37.54-41.43-74.77-83.2-112.4-124.53C11,123.61,2.86,110.84,0,94.39V31.1Q6.53,7.25,28,0Z"/></svg>