<svg width="21" height="21" viewBox="0 0 21 21" fill="none" xmlns="http://www.w3.org/2000/svg">
<path fill-rule="evenodd" clip-rule="evenodd" d="M1.75 10.5C1.75 5.67 5.67 1.75 10.5 1.75C15.33 1.75 19.25 5.67 19.25 10.5C19.25 15.33 15.33 19.25 10.5 19.25C5.67 19.25 1.75 15.33 1.75 10.5ZM10.5 14C10.9832 14 11.375 14.3918 11.375 14.875C11.375 15.3582 10.9832 15.75 10.5 15.75C10.0168 15.75 9.625 15.3582 9.625 14.875C9.625 14.3918 10.0168 14 10.5 14ZM10.5 18C6.64125 18 3 14.3587 3 10.5C3 6.64125 6.64125 3 10.5 3C14.3587 3 18 6.64125 18 10.5C18 14.3587 14.3587 18 10.5 18ZM7.875 8.75C7.39175 8.75 6.98877 8.35217 7.10789 7.88384C7.49311 6.36937 8.86523 5.25 10.5 5.25C12.4338 5.25 14 6.81625 14 8.75C14 9.87255 13.3087 10.4767 12.6357 11.0648C12.213 11.4342 11.7975 11.7973 11.5649 12.2785C11.3546 12.7136 10.9832 13.125 10.5 13.125C10.0168 13.125 9.60747 12.7265 9.72137 12.2569C9.95951 11.275 10.5983 10.7854 11.1741 10.344C11.7427 9.90816 12.25 9.51931 12.25 8.75C12.25 7.7875 11.4625 7 10.5 7C9.84081 7 9.2637 7.36938 8.96544 7.91137C8.73246 8.33475 8.35825 8.75 7.875 8.75Z" fill="#5F5F5F"/>
</svg>
