<svg id="Layer_1" data-name="Layer 1" xmlns="http://www.w3.org/2000/svg" viewBox="0 0 493.66 464.76"><defs><style>.cls-1{fill:#7d7ab9;}</style></defs><title>history</title><path class="cls-1" d="M496.06,229.92v40.53h.4V229.92Zm-.63-2.78a27,27,0,0,0,.64,2.83l.39-.09a23.41,23.41,0,0,1-.63-2.78ZM430.12,87.77c38,38.73,59.58,85.36,65.31,139.37l.4,0C490.09,173,468.47,126.28,430.4,87.49ZM281.7,18.87c57.86,4.32,107.62,27.32,148.42,68.9l.28-.28c-40.86-41.65-90.71-64.69-148.67-69ZM158.18,44.72c38.59-20.65,80.08-29.09,123.52-25.85l0-.4c-43.52-3.24-85.08,5.21-123.73,25.9ZM43.5,184Q72.42,90.82,158.18,44.72l-.18-.35q-86,46-114.88,139.5Zm-6.06,24.76c1.92-8.4,3.56-16.69,6.06-24.76l-.38-.12c-2.51,8.09-4.15,16.4-6.07,24.79Zm-4.7-4.7c.27.4.52.83.78,1.28a14.86,14.86,0,0,0,.83,1.35,5.82,5.82,0,0,0,2.82,2.22l.14-.38a5.34,5.34,0,0,1-2.63-2.07c-.3-.42-.56-.87-.82-1.32s-.51-.89-.79-1.31Zm-22.69-5.6c7.54-5.07,16.87-2.75,22.69,5.6l.33-.23c-5.92-8.5-15.49-10.92-23.24-5.7Zm-3.5,23.13c-5.58-8.45-4-18.06,3.5-23.13l-.22-.33c-7.75,5.21-9.3,15.07-3.61,23.68Zm29.11,43.74Q21,243.51,6.55,221.58l-.33.22q14.47,21.94,29.11,43.74Zm26.23,2.57c-4.39,4.32-9.25,6.2-13.85,5.75s-9-3.25-12.38-8.32l-.33.22c3.46,5.15,7.93,8,12.67,8.49s9.72-1.47,14.17-5.86ZM98,231.74q-18,18.15-36.08,36.15l.28.28q18.15-18,36.08-36.15Zm1.37-23.43c6.19,6.39,5.72,16.25-1.37,23.43l.28.28c7.23-7.31,7.74-17.42,1.37-24Zm-23.76,1c7.39-7.09,17.46-7.55,23.76-1l.28-.28c-6.48-6.7-16.8-6.18-24.32,1Zm-6.4,5.21a8.78,8.78,0,0,0,3.72-2.33c.49-.48.93-1,1.37-1.48s.86-1,1.31-1.39l-.28-.29c-.46.44-.9.93-1.33,1.42s-.87,1-1.35,1.46a8.47,8.47,0,0,1-3.55,2.23Zm0-3.59a9.81,9.81,0,0,0-.17,1.5c0,.54,0,1.15-.1,1.89l.4,0c.06-.74.07-1.36.1-1.89a8.68,8.68,0,0,1,.16-1.44Zm52-99.52C93.91,139.25,77,172.82,69.19,211l.39.08c7.79-38.08,24.67-71.58,51.89-99.32ZM275.64,50.33c-60.6-2.71-112.1,18-154.46,61.12l.29.28c42.28-43,93.67-63.7,154.15-61Zm88,25.44a193.71,193.71,0,0,0-88-25.44l0,.4a193.33,193.33,0,0,1,87.81,25.39Zm97.94,211.59A200.24,200.24,0,0,0,363.63,75.77l-.2.35a199.85,199.85,0,0,1,97.75,211.17ZM222.5,446.28C335,469.46,440.73,397.33,461.57,287.36l-.39-.07C440.38,397,334.82,469,222.58,445.89ZM109.27,373.17c28.74,38.39,66.34,63.44,113.23,73.11l.08-.39c-46.79-9.65-84.3-34.64-113-73Zm-22.93-4.33c7.33-5.43,16.9-3.73,22.93,4.33l.32-.24c-6.14-8.22-16-10-23.49-4.41Zm-2.46,22.9c-5.77-7.84-4.59-17.67,2.46-22.9l-.24-.32C78.85,373.89,77.67,384,83.56,392Zm80.22,67.53a218.32,218.32,0,0,1-80.22-67.53l-.32.24a218.72,218.72,0,0,0,80.36,67.65ZM302.17,479c-48,7.42-94.23,1.9-138.07-19.77l-.18.36c43.92,21.71,90.24,27.23,138.31,19.81ZM489.62,306.88c-22,88.95-97.28,158.21-187.45,172.16l.06.4C392.56,465.47,468,396.08,490,307Zm6.44-36.46c-1.83,12.21-3.46,24.45-6.44,36.46l.39.1c3-12,4.62-24.3,6.45-36.5Zm.2-40.5h.2v0Zm-.63-2.8-.2,0h0ZM430.26,87.63l-.14.14h0Zm-148.55-69,0-.2ZM158.09,44.54l-.09-.17h0ZM43.31,183.93l-.19-.06h0Zm-6.07,24.78-.07.19.21.08.06-.23Zm-4.34-4.77-.16.11h0Zm-23-5.65.11.16h0Zm-3.56,23.4.17-.11h0Zm29.11,43.74-.16.11h0ZM62,268l.14.14h0Zm36.08-36.15-.14-.14h0Zm1.37-23.71.14-.14h0Zm-24,1,.14.15h0Zm-6.32,5.16h-.2l0,.29.28-.09Zm.26-3.36.2,0h0Zm52-99.42-.15-.14h0Zm154.3-61.06v-.2h0ZM363.53,76l-.1.17Zm97.84,211.37.2,0ZM222.54,446.09l0,.19h0Zm-113.11-73-.16.12h0Zm-23.21-4.37-.12-.16h0Zm-2.5,23.18.16-.12h0ZM164,459.45l.09-.18h0ZM302.2,479.24l0,.2h0ZM489.82,306.93l-.2-.05h0Zm6.44-36.48.2,0v0h-.2Z" transform="translate(-2.8 -17.8)"/><path class="cls-1" d="M496.26,270.45c-1.83,12.2-3.46,24.45-6.44,36.48-22,89-97.37,158.35-187.62,172.31-48,7.42-94.31,1.9-138.19-19.79a218.61,218.61,0,0,1-80.29-67.59c-5.83-7.92-4.65-17.88,2.5-23.18,7.43-5.51,17.12-3.77,23.21,4.37,28.71,38.35,66.27,63.37,113.11,73,112.35,23.15,218-48.9,238.83-158.77A200,200,0,0,0,363.53,76a193.45,193.45,0,0,0-87.9-25.42c-60.54-2.71-112,18-154.3,61.06C94.08,139.36,77.19,172.89,69.38,211a30.35,30.35,0,0,0-.26,3.36c3.12-1,4.48-3.41,6.32-5.16,7.46-7.15,17.65-7.64,24-1s5.79,16.47-1.37,23.71Q80.16,250,62,268c-8.83,8.72-19.67,7.63-26.54-2.6Q20.86,243.62,6.38,221.69c-5.63-8.53-4.08-18.27,3.56-23.4s17.1-2.78,23,5.65c1.13,1.62,1.73,3.8,4.34,4.77,1.93-8.4,3.57-16.7,6.07-24.78Q72.25,90.69,158.09,44.54c38.62-20.67,80.15-29.11,123.62-25.87C339.63,23,389.43,46,430.26,87.63c38,38.76,59.64,85.43,65.37,139.49a25.6,25.6,0,0,0,.63,2.8Z" transform="translate(-2.8 -17.8)"/><path class="cls-1" d="M273,120.61q0,30.86,0,61.71h.4q0-30.85,0-61.71Zm-.72-6.6a19.07,19.07,0,0,1,.72,6.6h.4a19.6,19.6,0,0,0-.74-6.73Zm-17.61-10.47A15.52,15.52,0,0,1,272.32,114l.38-.13a15.91,15.91,0,0,0-18-10.73ZM242,119.49c0-8.49,5.17-14.79,12.72-15.95l-.06-.39c-7.77,1.19-13,7.67-13.06,16.34Zm-.09,136.93c.14-45.64,0-91.29.09-136.93h-.4c0,45.65,0,91.29-.09,136.93Zm8.16,16.21a20.22,20.22,0,0,1-6.17-7,19.93,19.93,0,0,1-2-9.18h-.4a20.35,20.35,0,0,0,2,9.36,20.66,20.66,0,0,0,6.29,7.17Zm87,65.34c-29-21.78-57.94-43.65-87-65.34l-.24.32c29.06,21.69,58,43.56,87,65.34Zm5.19,3.43a38.17,38.17,0,0,1-5.19-3.43l-.24.32a38,38,0,0,0,5.24,3.46Zm22.22-10.61a15.38,15.38,0,0,1-22.22,10.61l-.19.35a15.8,15.8,0,0,0,22.81-10.88Zm-7.39-17.24a20.22,20.22,0,0,1,6.47,7.5,15.12,15.12,0,0,1,.92,9.74l.4.08a15.59,15.59,0,0,0-.95-10,20.75,20.75,0,0,0-6.6-7.66Zm-79.85-60.43c26.68,20.06,53.21,40.31,79.85,60.43l.24-.32c-26.63-20.12-53.17-40.37-79.85-60.43Zm-4.24-8.6a10.68,10.68,0,0,0,.95,4.87,10.54,10.54,0,0,0,3.29,3.73l.24-.32a10.12,10.12,0,0,1-3.17-3.59,10.34,10.34,0,0,1-.91-4.69Zm.08-62.2c0,20.74.09,41.46-.08,62.2h.4c.17-20.73.08-41.46.08-62.2Zm.17-61.71h0Zm-.73-6.66-.19.06h0Zm-17.83-10.6,0,.19h0Zm-12.89,16.14h0Zm-.09,136.93h0Zm8.24,16.37.12-.16h0Zm87,65.34-.12.16h0Zm5.22,3.44.09-.17h0Zm22.51-10.74-.2,0h0Zm-7.47-17.44-.12.16h0ZM277.35,253l-.12.16h0Zm-4.16-8.44h0Zm.08-62.2h0Z" transform="translate(-2.8 -17.8)"/><path class="cls-1" d="M273.27,182.32c0,20.74.09,41.47-.08,62.2a9.32,9.32,0,0,0,4.16,8.44C304,273,330.56,293.27,357.2,313.39c5.9,4.45,9,9.95,7.47,17.44a15.59,15.59,0,0,1-22.51,10.74,37.33,37.33,0,0,1-5.22-3.44c-29-21.78-57.94-43.65-87-65.34-5.62-4.2-8.25-9.28-8.24-16.37.14-45.64.05-91.28.09-136.93,0-8.58,5.23-15,12.89-16.14A15.7,15.7,0,0,1,272.51,114a19.28,19.28,0,0,1,.73,6.66Q273.28,151.47,273.27,182.32Z" transform="translate(-2.8 -17.8)"/></svg>