<svg width="76" height="62" viewBox="0 0 76 62" fill="none" xmlns="http://www.w3.org/2000/svg">
<path d="M71.5558 12.9541H4.12842V62.0036H71.5558V12.9541Z" fill="#EEEFEF"/>
<path d="M12.6388 20.1318C12.6388 23.6302 9.81051 26.4658 6.32121 26.4658C2.82829 26.4695 0 23.6338 0 20.1318H12.6388Z" fill="#CC4848"/>
<path d="M25.2343 20.1318C25.2343 23.6302 22.406 26.4658 18.9167 26.4658C15.4274 26.4658 12.5991 23.6302 12.5991 20.1318H25.2343Z" fill="#A7DBE6"/>
<path d="M37.8334 20.1318C37.8334 23.6302 35.0051 26.4658 31.5158 26.4658C28.0265 26.4658 25.1982 23.6302 25.1982 20.1318H37.8334Z" fill="#CC4848"/>
<path d="M50.4325 20.1318C50.4325 23.6302 47.6043 26.4658 44.115 26.4658C40.6256 26.4658 37.7974 23.6302 37.7974 20.1318H50.4325Z" fill="#A7DBE6"/>
<path d="M63.0278 20.1318C63.0278 23.6302 60.1995 26.4658 56.7102 26.4658C53.2209 26.4658 50.3926 23.6302 50.3926 20.1318H63.0278Z" fill="#CC4848"/>
<path d="M75.6269 20.1318C75.6269 23.6302 72.7986 26.4658 69.3093 26.4658C65.82 26.4658 62.9917 23.6302 62.9917 20.1318H75.6269Z" fill="#A7DBE6"/>
<path d="M12.6388 20.1318C12.6388 23.6302 9.81051 26.4658 6.32121 26.4658C2.82829 26.4695 0 23.6338 0 20.1318H12.6388Z" fill="#7D7AB9"/>
<path d="M37.8334 20.1318C37.8334 23.6302 35.0051 26.4658 31.5158 26.4658C28.0265 26.4658 25.1982 23.6302 25.1982 20.1318H37.8334Z" fill="#7D7AB9"/>
<path d="M63.0278 20.1318C63.0278 23.6302 60.1995 26.4658 56.7102 26.4658C53.2209 26.4658 50.3926 23.6302 50.3926 20.1318H63.0278Z" fill="#7D7AB9"/>
<path d="M18.1942 0H8.38734L0 20.1319H12.5991L18.1942 0Z" fill="#7D7AB9"/>
<path d="M37.8371 0H28.0302L25.2344 20.1319H37.8334L37.8371 0Z" fill="#7D7AB9"/>
<path d="M57.4798 0H47.6729L50.4722 20.1319H63.0677L57.4798 0Z" fill="#7D7AB9"/>
<path d="M25.2343 20.1318C25.2343 23.6302 22.406 26.4658 18.9167 26.4658C15.4274 26.4658 12.5991 23.6302 12.5991 20.1318H25.2343Z" fill="#CFA174"/>
<path d="M50.4326 20.1318C50.4326 23.6302 47.6043 26.4658 44.115 26.4658C40.6257 26.4658 37.7974 23.6302 37.7974 20.1318H50.4326Z" fill="#CFA174"/>
<path d="M75.6269 20.1318C75.6269 23.6302 72.7986 26.4658 69.3093 26.4658C65.82 26.4658 62.9917 23.6302 62.9917 20.1318H75.6269Z" fill="#CFA174"/>
<path d="M28.0156 0H18.2087L12.6172 20.1319H25.2163L28.0156 0Z" fill="#CFA174"/>
<path d="M47.6585 0H37.8516L37.8552 20.1319H50.4506L47.6585 0Z" fill="#CFA174"/>
<path d="M67.301 0H57.4941L63.0893 20.1319H75.6884L67.301 0Z" fill="#CFA174"/>
<path d="M37.8867 59.4186L37.8867 29.7188L19.3313 29.7187L19.3313 59.4186H37.8867Z" fill="#5F5F5F"/>
<path d="M36.6599 30.9482H20.5571V43.953L36.6599 38.0753V30.9482Z" fill="#A7DBE6"/>
<path d="M20.5571 58.1853H36.6599V44.5576L20.5571 50.4353V58.1853Z" fill="#A7DBE6"/>
<path d="M20.5571 43.9529V50.4354L36.6599 44.5577V38.0752L20.5571 43.9529Z" fill="#CBF2F7"/>
<path d="M35.6908 42.7803H33.8447V47.7403H35.6908V42.7803Z" fill="#5F5F5F"/>
<path d="M36.5605 29.7191L36.5605 59.4189L55.116 59.4189L55.116 29.7191L36.5605 29.7191Z" fill="#5F5F5F"/>
<path d="M37.7873 58.1895H53.8901V45.1847L37.7873 51.0624V58.1895Z" fill="#A7DBE6"/>
<path d="M53.8901 30.9524H37.7873V44.5801L53.8901 38.7024V30.9524Z" fill="#A7DBE6"/>
<path d="M53.8901 45.1848V38.7023L37.7873 44.58V51.0625L53.8901 45.1848Z" fill="#CBF2F7"/>
<path d="M38.7672 47.7402H40.6133V42.7802H38.7672V47.7402Z" fill="#5F5F5F"/>
</svg>
