<svg width="179" height="38" viewBox="0 0 179 38" fill="none" xmlns="http://www.w3.org/2000/svg">
<path d="M31.4903 37.9997C30.1522 36.917 28.7879 35.8669 27.4915 34.7333C25.0438 32.5919 22.7376 30.3211 20.9289 27.5932C19.7047 25.7463 18.8074 23.7593 18.3821 21.5748C17.8287 18.7336 18.1889 15.971 19.1152 13.2601C19.4818 12.1873 19.9439 11.1542 20.464 10.1479C20.5899 9.90377 20.7562 9.58109 21.0357 9.65539C21.3513 9.73889 21.3556 10.121 21.3485 10.4147C21.2395 14.7539 21.8276 18.9912 23.1855 23.1167C24.2095 26.2282 25.6913 29.1146 27.4731 31.8553C28.727 33.7836 30.0652 35.6532 31.3488 37.561C31.4394 37.6954 31.5632 37.8171 31.5604 37.9983C31.5377 37.9997 31.5137 37.9997 31.4903 37.9997Z" fill="#626262"/>
<path d="M0 17.0538C0.0403352 16.4912 0.0976536 15.9294 0.117467 15.3661C0.198845 13.0564 0.566815 10.8125 1.69762 8.76032C3.7448 5.04382 6.84566 2.76099 11.0596 2.13474C13.4436 1.78021 15.7661 2.06185 17.8727 3.37381C18.5683 3.80688 19.1705 4.35105 19.7303 4.94546C19.8987 5.12449 19.8824 5.22285 19.6588 5.33678C19.2024 5.56889 18.7276 5.53068 18.2414 5.50449C14.2843 5.29716 10.5006 5.85407 7.12163 8.10505C4.71285 9.70926 3.00603 11.9178 1.71601 14.4766C1.27516 15.3512 0.884543 16.2478 0.55054 17.1677C0.445102 17.4579 0.292253 17.569 0 17.4784C0 17.3369 0 17.1953 0 17.0538Z" fill="#626262"/>
<path d="M16.9125 0C17.7071 0.0863314 18.5046 0.153557 19.2965 0.261117C24.2471 0.931955 28.6472 2.85389 32.4656 6.08566C33.4478 6.91713 34.3705 7.80946 35.2303 8.76759C35.5204 9.09098 35.524 9.09594 35.1411 9.3245C34.8071 9.52405 34.4823 9.74059 34.1179 9.88212C33.7174 10.0378 33.3551 9.98048 33.0486 9.66417C29.26 5.75378 24.6455 3.25937 19.4649 1.72663C17.0851 1.02324 14.648 0.612104 12.2024 0.233519C12.1246 0.22149 12.0347 0.240596 11.9668 0.129497C12.2329 -0.0318436 12.5463 0.121713 12.8082 0C14.176 0 15.5446 0 16.9125 0Z" fill="#626262"/>
<path d="M36.8325 23.4924C36.7908 23.2695 36.8976 23.0664 36.9457 22.8562C37.0766 22.283 37.2267 21.7169 37.1587 21.1161C37.0731 20.3575 36.6231 19.9068 35.9572 19.635C35.2856 19.3605 34.5737 19.2508 33.8555 19.1977C31.8373 19.0484 29.8043 19.059 27.8123 18.6309C27.041 18.4653 26.2696 18.2983 25.5012 18.1207C24.8452 17.9693 24.3725 17.5001 23.8432 17.1314C23.7059 17.0359 23.7583 16.9057 23.7958 16.779C23.8375 16.6354 23.926 16.5533 24.0774 16.566C25.0164 16.6418 25.9647 16.5781 26.898 16.7245C27.491 16.818 27.9644 16.6814 28.3303 16.191C29.8786 14.1148 31.8104 12.4568 33.9447 11.0125C34.4768 10.6523 34.9665 10.5356 35.5934 10.767C37.1318 11.3345 38.5974 12.0124 39.8159 13.1432C41.2496 14.4736 41.6182 16.0728 41.0203 17.9091C40.5207 19.444 39.5916 20.717 38.5146 21.8889C38.0369 22.409 37.5677 22.9404 37.0306 23.4032C36.9783 23.4464 36.9379 23.5157 36.8325 23.4924Z" fill="#626262"/>
<path d="M11.7785 16.801C11.7679 15.6695 12.3163 13.7199 13.687 12.052C14.9055 10.5695 16.4949 9.63333 18.293 9.02123C18.8187 8.8422 19.3353 8.65114 19.9106 8.81319C20.1116 8.8698 20.1378 8.93278 20.0401 9.09907C19.9495 9.25404 19.8285 9.38071 19.7004 9.50313C17.3193 11.7831 16.0717 14.5931 15.7908 17.856C15.4921 21.3256 16.071 24.6868 17.044 27.9986C17.5259 29.6396 18.1132 31.2438 18.7282 32.8381C18.7664 32.9372 18.8046 33.0362 18.8343 33.1381C18.8633 33.2379 18.9072 33.3455 18.7791 33.4183C18.6369 33.499 18.5604 33.4084 18.489 33.308C18.0906 32.7525 17.6908 32.1977 17.2952 31.6401C15.6124 29.2681 14.1123 26.7921 13.0607 24.0684C12.283 22.0544 11.7962 19.9761 11.7785 16.801Z" fill="#626262"/>
<path d="M8.0484 25.9559C7.74341 25.2851 7.4179 24.6221 7.13626 23.9406C6.42721 22.2232 5.88375 20.4534 5.74789 18.593C5.48323 14.9784 6.33876 11.7261 9.0582 9.16449C10.7056 7.61264 12.7153 6.79037 14.9464 6.48751C16.206 6.31626 17.4529 6.36933 18.7018 6.6163C19.1618 6.70687 19.1073 7.00054 19.1484 7.31402C19.1908 7.63812 18.9538 7.64873 18.7648 7.71454C16.5428 8.48374 14.4589 9.50557 12.6459 11.0291C10.1904 13.0933 8.73269 15.7292 8.1595 18.8697C7.74908 21.1179 7.81064 23.3688 8.12624 25.6205C8.13615 25.6906 8.14606 25.7606 8.14889 25.8307C8.1503 25.864 8.13474 25.8972 8.12695 25.9305C8.10148 25.939 8.07459 25.9475 8.0484 25.9559Z" fill="#626262"/>
<path d="M55.7265 12.2878C56.328 12.2878 56.9287 12.297 57.5295 12.2836C57.7949 12.2779 57.9244 12.3565 57.9081 12.6423C57.8911 12.936 57.8989 13.2318 57.9053 13.5262C57.9095 13.7328 57.826 13.8375 57.613 13.822C57.5897 13.8206 57.5656 13.822 57.5423 13.8227C56.7773 13.8439 56.7773 13.8439 56.7773 14.6265C56.7773 16.1352 56.7844 17.6439 56.7717 19.1526C56.7688 19.4625 56.836 19.5906 57.18 19.5842C57.9845 19.5687 57.906 19.4696 57.9032 20.3237C57.9003 21.2323 58.0121 21.1042 57.1141 21.1106C56.0654 21.1177 55.016 21.1021 53.9673 21.1184C53.6517 21.1233 53.5385 21.0052 53.5639 20.7058C53.5746 20.577 53.5654 20.4468 53.5654 20.3173C53.5654 19.6529 53.5647 19.6465 54.2348 19.5793C54.423 19.5602 54.4747 19.471 54.474 19.3054C54.4718 18.7046 54.469 18.1032 54.4754 17.5024C54.4775 17.2844 54.3784 17.2165 54.1732 17.2186C53.6078 17.2257 53.0417 17.2285 52.4763 17.2179C52.2414 17.2137 52.1678 17.3106 52.1713 17.5335C52.1805 18.1109 52.1805 18.6884 52.1713 19.2658C52.1678 19.4901 52.2442 19.5984 52.4777 19.5779C52.5832 19.5687 52.69 19.5828 52.7955 19.5772C53.0042 19.5658 53.0976 19.6571 53.0934 19.868C53.087 20.1864 53.087 20.5049 53.0934 20.8226C53.0976 21.0349 53.0014 21.1141 52.794 21.1134C51.5444 21.1092 50.2954 21.1092 49.0457 21.1134C48.8384 21.1141 48.7407 21.0313 48.7435 20.8226C48.7471 20.5042 48.7471 20.1864 48.7435 19.868C48.7407 19.6592 48.8377 19.5814 49.045 19.5736C49.2997 19.5637 49.6231 19.6932 49.7923 19.5057C49.9784 19.2991 49.8588 18.9636 49.8602 18.6855C49.868 17.2122 49.8552 15.7389 49.8701 14.2657C49.8736 13.9401 49.8015 13.8064 49.4441 13.8156C48.7074 13.834 48.7393 13.9324 48.7435 13.1186C48.7492 12.1505 48.6409 12.297 49.5665 12.2899C50.6039 12.2822 51.6413 12.2998 52.678 12.2814C53.0085 12.2758 53.1224 12.3918 53.0969 12.7096C53.0778 12.9558 53.082 13.2049 53.0955 13.4519C53.1104 13.7179 53.0219 13.8581 52.7339 13.8248C52.6412 13.8142 52.5449 13.829 52.4515 13.8234C52.2598 13.8114 52.1692 13.8899 52.172 14.0895C52.1784 14.5374 52.177 14.9853 52.1727 15.4333C52.1713 15.6137 52.2527 15.6866 52.4303 15.6852C53.0198 15.6816 53.6092 15.6802 54.198 15.6859C54.394 15.688 54.4754 15.6059 54.4733 15.412C54.4683 14.9874 54.4633 14.5629 54.4761 14.139C54.4839 13.8842 54.3706 13.8206 54.1357 13.8191C53.5647 13.8156 53.5647 13.8064 53.5639 13.2332C53.5625 12.2878 53.5625 12.2878 54.5228 12.2878C54.9247 12.2878 55.3252 12.2878 55.7265 12.2878Z" fill="#626262"/>
<path d="M123.896 15.4188C124.312 15.048 124.752 14.8067 125.298 14.7621C127.109 14.6149 127.972 16.0528 128.161 17.2501C128.282 18.0172 128.235 18.7758 127.973 19.5139C127.355 21.2568 125.446 21.8144 123.991 20.6779C123.965 20.6574 123.932 20.6447 123.897 20.6248C123.769 20.7579 123.923 21.0176 123.713 21.0827C123.561 21.1301 123.387 21.1117 123.223 21.1124C122.504 21.1145 121.785 21.106 121.066 21.1167C120.811 21.1202 120.689 21.0332 120.709 20.7713C120.716 20.6779 120.709 20.5831 120.709 20.4883C120.708 19.6986 120.708 19.6915 121.488 19.6526C121.708 19.6412 121.772 19.5507 121.772 19.349C121.768 17.5813 121.768 15.8136 121.773 14.046C121.773 13.804 121.658 13.7551 121.445 13.7502C120.709 13.7339 120.708 13.7282 120.709 12.9767C120.71 12.1955 120.672 12.2939 121.392 12.2896C122.052 12.2854 122.712 12.2875 123.372 12.2889C123.832 12.2896 123.838 12.2939 123.839 12.7708C123.841 13.5251 123.838 14.2795 123.841 15.0331C123.84 15.1478 123.813 15.2673 123.896 15.4188ZM126.096 17.9797C126.096 17.6606 126.096 17.34 125.966 17.0407C125.808 16.6762 125.576 16.3989 125.144 16.355C124.678 16.3076 124.278 16.4463 124.07 16.873C123.695 17.6471 123.661 18.4538 124.114 19.2046C124.539 19.908 125.486 19.8387 125.878 19.1119C126.072 18.756 126.101 18.3717 126.096 17.9797Z" fill="#626262"/>
<path d="M110.254 12.2885C111.433 12.2885 112.612 12.2998 113.79 12.2814C114.135 12.2764 114.241 12.396 114.231 12.73C114.211 13.3775 114.219 14.0264 114.227 14.6746C114.231 14.9265 114.143 15.0405 113.878 15.0306C113.501 15.0157 113.123 15.0192 112.746 15.0291C112.519 15.0348 112.423 14.9393 112.429 14.7164C112.434 14.5041 112.425 14.2918 112.427 14.0802C112.429 13.904 112.351 13.824 112.172 13.8247C111.5 13.8283 110.828 13.8283 110.156 13.8255C109.97 13.8247 109.909 13.9196 109.909 14.0894C109.911 14.5727 109.915 15.056 109.907 15.5393C109.904 15.7516 109.991 15.8344 110.202 15.8295C110.615 15.821 111.028 15.8408 111.44 15.8231C111.723 15.8111 111.803 15.9321 111.811 16.1967C111.848 17.3629 111.854 17.3573 110.68 17.3643C109.799 17.37 109.918 17.2341 109.909 18.1279C109.905 18.4817 109.926 18.8362 109.903 19.1886C109.882 19.5099 110.013 19.609 110.315 19.5814C110.525 19.5622 110.739 19.5849 110.951 19.5771C111.16 19.57 111.255 19.6613 111.252 19.8694C111.248 20.1878 111.248 20.5055 111.252 20.824C111.254 21.0334 111.155 21.1148 110.949 21.1141C109.487 21.1106 108.026 21.1091 106.564 21.1148C106.33 21.1155 106.252 21.0171 106.259 20.7964C106.269 20.502 106.274 20.2062 106.258 19.9125C106.243 19.6408 106.367 19.5587 106.616 19.575C106.804 19.5877 106.993 19.57 107.181 19.5785C107.387 19.5877 107.486 19.5092 107.485 19.2941C107.482 17.5611 107.482 15.8288 107.484 14.0958C107.484 13.9019 107.398 13.812 107.205 13.8255C107.181 13.8269 107.157 13.8283 107.134 13.8247C106.854 13.7766 106.43 13.9811 106.317 13.7108C106.155 13.323 106.235 12.8517 106.288 12.4201C106.311 12.2326 106.516 12.2934 106.646 12.2927C107.849 12.2864 109.052 12.2885 110.254 12.2885Z" fill="#626262"/>
<path d="M99.6112 18.9641C99.6112 18.3747 99.6247 17.7852 99.6049 17.1965C99.5957 16.924 99.6063 16.6049 99.2426 16.5093C98.893 16.4174 98.1939 16.619 98.0721 16.8547C98.0269 16.9424 98.0233 17.0592 98.0226 17.1625C98.0184 17.8694 98.0297 18.5771 98.0155 19.284C98.0099 19.5578 98.099 19.6569 98.3807 19.6527C98.9461 19.6442 98.9461 19.6583 98.9468 20.235C98.9475 21.1118 98.9475 21.1118 98.0679 21.1118C97.2074 21.1118 96.3469 21.1125 95.4872 21.1111C95.0265 21.1104 95.0244 21.1068 95.0208 20.6306C95.0201 20.5478 95.0208 20.4657 95.0208 20.3829C95.0208 19.71 95.0201 19.7043 95.691 19.6484C95.8679 19.6336 95.9492 19.5656 95.9492 19.3908C95.9485 18.4716 95.9471 17.5524 95.9506 16.6332C95.9514 16.3707 95.7815 16.3714 95.5926 16.3685C95.0215 16.3593 95.0215 16.3565 95.0208 15.7826C95.0201 14.9051 95.0194 14.9051 95.9039 14.9051C96.4934 14.9051 97.0822 14.9058 97.6716 14.9051C97.8429 14.9051 97.9915 14.9023 98.0269 15.1408C98.0629 15.3821 98.208 15.1988 98.2759 15.1585C98.7996 14.8457 99.3629 14.7275 99.9693 14.7615C100.602 14.7969 101.068 15.0792 101.355 15.6439C101.545 16.0175 101.637 16.4174 101.638 16.8363C101.64 17.626 101.659 18.4164 101.632 19.2047C101.619 19.5755 101.747 19.6994 102.096 19.6477C102.165 19.6371 102.237 19.6512 102.307 19.6484C102.488 19.6413 102.561 19.7319 102.559 19.9067C102.554 20.2251 102.554 20.5429 102.558 20.8613C102.56 21.0446 102.469 21.1104 102.296 21.1097C101.495 21.1076 100.693 21.1061 99.8922 21.1111C99.6686 21.1125 99.6119 20.9965 99.6127 20.8012C99.6162 20.1883 99.6141 19.5755 99.6141 18.9627C99.6141 18.9641 99.6127 18.9641 99.6112 18.9641Z" fill="#626262"/>
<path d="M175.825 18.9795C175.825 18.3901 175.838 17.8006 175.819 17.2119C175.811 16.9387 175.825 16.6203 175.472 16.5127C175.14 16.4115 174.438 16.6132 174.289 16.839C174.227 16.9338 174.236 17.042 174.236 17.1475C174.234 17.8664 174.243 18.5854 174.231 19.3044C174.226 19.5648 174.317 19.678 174.58 19.649C174.673 19.6391 174.769 19.6532 174.862 19.6476C175.069 19.6355 175.165 19.7254 175.161 19.937C175.154 20.2314 175.154 20.5264 175.161 20.8208C175.165 21.0324 175.071 21.1138 174.863 21.1131C173.754 21.1088 172.647 21.1074 171.539 21.1138C171.302 21.1152 171.23 21.002 171.234 20.7883C171.24 20.5293 171.245 20.2689 171.232 20.0106C171.217 19.7346 171.332 19.6405 171.605 19.6419C172.164 19.6447 172.164 19.6327 172.164 19.0892C172.164 18.3229 172.153 17.5572 172.17 16.7915C172.177 16.4745 172.085 16.35 171.75 16.3641C171.236 16.3861 171.235 16.3655 171.234 15.8348C171.231 14.9064 171.231 14.9064 172.172 14.9064C172.75 14.9064 173.327 14.905 173.904 14.9085C174.017 14.9092 174.184 14.8767 174.203 15.0253C174.251 15.406 174.432 15.2001 174.57 15.1187C175.168 14.7663 175.817 14.6785 176.482 14.8017C177.296 14.9517 177.818 15.694 177.845 16.7165C177.867 17.553 177.864 18.3901 177.847 19.2265C177.841 19.54 177.917 19.6709 178.259 19.6553C178.772 19.6313 178.773 19.6532 178.774 20.1755C178.776 21.1131 178.776 21.1131 177.855 21.1131C177.289 21.1131 176.723 21.1053 176.158 21.1159C175.913 21.1201 175.821 21.026 175.825 20.7833C175.834 20.1825 175.828 19.581 175.828 18.9803C175.827 18.9796 175.826 18.9795 175.825 18.9795Z" fill="#626262"/>
<path d="M65.0567 17.3048C65.0567 17.9644 65.0673 18.6246 65.0518 19.2841C65.0454 19.5587 65.1289 19.6577 65.4134 19.6528C66.0977 19.6422 66.0453 19.5587 66.0474 20.3031C66.0495 21.1119 66.0481 21.1119 65.2471 21.1119C64.6222 21.1119 63.9981 21.1133 63.3733 21.1105C63.2254 21.1098 63.0683 21.1388 63.0244 20.9131C62.9805 20.6852 62.8425 20.8451 62.7619 20.889C62.2736 21.1522 61.7584 21.269 61.2001 21.2584C60.1012 21.2379 59.3843 20.5642 59.3567 19.4532C59.3348 18.5581 59.339 17.6622 59.356 16.767C59.3617 16.4571 59.2662 16.3531 58.9541 16.3644C58.4389 16.3828 58.4382 16.3644 58.4368 15.8358C58.434 14.906 58.434 14.906 59.373 14.906C59.9271 14.906 60.4812 14.9159 61.0345 14.9024C61.2978 14.896 61.3827 14.9965 61.3806 15.2534C61.3714 16.3375 61.377 17.4216 61.377 18.5057C61.377 18.5998 61.3685 18.6953 61.3792 18.788C61.4138 19.0944 61.3388 19.4539 61.6941 19.628C61.9906 19.7731 62.7166 19.5742 62.948 19.3195C63.0294 19.2296 63.0287 19.1277 63.0287 19.0223C63.0301 18.2446 63.0223 17.4669 63.0336 16.6892C63.0371 16.438 62.9374 16.346 62.6982 16.3693C62.6048 16.3785 62.5093 16.3637 62.4158 16.3708C62.1887 16.3884 62.113 16.2873 62.1024 16.0615C62.0493 14.9052 62.0443 14.9052 63.1949 14.9052C63.7016 14.9052 64.2083 14.9159 64.7149 14.9017C64.9789 14.8946 65.0645 14.9972 65.0603 15.2534C65.049 15.9377 65.056 16.6213 65.0567 17.3048Z" fill="#626262"/>
<path d="M78.0737 21.1127C77.6725 21.112 77.272 21.1141 76.8707 21.1113C76.7688 21.1106 76.6188 21.141 76.5912 21.0186C76.5148 20.6839 76.3619 20.8707 76.219 20.945C75.4257 21.3575 74.6077 21.3965 73.8003 21.0271C72.4296 20.4001 72.2393 18.6459 73.4267 17.7139C74.2426 17.0735 75.1653 17.0636 76.1178 17.2908C76.5473 17.3934 76.6245 17.3396 76.5325 16.9016C76.3612 16.0807 75.5524 15.8231 74.8618 16.1982C74.336 16.4834 73.8824 16.5018 73.363 16.3673C73.1556 16.3135 72.8351 16.3942 72.7735 16.1621C72.7148 15.9406 72.9596 15.7467 73.1224 15.5804C73.6085 15.0837 74.2341 14.8629 74.8993 14.7956C75.5305 14.732 76.1702 14.7185 76.8021 14.8416C78.0475 15.0844 78.5846 15.7807 78.6172 17.2278C78.632 17.8993 78.632 18.5723 78.6158 19.2438C78.608 19.546 78.6978 19.6635 79.0163 19.655C79.6107 19.6394 79.6142 19.6564 79.6107 20.2508C79.605 21.2769 79.7041 21.095 78.746 21.1127C78.5216 21.1162 78.298 21.1127 78.0737 21.1127ZM75.3861 19.9515C75.8312 19.9557 76.1673 19.7194 76.461 19.4264C76.6457 19.2424 76.5771 18.8978 76.357 18.7605C76.0428 18.5645 75.7088 18.4378 75.3267 18.4768C74.8816 18.522 74.6396 18.803 74.6622 19.2601C74.6827 19.6911 74.953 19.9486 75.3861 19.9515Z" fill="#626262"/>
<path d="M92.9347 21.1119C92.5689 21.1119 92.2037 21.1161 91.8379 21.1098C91.6603 21.1069 91.4742 21.1607 91.3914 20.8883C91.3348 20.7029 91.1947 20.8855 91.1119 20.9293C90.3087 21.356 89.4808 21.4006 88.6606 21.0263C87.2892 20.4 87.0982 18.6458 88.2863 17.7138C89.1022 17.0734 90.0249 17.0628 90.9774 17.2907C91.4077 17.3933 91.4841 17.3402 91.3928 16.9015C91.2215 16.0813 90.4148 15.823 89.7221 16.1974C89.1963 16.4818 88.7427 16.5024 88.224 16.3665C88.0167 16.3127 87.6961 16.3927 87.6338 16.1613C87.5751 15.9398 87.8192 15.7466 87.9827 15.5796C88.4589 15.0921 89.0717 14.8684 89.7249 14.7991C90.4028 14.7269 91.0913 14.7057 91.7664 14.8621C92.963 15.1402 93.4577 15.8315 93.4796 17.2617C93.4895 17.9219 93.4938 18.5828 93.4768 19.243C93.469 19.5445 93.5582 19.6634 93.8766 19.6549C94.471 19.6393 94.4753 19.6563 94.4717 20.25C94.4661 21.2761 94.5651 21.0949 93.607 21.1126C93.3827 21.1154 93.1583 21.1119 92.9347 21.1119ZM90.3271 18.4738C90.0256 18.459 89.732 18.5446 89.5883 18.8595C89.461 19.1376 89.4772 19.432 89.6704 19.6917C89.8848 19.9811 90.1912 19.9868 90.4991 19.9252C90.8182 19.8615 91.0779 19.6697 91.305 19.4468C91.4834 19.272 91.46 18.9211 91.269 18.7944C90.993 18.6125 90.6979 18.4689 90.3271 18.4738Z" fill="#626262"/>
<path d="M152.651 21.1125C152.297 21.1125 151.944 21.1182 151.59 21.1104C151.404 21.1061 151.2 21.1776 151.112 20.8825C151.061 20.7113 150.915 20.8889 150.829 20.9342C150.024 21.3574 149.197 21.4012 148.378 21.0241C147.009 20.395 146.826 18.6393 148.016 17.7095C148.833 17.0712 149.757 17.0641 150.708 17.2927C151.13 17.3939 151.201 17.3359 151.117 16.8936C150.97 16.1166 149.988 15.7479 149.276 16.2659C148.623 16.74 148.035 16.2992 147.422 16.2539C147.276 16.2433 147.339 16.0876 147.391 15.9949C147.599 15.6227 147.911 15.358 148.279 15.1556C148.613 14.9717 148.976 14.8549 149.352 14.8167C150.186 14.7325 151.022 14.6822 151.835 14.9688C152.657 15.2583 153.084 15.835 153.161 16.7061C153.236 17.5545 153.197 18.403 153.199 19.2507C153.2 19.5607 153.298 19.6626 153.608 19.6548C154.195 19.6399 154.199 19.6555 154.196 20.2577C154.191 21.2717 154.281 21.0962 153.36 21.1132C153.123 21.1161 152.887 21.1125 152.651 21.1125ZM149.981 19.9506C150.317 19.9492 150.886 19.6866 151.052 19.4199C151.182 19.2111 151.225 18.9634 150.989 18.7957C150.668 18.5686 150.308 18.4341 149.9 18.4794C149.459 18.5282 149.22 18.8141 149.247 19.2727C149.272 19.6965 149.548 19.952 149.981 19.9506Z" fill="#626262"/>
<path d="M118.903 21.1124C118.537 21.1124 118.172 21.1159 117.806 21.111C117.627 21.1081 117.444 21.1577 117.362 20.8866C117.306 20.7055 117.165 20.8873 117.081 20.9312C116.277 21.3558 115.45 21.4011 114.629 21.0253C113.259 20.3977 113.071 18.6434 114.259 17.7122C115.076 17.0718 115.999 17.064 116.95 17.2911C117.378 17.393 117.456 17.3371 117.363 16.8991C117.19 16.0768 116.373 15.82 115.692 16.1993C115.151 16.5 114.685 16.4873 114.157 16.362C113.968 16.3167 113.685 16.3762 113.613 16.1901C113.527 15.9664 113.763 15.7902 113.909 15.6303C114.368 15.1258 114.975 14.9036 115.629 14.8081C116.214 14.7231 116.811 14.7118 117.392 14.8024C118.872 15.0317 119.427 15.711 119.451 17.2643C119.461 17.9245 119.465 18.5854 119.448 19.2449C119.441 19.5492 119.536 19.6624 119.851 19.6539C120.443 19.6384 120.447 19.6546 120.443 20.2519C120.438 21.2758 120.536 21.094 119.576 21.1117C119.351 21.1159 119.126 21.1124 118.903 21.1124ZM116.323 18.4743C116 18.4559 115.693 18.5422 115.551 18.8755C115.432 19.1543 115.449 19.4508 115.653 19.7063C115.888 20.0007 116.207 19.9894 116.522 19.9136C116.81 19.8436 117.054 19.6667 117.264 19.4593C117.478 19.247 117.425 18.9017 117.164 18.7467C116.911 18.5974 116.647 18.4708 116.323 18.4743Z" fill="#626262"/>
<path d="M167.118 21.2537C165.148 21.2537 163.852 19.9827 163.825 18.0226C163.798 16.0943 165.146 14.7639 167.126 14.7646C169.102 14.7654 170.354 16.0327 170.353 18.0311C170.351 19.9884 169.082 21.2537 167.118 21.2537ZM168.259 18.0148C168.275 17.5924 168.214 17.2017 168.004 16.8451C167.758 16.4262 167.377 16.313 166.918 16.3526C166.502 16.3887 166.245 16.6307 166.112 16.9944C165.884 17.62 165.872 18.2653 166.076 18.8979C166.26 19.4683 166.589 19.6827 167.153 19.6679C167.656 19.6544 167.994 19.3749 168.157 18.8357C168.241 18.5625 168.275 18.2837 168.259 18.0148Z" fill="#626262"/>
<path d="M86.5664 16.1301C86.5664 16.4245 86.5622 16.7196 86.5678 17.014C86.5714 17.2057 86.4928 17.2949 86.2968 17.2907C86.0024 17.285 85.7074 17.28 85.413 17.2942C85.1993 17.3048 85.0677 17.2248 84.9523 17.0444C84.6763 16.6135 84.2963 16.353 83.7578 16.3474C82.9709 16.3396 82.4841 16.7118 82.3419 17.4853C82.2796 17.8221 82.2845 18.1688 82.3433 18.5064C82.4367 19.0421 82.7049 19.4758 83.2505 19.6216C83.8512 19.7822 84.3905 19.6145 84.8306 19.1567C85.2524 18.7173 85.2559 18.7201 85.8078 18.9649C86.0449 19.0697 86.277 19.1864 86.519 19.2791C86.7483 19.3669 86.7568 19.4879 86.645 19.6853C86.1603 20.5387 85.4448 21.0808 84.4718 21.2138C83.7352 21.3143 82.9915 21.3037 82.2725 21.0468C80.8771 20.5472 80.0732 19.2635 80.2154 17.7478C80.3661 16.1464 81.2026 15.1218 82.6631 14.8196C83.4054 14.666 84.1421 14.7326 84.8207 15.1225C84.9559 15.2003 85.0981 15.3107 85.149 15.0404C85.1604 14.9802 85.2021 14.9243 85.2658 14.9236C85.6543 14.9194 86.0428 14.913 86.4299 14.9265C86.5693 14.9314 86.565 15.0708 86.5657 15.1748C86.5686 15.494 86.5664 15.8117 86.5664 16.1301Z" fill="#626262"/>
<path d="M146.221 16.1011C146.221 16.3955 146.213 16.6906 146.224 16.9849C146.232 17.2156 146.133 17.3013 145.909 17.2928C145.65 17.2829 145.389 17.2779 145.131 17.2949C144.881 17.3112 144.721 17.2298 144.581 17.0111C144.313 16.5915 143.928 16.3516 143.405 16.3474C142.621 16.3417 142.132 16.7182 141.994 17.4916C141.934 17.8284 141.937 18.1752 141.998 18.5127C142.093 19.0484 142.364 19.4801 142.91 19.6237C143.511 19.7815 144.05 19.6117 144.488 19.1524C144.904 18.7172 144.907 18.7201 145.466 18.9677C145.671 19.0583 145.87 19.168 146.081 19.2359C146.422 19.3463 146.41 19.514 146.242 19.7836C145.753 20.5705 145.069 21.0786 144.152 21.2081C143.379 21.3171 142.601 21.3065 141.852 21.0206C140.51 20.509 139.718 19.2168 139.864 17.7761C140.031 16.1315 140.853 15.1175 142.321 14.8182C143.063 14.6667 143.801 14.7325 144.478 15.1267C144.622 15.2109 144.756 15.2937 144.803 15.0354C144.817 14.9576 144.881 14.9158 144.959 14.9158C145.324 14.9144 145.689 14.9102 146.054 14.9201C146.218 14.9243 146.219 15.0637 146.219 15.1819C146.222 15.4883 146.22 15.7947 146.221 16.1011Z" fill="#626262"/>
<path d="M69.7037 15.9407C69.9387 15.7149 70.1184 15.4864 70.3335 15.2889C70.7666 14.892 71.2754 14.7292 71.8592 14.7632C72.0573 14.7745 72.1288 14.8629 72.1274 15.0483C72.1245 15.4963 72.1217 15.9442 72.1288 16.3921C72.1323 16.5988 72.0467 16.7014 71.8394 16.7C71.816 16.7 71.792 16.7035 71.7686 16.7028C70.3243 16.6525 69.9068 17.7614 69.8686 18.7238C69.8325 19.6182 69.8481 19.6274 70.7227 19.6423C70.9789 19.6465 71.0695 19.7272 71.0758 19.989C71.1027 21.1121 71.1098 21.1121 69.9825 21.1121C69.0039 21.1121 68.0252 21.1036 67.0466 21.117C66.755 21.1213 66.6284 21.0194 66.6552 20.7299C66.6595 20.6832 66.6531 20.6358 66.6559 20.5884C66.6722 20.3075 66.5533 19.9777 66.7147 19.7569C66.8951 19.51 67.2412 19.6727 67.5129 19.6515C67.7082 19.6366 67.7867 19.5595 67.7867 19.3699C67.7846 18.462 67.7832 17.5541 67.7875 16.6462C67.7882 16.4247 67.6742 16.3752 67.4761 16.3674C66.726 16.3398 66.7274 16.3341 66.726 15.5692C66.7239 14.7801 66.7394 14.9132 67.4018 14.9068C68.05 14.9004 68.6989 14.9146 69.3471 14.9019C69.6075 14.8969 69.7143 14.9953 69.7051 15.2507C69.6967 15.4807 69.7037 15.7107 69.7037 15.9407Z" fill="#626262"/>
<path d="M132.047 15.9397C132.282 15.714 132.461 15.4854 132.677 15.288C133.11 14.891 133.619 14.7282 134.203 14.7622C134.401 14.7735 134.473 14.8613 134.472 15.0474C134.469 15.4953 134.466 15.9432 134.473 16.3912C134.476 16.5978 134.391 16.7004 134.184 16.6997C134.16 16.6997 134.136 16.7032 134.113 16.7025C132.668 16.6523 132.251 17.7611 132.212 18.7228C132.176 19.618 132.192 19.6265 133.066 19.6413C133.322 19.6456 133.413 19.7255 133.419 19.9881C133.446 21.1111 133.453 21.1111 132.326 21.1111C131.347 21.1111 130.369 21.1026 129.39 21.116C129.098 21.1203 128.972 21.0191 128.999 20.729C129.003 20.6823 128.997 20.6348 128.999 20.5874C129.016 20.3065 128.897 19.9767 129.058 19.756C129.239 19.509 129.585 19.671 129.856 19.6505C130.052 19.6357 130.13 19.5585 130.13 19.3689C130.128 18.461 130.127 17.5531 130.131 16.6452C130.132 16.4237 130.018 16.3735 129.82 16.3664C129.069 16.3388 129.071 16.3331 129.069 15.5682C129.067 14.7792 129.082 14.9122 129.745 14.9058C130.393 14.8995 131.042 14.9136 131.69 14.9009C131.95 14.8959 132.058 14.9936 132.048 15.2497C132.04 15.4804 132.047 15.7104 132.047 15.9397Z" fill="#626262"/>
<path d="M155.305 18.2382C155.305 17.7315 155.295 17.2248 155.31 16.7182C155.317 16.4627 155.235 16.3311 154.968 16.3714C154.593 16.428 154.492 16.2426 154.524 15.9044C154.544 15.6942 154.54 15.4798 154.525 15.2689C154.506 14.9922 154.62 14.8684 154.894 14.9073C155.223 14.954 155.356 14.8132 155.305 14.4912C155.242 14.0936 155.401 13.8374 155.748 13.6279C156.201 13.3548 156.623 13.0293 157.051 12.7165C157.297 12.5368 157.381 12.6203 157.381 12.8892C157.381 13.4312 157.391 13.9733 157.378 14.5153C157.371 14.7941 157.449 14.9158 157.755 14.9123C158.465 14.9038 158.465 14.9187 158.465 15.6277C158.465 15.6397 158.465 15.6511 158.465 15.6631C158.457 16.4705 158.543 16.3743 157.776 16.3636C157.457 16.3594 157.37 16.4755 157.377 16.7755C157.392 17.5525 157.379 18.3309 157.383 19.1086C157.386 19.6145 157.483 19.698 157.998 19.6619C158.463 19.6294 158.463 19.6294 158.465 20.095C158.465 20.1304 158.465 20.1658 158.465 20.2011C158.465 21.0482 158.466 21.0503 157.635 21.2116C157.25 21.286 156.857 21.2838 156.474 21.23C155.787 21.1338 155.348 20.5854 155.316 19.7935C155.295 19.2763 155.312 18.7569 155.312 18.2382C155.31 18.2382 155.307 18.2382 155.305 18.2382Z" fill="#626262"/>
<path d="M138.356 17.3192C138.357 17.9674 138.367 18.6163 138.352 19.2645C138.345 19.5518 138.434 19.6608 138.733 19.6537C139.274 19.6403 139.275 19.6565 139.276 20.1929C139.279 21.1121 139.279 21.1129 138.364 21.1121C137.492 21.1121 136.619 21.1029 135.747 21.1171C135.457 21.1213 135.329 21.0244 135.356 20.7314C135.366 20.626 135.358 20.5191 135.358 20.413C135.358 19.7174 135.357 19.7117 136.035 19.6495C136.216 19.6332 136.287 19.5553 136.287 19.3848C136.286 18.4649 136.286 17.5457 136.287 16.6257C136.287 16.4502 136.206 16.3653 136.027 16.3717C135.91 16.3759 135.791 16.3639 135.673 16.3717C135.444 16.3873 135.353 16.279 135.358 16.0575C135.364 15.7745 135.362 15.4914 135.358 15.2083C135.355 15.0081 135.431 14.9034 135.648 14.9048C136.45 14.9104 137.252 14.9126 138.054 14.9034C138.325 14.9005 138.359 15.0541 138.357 15.2664C138.354 15.9514 138.356 16.6349 138.356 17.3192Z" fill="#626262"/>
<path d="M162.275 17.3017C162.275 17.962 162.284 18.6222 162.27 19.2824C162.265 19.5548 162.351 19.6574 162.634 19.6532C163.194 19.6447 163.194 19.6596 163.194 20.2108C163.196 21.1123 163.196 21.1123 162.3 21.1123C161.416 21.1123 160.532 21.1046 159.647 21.1166C159.373 21.1201 159.258 21.0253 159.273 20.7493C159.286 20.5024 159.286 20.254 159.273 20.007C159.257 19.7268 159.382 19.6412 159.651 19.6433C160.205 19.6468 160.205 19.6348 160.205 19.085C160.205 18.3066 160.196 17.5282 160.21 16.7505C160.216 16.4568 160.111 16.3599 159.82 16.3662C159.276 16.3776 159.276 16.3634 159.275 15.8284C159.273 14.9071 159.273 14.9071 160.186 14.9071C160.752 14.9071 161.318 14.9184 161.883 14.9028C162.171 14.8944 162.284 14.992 162.279 15.2864C162.265 15.9572 162.275 16.6295 162.275 17.3017Z" fill="#626262"/>
<path d="M27.5197 10.691C25.8921 10.4617 24.6085 9.63945 23.8209 8.10105C23.6914 7.84843 23.6206 7.57174 23.6192 7.28303C23.6171 6.92779 23.6899 6.87826 24.0084 7.0304C24.7946 7.40828 25.5786 7.79111 26.3634 8.17252C27.1694 8.56455 27.9754 8.95446 28.7793 9.35074C29.1402 9.52835 29.184 9.66493 28.9845 10.0145C28.6745 10.5573 28.1431 10.65 27.5197 10.691Z" fill="#626262"/>
<path d="M137.362 12.1465C137.99 12.1486 138.453 12.6065 138.459 13.2292C138.463 13.8568 137.984 14.3218 137.333 14.3182C136.721 14.3154 136.23 13.8335 136.229 13.2341C136.228 12.6093 136.713 12.1444 137.362 12.1465Z" fill="#626262"/>
<path d="M161.268 14.3189C160.636 14.3189 160.134 13.8257 160.148 13.2157C160.161 12.6001 160.634 12.1472 161.264 12.1465C161.912 12.1458 162.383 12.6128 162.377 13.2483C162.37 13.8632 161.899 14.3189 161.268 14.3189Z" fill="#626262"/>
</svg>
