<svg id="Layer_1" data-name="Layer 1" xmlns="http://www.w3.org/2000/svg" viewBox="0 0 441 487.64"><defs><style>.cls-1{fill:#5f5f5f;}</style></defs><title>Group</title><path class="cls-1" d="M376.92,5.29C388,7.49,399,10,409.05,15.36c23.76,12.76,37,31.57,36.85,59.49-.49,59.69-.77,119.27.09,178.86.48,34-20.2,53.73-43.38,63.52A102.46,102.46,0,0,1,364,324.91c-22.7.29-45.41,0-68.21.19-4.42,0-6.15-1.25-6.06-6,.29-11.13.2-22.16,0-33.3-.09-4,1.45-5.18,5.3-5.18,21.16.1,42.23.2,63.39,0,10.58-.09,20.88-1.15,30.5-6.14,8.36-4.32,12.6-10.36,12.6-20.34q-.44-89.8,0-179.72c0-8.54-3.37-14.2-10.39-18.33a49.37,49.37,0,0,0-24.53-6.91c-21.17-.19-42.23-.09-63.4-.09H89.67c-9,0-17.7,1-26,4.8-9.43,4.31-14.72,10.55-14.63,22,.39,59.78.29,119.56.1,179.24,0,8.73,3.66,14.3,10.87,18.52,9.52,5.56,20,6.91,30.78,7,21.26.2,42.62.2,63.88,0,4.71-.09,6.45,1.25,6.25,6.14-.38,10.94-.19,21.88,0,32.82.1,3.74-1,5.47-5.09,5.47-23.67-.1-47.33.48-71-.29-24.34-.77-46.56-7.87-64-26.19A55.23,55.23,0,0,1,5.11,259.47Q5,165,5.11,70.63c.1-24.85,13.28-41.83,34.06-53.92C49.94,10.47,61.77,7.59,73.8,5.29Z" transform="translate(-5 -5.29)"/><path class="cls-1" d="M247.53,415.69c2.31-.39,3-1.92,4.14-3,7.31-7.2,14.52-14.58,21.93-21.78,8.95-8.73,22.9-8.83,31.27-.48a22,22,0,0,1,0,31.57q-31.89,32.1-64.07,63.9c-9.53,9.41-22.9,9.31-32.42-.09q-32-31.66-63.68-63.52c-9.34-9.41-9.43-22.55-.58-31.48s22.51-8.73,32,.48c7.51,7.3,14.82,14.78,22.32,22.17,1.25,1.25,2.5,2.4,3.94,3.74,1.26-2.11.77-4,.77-5.76V200.37c0-11,5.2-19.1,14.34-22.46a22.17,22.17,0,0,1,30,19.19c.1,2,.1,4.13.1,6.14V410C247.53,411.85,247.53,413.67,247.53,415.69Z" transform="translate(-5 -5.29)"/></svg>