<svg width="24" height="24" viewBox="0 0 24 24" fill="none" xmlns="http://www.w3.org/2000/svg">
<path d="M0 22.6422C0 17.8511 0 13.0599 0 8.2688C0.0974087 8.06654 0.249766 7.91796 0.434593 7.79062C4.09116 5.2755 7.74586 2.75725 11.4012 0.240261C11.8651 -0.0793569 12.1143 -0.0799811 12.5757 0.237764C13.7196 1.02432 14.8629 1.81213 16.0062 2.59932C18.5114 4.32476 21.0159 6.05144 23.5236 7.77314C23.8289 7.98289 24.0006 8.23196 24 8.6215C23.9931 13.153 23.9956 17.6844 23.995 22.2159C23.995 22.3557 23.995 22.4955 23.9607 22.6341C23.7846 23.357 23.3063 23.7803 22.6188 24C15.5317 24 8.44458 24 1.35748 24C0.662504 23.7903 0.208554 23.3389 0 22.6422ZM1.5167 15.6194C1.5167 17.7649 1.51608 19.9105 1.51733 22.0561C1.51733 22.405 1.59413 22.4824 1.94318 22.4831C2.68436 22.4843 3.42616 22.4843 4.16734 22.4837C4.47268 22.4837 4.47705 22.4787 4.47705 22.1641C4.47768 20.752 4.47705 19.3399 4.47705 17.9279C4.47705 17.2587 4.75804 16.9746 5.42804 16.9721C6.1305 16.9697 6.83297 16.9715 7.53481 16.9715C7.95379 16.9715 7.95379 16.9709 7.95379 16.5645C7.95442 15.012 7.9513 13.4595 7.95567 11.9069C7.95754 11.2914 8.266 10.9855 8.88105 10.9806C9.45051 10.9756 10.0206 10.9793 10.5901 10.9793C12.0962 10.9793 13.6022 10.9799 15.1083 10.9799C15.4505 10.9799 15.7377 11.0848 15.9138 11.4013C16.0119 11.578 16.0219 11.7727 16.0219 11.9694C16.0212 13.53 16.0212 15.09 16.0225 16.6507C16.0225 16.954 16.04 16.9715 16.3391 16.9721C17.0958 16.974 17.8533 16.9684 18.6101 16.9746C19.2014 16.9796 19.4986 17.2849 19.4986 17.8754C19.4992 19.3187 19.5023 20.762 19.4955 22.2053C19.4942 22.42 19.5635 22.4924 19.779 22.4893C20.5357 22.4793 21.2932 22.4868 22.05 22.4849C22.3809 22.4843 22.4596 22.4032 22.4596 22.0648C22.4602 17.7737 22.4589 13.4826 22.4633 9.19144C22.4633 9.00729 22.4052 8.8918 22.2523 8.7863C18.9017 6.48405 15.5535 4.17868 12.2086 1.86894C12.05 1.75907 11.9382 1.75283 11.7746 1.86519C8.43709 4.16994 5.09522 6.47094 1.75086 8.76757C1.57602 8.88805 1.51171 9.01915 1.51233 9.22952C1.51983 11.3595 1.5167 13.4894 1.5167 15.6194ZM11.9675 16.964C12.7087 16.964 13.4499 16.9622 14.1911 16.9659C14.3547 16.9665 14.4583 16.9353 14.4577 16.7368C14.4533 15.4109 14.4546 14.085 14.4564 12.7591C14.4564 12.6142 14.4009 12.5431 14.2498 12.5437C13.8208 12.5468 13.3918 12.5468 12.9622 12.5437C12.8117 12.5424 12.7518 12.6117 12.7555 12.7578C12.7599 12.937 12.7605 13.1168 12.7543 13.2959C12.7399 13.706 12.4046 14.0325 11.9981 14.0388C11.5854 14.0444 11.237 13.7104 11.2232 13.2915C11.2176 13.1199 11.2151 12.9482 11.2226 12.7772C11.2301 12.6049 11.1558 12.5399 10.9866 12.5431C10.5963 12.5493 10.2061 12.5549 9.81642 12.5406C9.59351 12.5325 9.51545 12.6067 9.51733 12.8346C9.52607 14.1137 9.52544 15.3928 9.51733 16.6719C9.51608 16.8972 9.58976 16.9721 9.81455 16.9684C10.532 16.9578 11.2501 16.964 11.9675 16.964ZM15.3475 22.4837C16.1349 22.4837 16.9229 22.4806 17.7103 22.4862C17.8826 22.4874 17.9682 22.4406 17.9675 22.2496C17.9625 21.0879 17.9638 19.9261 17.9663 18.7644C17.9669 18.6083 17.9113 18.5353 17.7484 18.5365C17.2495 18.5409 16.7499 18.5415 16.251 18.5359C16.0743 18.534 16.0206 18.6183 16.0212 18.78C16.0219 18.9741 16.0256 19.1714 15.9956 19.3624C15.9313 19.7738 15.5848 20.0528 15.1945 20.031C14.7943 20.0085 14.4783 19.6802 14.4589 19.2594C14.4515 19.0959 14.4502 18.9317 14.4571 18.7681C14.4646 18.594 14.3846 18.5347 14.2179 18.5372C13.8202 18.5434 13.4224 18.5471 13.0247 18.5359C12.8211 18.5303 12.7512 18.6027 12.7524 18.8068C12.7593 19.9374 12.7612 21.0679 12.7512 22.1984C12.7493 22.4325 12.8361 22.4899 13.054 22.4874C13.8189 22.4774 14.5832 22.4837 15.3475 22.4837ZM8.60193 22.4837C9.38932 22.4837 10.1773 22.4812 10.9647 22.4856C11.1352 22.4868 11.2245 22.4437 11.2239 22.2508C11.2189 21.0891 11.2201 19.9274 11.2226 18.7656C11.2232 18.6096 11.1677 18.5365 11.0047 18.5384C10.5838 18.5434 10.1623 18.5434 9.74149 18.5384C9.57977 18.5365 9.5167 18.6064 9.52107 18.7638C9.52607 18.9429 9.52981 19.1233 9.51608 19.3012C9.48548 19.6976 9.1739 20.0048 8.78864 20.031C8.40962 20.0566 8.06744 19.7825 7.98376 19.3918C7.94255 19.1982 7.9513 19.0028 7.95816 18.8093C7.96503 18.6096 7.89135 18.5297 7.68592 18.534C7.21823 18.544 6.74992 18.544 6.28224 18.534C6.0793 18.5297 6.00874 18.6015 6.00999 18.8056C6.01686 19.9436 6.01748 21.0822 6.00999 22.2209C6.00874 22.4294 6.08742 22.4893 6.28598 22.4874C7.05713 22.4787 7.82953 22.4837 8.60193 22.4837Z" fill="#5F5F5F"/>
</svg>
