<svg id="Layer_1" data-name="Layer 1" xmlns="http://www.w3.org/2000/svg" viewBox="0 0 17.42 17.43"><defs><style>.cls-1{fill:#fff;stroke:#fff;stroke-miterlimit:10;stroke-width:0.43px;}</style></defs><title>Group 3665</title><path class="cls-1" d="M8,17.3H2.39A2,2,0,0,1,.3,15.22V3.84a2,2,0,0,1,1.62-2l.25,0h7a.41.41,0,0,1,.46.4.44.44,0,0,1-.45.41H2.23A1.12,1.12,0,0,0,1.12,3.78c0,.83,0,1.65,0,2.48v9a1.15,1.15,0,0,0,1.26,1.27H13.75a1.14,1.14,0,0,0,1.16-.87,1.7,1.7,0,0,0,0-.39V8.61a.92.92,0,0,1,0-.29.39.39,0,0,1,.78.08c0,.21,0,.41,0,.62,0,2.08,0,4.16,0,6.25a2,2,0,0,1-2,2C11.81,17.28,9.9,17.3,8,17.3Z" transform="translate(-0.08 -0.08)"/><path class="cls-1" d="M15.85,1.12H11.66a1.62,1.62,0,0,1-.22,0,.4.4,0,0,1-.34-.4.4.4,0,0,1,.34-.4h5.38a.42.42,0,0,1,.47.48V5.93a1.47,1.47,0,0,1,0,.21.41.41,0,0,1-.41.36.4.4,0,0,1-.39-.36,1.27,1.27,0,0,1,0-.2V1.73a.44.44,0,0,0-.18.14L8.06,10.1a1.45,1.45,0,0,1-.18.17.4.4,0,0,1-.55-.56.85.85,0,0,1,.16-.17L15.72,1.3a1,1,0,0,1,.17-.12Z" transform="translate(-0.08 -0.08)"/></svg>