<svg width="38" height="36" viewBox="0 0 38 36" fill="none" xmlns="http://www.w3.org/2000/svg">
<path d="M37.3536 5.08712C37.2406 4.79943 37.1054 4.52087 36.9556 4.25145C36.5772 3.5619 36.0908 2.93172 35.5134 2.3883C35.5011 2.37688 35.4864 2.36547 35.4717 2.35405C34.6486 1.58916 33.6511 0.984089 32.5284 0.605066C30.4745 0 28.568 0 24.7525 0H13.2497C9.43421 0 7.52771 0 5.47381 0.602783C3.23073 1.36311 1.46427 3.0025 0.648602 5.08712C0 6.99594 0 8.76775 0 12.3137V23.0039C0 26.5499 0 28.3217 0.648602 30.2305C1.05644 31.2716 1.70504 32.2009 2.52807 32.9658C2.54036 32.9773 2.55264 32.9932 2.56493 33.0047C3.15211 33.5412 3.82773 33.9933 4.5697 34.3449C4.8596 34.4819 5.15933 34.6098 5.46889 34.7148C7.5228 35.3176 9.4293 35.3176 13.2447 35.3176H24.7501C28.5655 35.3176 30.472 35.3176 32.5259 34.7148C34.769 33.9568 36.533 32.3151 37.3511 30.2328C37.9997 28.324 37.9997 26.5521 37.9997 23.0062V12.3137C38.0022 8.76775 38.0022 6.99594 37.3536 5.08712Z" fill="#7D7AB9"/>
<path d="M13.3501 10.3203C13.2715 15.3686 19.4848 21.7572 14.5392 25.8123C16.5243 28.7486 18.6863 29.582 20.4479 28.4129C21.6296 27.6298 22.5067 25.7301 23.4968 23.7642C29.5136 16.1221 25.7718 20.1087 23.1749 10.8386C22.6295 10.0874 11.3576 7.48679 13.3501 10.3203Z" fill="#CA9765"/>
<path d="M27.0493 18.7045C25.5482 17.8757 24.3051 16.613 23.5533 15.1472C22.8015 13.6813 22.5239 11.9917 22.7745 10.3843L23.2437 10.4482C23.0054 11.9689 23.2683 13.5717 23.9808 14.9577C24.6933 16.3459 25.8676 17.5423 27.2901 18.3255L27.0493 18.7045Z" fill="#EEEFEF"/>
<path d="M31.2212 12.6994C31.9091 10.3111 29.8355 9.28591 25.5533 10.0394C24.7302 10.1832 23.718 10.0599 23.3397 10.4686C21.6101 12.3295 25.4746 18.4875 27.4106 18.2729C28.6685 18.1313 30.2237 16.1586 31.2212 12.6994Z" fill="#EEEFEF"/>
<path d="M18.4337 13.9827C18.4558 14.0923 18.4853 14.2042 18.5639 14.2909C18.6794 14.4188 18.8661 14.4759 19.0479 14.4896C19.2174 14.501 19.3943 14.4782 19.5466 14.4028C19.6989 14.3275 19.8218 14.1973 19.8611 14.0443C19.8832 13.9644 19.8807 13.8777 19.866 13.7955C19.8292 13.5991 19.7088 13.4119 19.527 13.3046C19.3452 13.1972 19.1068 13.1698 18.9103 13.252C18.9103 13.252 18.3329 13.5078 18.4337 13.9827Z" fill="#0E1030"/>
<path d="M18.2056 14.0419C18.2523 14.2542 18.3432 14.4346 18.5397 14.5625C18.7141 14.6766 18.9475 14.7177 19.1588 14.7132C19.6355 14.7018 20.0875 14.4141 20.1145 13.946C20.1391 13.5327 19.8271 13.1149 19.3922 13.0121C19.1195 12.9482 18.8493 13.0053 18.6282 13.1583C18.4979 13.2473 18.3825 13.3523 18.3014 13.4825C18.1933 13.656 18.1663 13.8478 18.2056 14.0419C18.2277 14.1561 18.3825 14.2314 18.4979 14.1972C18.6306 14.1583 18.6871 14.0487 18.665 13.9254C18.6527 13.8684 18.665 13.9734 18.6626 13.9163C18.6626 13.9049 18.6626 13.8935 18.6601 13.8844C18.6601 13.8684 18.6601 13.8524 18.6626 13.8364C18.6626 13.8022 18.6576 13.8455 18.6601 13.8478C18.6527 13.8387 18.6748 13.7885 18.6797 13.7748C18.6822 13.7633 18.6896 13.7519 18.692 13.7405C18.6994 13.7245 18.6945 13.7314 18.6822 13.7588C18.6871 13.7496 18.692 13.7405 18.6969 13.7337C18.7092 13.7131 18.7215 13.6926 18.7363 13.672C18.7412 13.6652 18.7485 13.656 18.7535 13.6492C18.7829 13.6081 18.7191 13.6857 18.7535 13.6515C18.7854 13.6195 18.8149 13.5875 18.8493 13.5601C18.8542 13.5556 18.8935 13.519 18.8984 13.5213C18.896 13.5213 18.8468 13.5556 18.8886 13.5304C18.8959 13.5259 18.9009 13.5236 18.9058 13.519C18.9328 13.5008 18.9598 13.4848 18.9893 13.4711C19.0016 13.4642 19.0188 13.4597 19.0311 13.4505C19.0458 13.4391 18.9549 13.4711 19.0212 13.4551C19.036 13.4505 19.0507 13.446 19.0655 13.4414C19.0802 13.4368 19.095 13.4345 19.1097 13.4323C19.0876 13.4345 19.0851 13.4345 19.1023 13.4323C19.1367 13.43 19.1711 13.43 19.2055 13.43C19.2743 13.43 19.1687 13.4186 19.2325 13.4323C19.2473 13.4345 19.262 13.4391 19.2768 13.4414C19.2989 13.4482 19.321 13.4528 19.3431 13.4619C19.3333 13.4574 19.3087 13.446 19.3505 13.4665C19.3701 13.4756 19.3898 13.4871 19.4094 13.4985C19.4193 13.503 19.4659 13.5396 19.4315 13.5122C19.4586 13.5327 19.4856 13.5556 19.5077 13.5807C19.5175 13.5898 19.5274 13.6012 19.5347 13.6104C19.5052 13.5738 19.5446 13.6263 19.547 13.6309C19.5667 13.6583 19.5839 13.688 19.5986 13.72C19.5937 13.7108 19.5839 13.6834 19.5986 13.7222C19.606 13.7451 19.6158 13.7656 19.6207 13.7885C19.6379 13.8524 19.6477 13.8958 19.6355 13.9734C19.6404 13.9414 19.6256 14.0076 19.6256 14.0076C19.6207 14.0213 19.6158 14.0328 19.6109 14.0465C19.6305 14.0008 19.6011 14.0602 19.5986 14.0647C19.5888 14.083 19.5765 14.099 19.5642 14.115C19.5888 14.083 19.5617 14.1172 19.5544 14.1241C19.5421 14.1355 19.5298 14.1492 19.5175 14.1583C19.5077 14.1675 19.4954 14.1766 19.4856 14.1835C19.5249 14.1538 19.4684 14.1926 19.4635 14.1949C19.4512 14.2017 19.4389 14.2086 19.4266 14.2154C19.4266 14.2154 19.3554 14.2451 19.3947 14.2314C19.3529 14.2474 19.3087 14.2565 19.2645 14.2657C19.2546 14.2679 19.2031 14.2748 19.2424 14.2702C19.2178 14.2725 19.1932 14.2748 19.1687 14.2748C19.1195 14.2771 19.0728 14.2748 19.0237 14.2702C18.9574 14.2657 19.0507 14.2771 19.0114 14.2679C18.9869 14.2611 18.9623 14.2588 18.9353 14.252C18.9205 14.2474 18.9082 14.2451 18.8935 14.2405C18.8788 14.236 18.8665 14.2314 18.8517 14.2268C18.8714 14.2337 18.8738 14.236 18.8591 14.2291C18.8444 14.22 18.8272 14.2131 18.8124 14.2063C18.8026 14.1994 18.7608 14.1698 18.7903 14.1949C18.7731 14.1812 18.7584 14.1675 18.7436 14.1538C18.7141 14.1264 18.7485 14.172 18.7264 14.1332C18.7289 14.1355 18.6945 14.0761 18.7092 14.1035C18.7141 14.1172 18.7141 14.1127 18.7043 14.0921C18.6994 14.0784 18.6945 14.0647 18.6896 14.051C18.6773 14.0099 18.6675 13.9688 18.6576 13.9277C18.6331 13.8136 18.4807 13.7382 18.3653 13.7748C18.24 13.809 18.1786 13.9209 18.2056 14.0419Z" fill="#0E1030"/>
<path d="M28.425 9.38182C28.4472 9.84533 28.5209 10.4458 28.8624 10.8111C29.027 10.987 29.2579 11.076 29.5036 11.1057C29.7419 11.1331 29.9606 11.0851 30.1964 11.0669C30.4323 11.0486 30.5305 11.1559 30.5649 11.366C30.6042 11.6103 30.5625 11.8523 30.6657 12.0875C30.8401 12.4894 31.2848 12.7565 31.7491 12.7359C32.0538 12.7222 32.0538 12.2816 31.7491 12.2953C31.5673 12.3021 31.4003 12.2519 31.2627 12.1377C31.1054 12.0053 31.0612 11.8363 31.0538 11.6468C31.0342 11.261 30.99 10.7952 30.5207 10.6582C30.1325 10.544 29.6928 10.8066 29.3242 10.6057C29.1375 10.5029 29.0736 10.2906 29.0196 10.1079C28.9483 9.87044 28.9115 9.6307 28.8992 9.38639C28.8869 9.10098 28.4128 9.0987 28.425 9.38182Z" fill="#0E1030"/>
<path d="M32.2485 11.4756C32.2534 11.4208 32.2534 11.366 32.2534 11.3112C32.3615 10.9459 32.3467 10.5509 32.1944 10.1947C32.192 10.1901 32.1895 10.1878 32.187 10.1833C32.187 10.181 32.1871 10.181 32.1895 10.1787C32.2214 10.1262 32.2288 10.0577 32.1969 9.99148C32.1846 9.96865 32.1674 9.9481 32.1551 9.92298C32.2018 9.85905 32.2042 9.76772 32.133 9.6878C31.9733 9.50971 31.7718 9.3613 31.5434 9.2654C31.3812 9.19919 31.1576 9.10557 30.9979 9.20375C30.9341 9.19919 30.8702 9.1969 30.8063 9.1969C30.7842 9.11927 30.7203 9.05534 30.6147 9.06676C30.5975 9.06904 30.5803 9.07361 30.5631 9.07589C30.2437 9.15809 29.912 9.11014 29.5877 9.1421C29.2929 9.17179 29.0177 9.25398 28.8015 9.45034C28.7278 9.51656 28.7377 9.62159 28.7942 9.69009C28.7868 9.79512 28.8212 9.8933 28.8826 9.98235C28.9539 10.2518 29.0571 10.5121 29.202 10.7587C29.261 10.8591 29.4059 10.8637 29.4944 10.7975C29.6049 10.8386 29.7253 10.8386 29.8457 10.7587C29.8555 10.7518 29.8604 10.7427 29.8703 10.7358C29.9341 10.7404 30.0078 10.7358 30.084 10.7198C30.1184 10.7724 30.1798 10.8112 30.256 10.8157C30.3813 10.8226 30.568 10.8317 30.6933 10.9002C30.708 11.229 30.7965 11.5395 30.9513 11.8341C30.9611 11.8523 30.9734 11.8683 30.9906 11.8797C31.025 11.9916 31.0667 12.1012 31.1208 12.2085C31.1355 12.2359 31.1552 12.2542 31.1773 12.2679C31.1847 12.2793 31.1896 12.2907 31.1969 12.2999C31.2289 12.341 31.2731 12.3615 31.3222 12.3706C31.3812 12.4095 31.4525 12.4346 31.5434 12.43C31.6072 12.4277 31.6564 12.4095 31.7006 12.3843C31.7792 12.3912 31.8652 12.3501 31.8996 12.2884C31.9291 12.2359 31.9487 12.1811 31.9709 12.124C31.9831 12.1172 31.9954 12.1126 32.0077 12.1035C32.192 11.9711 32.2288 11.6834 32.2485 11.4756Z" fill="#0E1030"/>
<path d="M20.4701 29.8379C20.3989 29.8379 20.3252 29.8265 20.2539 29.8013C19.9493 29.6917 19.797 29.3721 19.9149 29.0867C21.3104 25.7485 23.2095 22.6182 25.5558 19.7778C26.1135 19.1019 26.7056 18.4352 27.278 17.7891C28.8283 16.0401 30.4301 14.2295 31.4423 12.1768C31.6512 11.7544 31.8649 11.2566 31.8747 10.7749C31.8821 10.3433 31.7003 9.94147 31.4079 9.75425C30.9682 9.47112 30.2778 9.57843 29.5506 9.72228C28.1969 9.99171 26.8186 10.2292 25.455 10.4301C23.3889 10.7338 20.9984 10.9963 18.797 10.252C18.5243 10.1607 18.259 10.0534 17.9912 9.94604C17.4998 9.74968 17.0355 9.56245 16.5589 9.4871C15.9619 9.39349 15.3256 9.46884 14.6155 9.5693C14.2028 9.62867 13.8293 9.68118 13.478 9.72913C12.0629 9.92549 11.0408 10.0648 9.38986 10.4255C9.07047 10.494 8.75108 10.3114 8.67738 10.0145C8.60122 9.71771 8.80022 9.42089 9.11961 9.35239C10.8173 8.98022 11.8614 8.83865 13.3036 8.63773C13.6525 8.58978 14.0234 8.53726 14.4337 8.48018C15.2174 8.3683 15.9864 8.27697 16.7579 8.40027C17.3745 8.49845 17.9249 8.71992 18.4605 8.93455C18.7061 9.03273 18.9518 9.13091 19.2 9.21539C21.1359 9.86841 23.3471 9.62182 25.2683 9.33869C26.6122 9.14233 27.9684 8.90715 29.3 8.64229C30.0493 8.4916 31.1819 8.26784 32.0811 8.8455C32.71 9.24964 33.0761 9.97801 33.0614 10.7931C33.0491 11.4781 32.7813 12.1083 32.5209 12.6357C31.4448 14.8185 29.7913 16.684 28.1919 18.49C27.6269 19.1293 27.0422 19.7892 26.4943 20.4491C24.2143 23.205 22.3717 26.2463 21.018 29.4863C20.932 29.7054 20.7085 29.8379 20.4701 29.8379Z" fill="#0E1030"/>
<path d="M9.05365 26.191C10.3435 26.4628 11.6849 26.3006 12.9821 26.0632C13.5324 25.9627 14.0901 25.8577 14.5864 25.6179C15.5691 25.1453 16.2104 24.1841 16.4315 23.1749C16.6502 22.1656 16.4929 21.1153 16.1834 20.1267C15.8763 19.138 15.4242 18.195 15.0409 17.2292C14.5275 15.9255 14.1417 14.5783 13.8911 13.2084C13.702 12.1741 13.5865 11.1123 13.1737 10.1351C13.0927 9.94331 12.9919 9.74466 12.8101 9.62822C12.5988 9.49122 12.3212 9.48894 12.0633 9.50035C10.9061 9.54602 9.95039 9.68987 8.84482 10.0118C8.22815 10.2105 7.7589 10.6968 7.47145 11.2402C7.184 11.7836 7.05871 12.3887 6.94815 12.9846C6.82285 13.6696 6.71229 14.3569 6.60419 15.0441C6.44204 16.0648 6.27989 17.0854 6.11774 18.1037C5.87206 19.6449 5.62883 21.1907 5.54284 22.7479C5.52073 23.1429 5.51091 23.5425 5.61164 23.926C5.86469 24.8805 6.86707 25.7298 9.05365 26.191Z" fill="#0E1030"/>
<path d="M8.89564 26.7233C9.83906 26.9128 10.7948 26.9151 11.748 26.8055C12.6153 26.705 13.539 26.5909 14.3621 26.3055C15.8313 25.7963 16.7993 24.5382 17.0449 23.118C17.3422 21.4056 16.7378 19.7593 16.0745 18.1862C15.4136 16.6153 14.8534 15.0307 14.5267 13.3685C14.367 12.5647 14.2736 11.7519 14.0697 10.955C13.8904 10.2495 13.6521 9.26314 12.802 9.01655C12.3942 8.89782 11.9396 8.94805 11.522 8.97773C11.0896 9.0097 10.6572 9.05765 10.2297 9.12615C9.39192 9.26086 8.49027 9.42754 7.8171 9.93899C6.46093 10.9665 6.3602 12.8684 6.12189 14.3525C5.84918 16.0559 5.56664 17.7569 5.31605 19.4625C5.17109 20.4443 5.04088 21.4307 4.97455 22.4193C4.92295 23.1842 4.90084 23.956 5.28656 24.6547C5.95728 25.8808 7.54439 26.431 8.89564 26.7233C9.6376 26.8831 9.95699 25.8191 9.21012 25.6593C8.57871 25.5246 7.95222 25.3511 7.38469 25.0565C7.17341 24.9469 6.96703 24.8191 6.82208 24.7003C6.74592 24.6364 6.67221 24.5702 6.60097 24.4994C6.56657 24.4651 6.53463 24.4309 6.50515 24.3966C6.47812 24.367 6.48058 24.3692 6.51006 24.4035C6.48795 24.3761 6.46584 24.3464 6.44619 24.319C6.39705 24.246 6.35283 24.1752 6.3086 24.0998C6.30123 24.0861 6.23244 23.9377 6.28158 24.0519C6.26438 24.0153 6.24964 23.9765 6.23736 23.9377C6.13417 23.6455 6.12189 23.3486 6.1268 23.0427C6.144 22.2572 6.2349 21.4695 6.33317 20.6886C6.5248 19.168 6.78769 17.6542 7.02845 16.1381C7.15375 15.3503 7.27414 14.5649 7.40926 13.7794C7.5321 13.0579 7.62301 12.2839 7.94239 11.6081C8.1979 11.0692 8.60574 10.6514 9.21994 10.4824C9.93734 10.286 10.6719 10.1491 11.4163 10.0897C11.7382 10.0646 12.0748 10.0258 12.3966 10.0554C12.4998 10.0646 12.4973 10.092 12.5661 10.1993C12.662 10.3545 12.7136 10.5418 12.7725 10.7107C13.0059 11.4071 13.1189 12.1309 13.2393 12.8502C13.4924 14.3594 13.8781 15.839 14.4382 17.2751C14.9812 18.6679 15.7305 20.0493 15.9074 21.538C16.0647 22.8554 15.7182 24.4058 14.3695 25.1022C13.6545 25.4721 12.7307 25.5657 11.9323 25.6776C11.0355 25.8031 10.1069 25.8374 9.21503 25.6593C8.4657 25.5109 8.14877 26.5726 8.89564 26.7233Z" fill="#0E1030"/>
<path d="M14.4805 26.0449C14.4805 26.0449 16.8415 29.0497 20.5881 29.0155L14.4805 26.0449Z" fill="#EEEFEF"/>
<path d="M20.5268 29.8993C16.3822 29.8993 13.8221 26.7027 13.714 26.5658C13.4045 26.173 13.4978 25.6205 13.9204 25.3328C14.343 25.0451 14.9351 25.1296 15.2446 25.5223C15.2717 25.5565 17.3649 28.1321 20.5268 28.1321C20.5465 28.1321 20.5686 28.1321 20.5882 28.1321C21.1091 28.1321 21.5317 28.5225 21.5366 29.0066C21.5415 29.4929 21.1214 29.8925 20.5956 29.897C20.576 29.8993 20.5489 29.8993 20.5268 29.8993Z" fill="#0E1030"/>
</svg>
