<svg width="150" height="22" viewBox="0 0 150 22" fill="none" xmlns="http://www.w3.org/2000/svg">
<path d="M1.54566 17.1403C1.54566 17.1403 3.62381 19.6579 6.87207 19.6579C9.12751 19.6579 10.942 18.1948 10.942 15.9995C10.942 10.9121 0.784086 11.9296 0.784086 5.54866C0.784086 2.67965 3.27231 0.279297 7.07711 0.279297C9.06892 0.279297 12.6394 1.12875 12.6394 3.8251V5.28812H10.7077V4.31843C10.7077 3.0851 9.01188 2.1817 7.1064 2.1817C4.44243 2.1817 2.89152 3.73414 2.89152 5.49008C2.89152 10.2615 13.0495 9.09138 13.0495 15.8824C13.0495 18.9564 10.6784 21.5618 6.81503 21.5618C5.58158 21.5627 4.36195 21.3021 3.23656 20.7972C2.11118 20.2923 1.1056 19.5546 0.286133 18.6327L1.54566 17.1403Z" fill="#0E1030"/>
<path d="M17.0018 8.85739C17.011 8.7705 17.0007 8.68265 16.9715 8.60027C16.9424 8.51789 16.8952 8.44307 16.8334 8.38129C16.7717 8.3195 16.6968 8.27232 16.6145 8.2432C16.5321 8.21408 16.4442 8.20375 16.3573 8.21298H15.124V6.48633H17.2022C18.4602 6.48633 18.9874 7.01203 18.9874 8.21298V15.3262C18.9874 17.6386 19.3682 19.6875 22.2079 19.6875C25.5456 19.6875 27.6237 16.7321 27.6237 13.5409V6.48633H29.614V18.8396C29.614 19.279 29.8483 19.484 30.2584 19.484H31.4917V21.2107H29.4722C28.2389 21.2107 27.6869 20.6834 27.6869 19.5703V18.8982C27.6869 18.5459 27.7064 18.1938 27.7455 17.8437H27.6869C27.1919 18.9515 26.3866 19.8923 25.3683 20.5522C24.35 21.2121 23.1623 21.5629 21.9489 21.5621C18.4648 21.5621 17.0018 19.6875 17.0018 15.858V8.85739Z" fill="#0E1030"/>
<path d="M34.7128 8.85684C34.7222 8.76966 34.7118 8.68151 34.6825 8.59888C34.6532 8.51625 34.6057 8.44125 34.5436 8.37941C34.4814 8.31756 34.4062 8.27046 34.3235 8.24156C34.2407 8.21266 34.1525 8.2027 34.0654 8.21242H32.832V6.48577H34.8824C36.1157 6.48577 36.6677 7.01148 36.6677 8.12455V8.79825C36.6677 9.15005 36.6482 9.50158 36.6091 9.8512H36.6677C37.3984 7.86093 39.7124 6.13428 41.9956 6.13428C44.7166 6.13428 46.1226 7.39227 46.562 9.82191H46.6206C47.4114 7.83164 49.5497 6.13428 52.0364 6.13428C55.6069 6.13428 56.925 8.21242 56.925 11.8384V18.8344C56.925 19.2738 57.1593 19.4788 57.5678 19.4788H58.8012V21.2055H56.7276C55.4681 21.2055 54.9409 20.6782 54.9409 19.4187V12.3394C54.9409 9.93908 54.4444 7.9488 51.7512 7.9488C49.5266 7.9488 47.6812 9.93908 47.0969 12.1113C46.8996 12.8057 46.8107 13.5264 46.8333 14.248V21.2163H44.8415V12.3394C44.8415 10.1148 44.5193 7.9488 41.7382 7.9488C39.3378 7.9488 37.551 10.0269 36.9375 12.2808C36.7697 12.9206 36.6908 13.5805 36.7031 14.2418V21.2101H34.7128V8.85684Z" fill="#0E1030"/>
<path d="M62.1442 8.15405H60.2109V6.48598H62.1735V2.41602H64.1283V6.48598H67.8282V8.15405H64.1283V15.6496C64.1283 19.1044 66.3236 19.5422 67.4367 19.5422C67.662 19.545 67.8871 19.5259 68.1088 19.4852V21.2704C67.828 21.3111 67.5446 21.3307 67.2609 21.329C65.5651 21.329 62.138 20.7725 62.138 15.8546L62.1442 8.15405Z" fill="#0E1030"/>
<path d="M71.7762 8.85736C71.7854 8.77047 71.7751 8.68262 71.7459 8.60025C71.7168 8.51787 71.6696 8.44304 71.6079 8.38126C71.5461 8.31948 71.4713 8.2723 71.3889 8.24317C71.3065 8.21405 71.2186 8.20372 71.1318 8.21295H69.8984V6.4863H71.9473C73.1806 6.4863 73.7325 6.98271 73.7325 8.15437V9.14873C73.7325 9.52053 73.7129 9.89206 73.6739 10.2618H73.7325C74.4355 8.0372 76.0743 6.33984 78.3868 6.33984C78.6527 6.34267 78.9176 6.3721 79.1776 6.42772V8.3887C78.9353 8.35139 78.6906 8.33181 78.4454 8.33012C76.3672 8.33012 74.8163 9.96889 74.1719 12.1349C73.8925 13.0654 73.7543 14.0325 73.7618 15.0039V21.2106H71.7762V8.85736Z" fill="#0E1030"/>
<path d="M89.0472 12.1344H89.8736V11.9586C89.8736 8.88613 88.762 7.79618 86.0688 7.79618C85.3365 7.79618 83.1998 8.00122 83.1998 9.085V10.0208H81.2897V8.6225C81.2897 6.57365 84.8015 6.13428 86.0904 6.13428C90.7446 6.13428 91.8577 8.6225 91.8577 11.7829V18.839C91.8577 19.2784 92.092 19.4834 92.5005 19.4834H93.7339V21.2101H91.7143C90.4548 21.2101 89.9568 20.6536 89.9568 19.4542C89.9568 18.8097 89.9861 18.375 89.9861 18.375H89.9275C89.9568 18.375 88.7281 21.5662 85.039 21.5662C82.5723 21.5662 80.0332 20.1309 80.0332 17.2033C80.0332 12.3148 86.5081 12.139 89.0503 12.139L89.0472 12.1344ZM85.3612 19.8673C88.1716 19.8673 89.8689 16.9382 89.8689 14.3929V13.7161H89.021C86.7086 13.7161 82.0836 13.7747 82.0836 17.0831C82.0836 18.4582 83.1628 19.8581 85.3627 19.8581" fill="#0E1030"/>
<path d="M103.275 6.13428C104.943 6.13428 108.517 6.83573 108.517 9.26537V10.5835H106.641V9.73403C106.641 8.50071 104.504 7.91951 103.275 7.91951C100.113 7.91951 97.5713 10.2906 97.5713 13.8626C97.5713 17.4916 100.235 19.7455 103.339 19.7455C104.229 19.7416 105.109 19.5552 105.925 19.1977C106.741 18.8403 107.474 18.3195 108.081 17.6674L109.017 19.1612C109.017 19.1612 107.026 21.5616 103.251 21.5616C98.8586 21.5616 95.5225 18.429 95.5225 13.8626C95.5225 9.35325 98.8894 6.13428 103.28 6.13428" fill="#0E1030"/>
<path d="M112.176 3.00809C112.185 2.9212 112.174 2.83335 112.145 2.75097C112.116 2.66859 112.069 2.59377 112.007 2.53199C111.945 2.4702 111.871 2.42302 111.788 2.3939C111.706 2.36478 111.618 2.35445 111.531 2.36368H110.298V0.630859H112.382C113.64 0.630859 114.167 1.07023 114.167 2.32668V12.1038H115.691C116.246 12.1038 116.949 11.9281 117.359 11.4024L121.134 6.48451H123.564L119.32 11.871C118.589 12.7791 118.208 12.9255 118.208 12.9255V12.9841C118.208 12.9841 118.646 13.1892 119.115 14.0633L121.779 18.8424C122.042 19.3403 122.335 19.4868 123.126 19.4868H123.915V21.2135H122.54C121.077 21.2135 120.667 20.9791 119.993 19.7489L117.064 14.4795C116.742 13.8952 116.041 13.8366 115.513 13.8366H114.166V21.2135H112.176V3.00809Z" fill="#0E1030"/>
<path d="M132.434 6.13428C136.503 6.13428 138.61 9.26537 138.61 12.9253C138.61 13.2768 138.551 13.9212 138.551 13.9212H127.253C127.31 17.6381 129.917 19.7794 132.957 19.7794C135.65 19.7794 137.378 17.9649 137.378 17.9649L138.343 19.4588C136.833 20.7998 134.888 21.5484 132.869 21.5662C128.508 21.5662 125.17 18.4043 125.17 13.8672C125.17 9.03721 128.478 6.1389 132.431 6.1389L132.434 6.13428ZM136.558 12.3441C136.441 9.29929 134.568 7.80697 132.396 7.80697C129.966 7.80697 127.829 9.38716 127.333 12.3441H136.558Z" fill="#0E1030"/>
<path d="M142.598 8.85736C142.608 8.77047 142.597 8.68262 142.568 8.60025C142.539 8.51787 142.492 8.44304 142.43 8.38126C142.368 8.31948 142.294 8.2723 142.211 8.24317C142.129 8.21405 142.041 8.20372 141.954 8.21295H140.721V6.4863H142.77C144.003 6.4863 144.555 6.98271 144.555 8.15437V9.14873C144.555 9.52053 144.535 9.89206 144.496 10.2618H144.555C145.258 8.0372 146.897 6.33984 149.209 6.33984C149.475 6.34267 149.74 6.3721 150 6.42772V8.3887C149.758 8.35139 149.513 8.33181 149.268 8.33012C147.189 8.33012 145.639 9.96889 144.994 12.1349C144.715 13.0654 144.577 14.0325 144.584 15.0039V21.2106H142.598V8.85736Z" fill="#0E1030"/>
</svg>
