<svg width="163" height="21" viewBox="0 0 163 21" fill="none" xmlns="http://www.w3.org/2000/svg">
<path d="M147.564 0.000597C147.985 0.000597 148.423 0.116373 148.79 0.364462L161.944 8.7995C162.54 9.1799 162.908 9.82493 162.908 10.503C162.908 11.1812 162.54 11.8262 161.944 12.2066L148.79 20.6416C147.792 21.2867 146.426 21.0386 145.743 20.0958C145.06 19.1531 145.322 17.863 146.321 17.218L156.812 10.503L146.321 3.77155C145.322 3.12652 145.06 1.83646 145.743 0.893719C146.181 0.314844 146.864 0.000597 147.564 0.000597Z" fill="#5F5F5F"/>
<line x1="11.7377" y1="10.2457" x2="155.62" y2="10.2457" stroke="#5F5F5F" stroke-width="3.7" stroke-linecap="round"/>
<circle cx="5.76901" cy="10.4633" r="5.76901" fill="#5F5F5F"/>
</svg>
