<svg width="493" height="334" viewBox="0 0 493 334" fill="none" xmlns="http://www.w3.org/2000/svg">
<g opacity="0.9">
<path d="M440.74 15.6259V225.024C440.74 233.659 433.871 240.65 425.412 240.65H75.3408C66.8706 240.65 60.0127 233.647 60.0127 225.024V15.6259C60.0127 6.99113 66.882 0 75.3408 0H425.401C433.871 0 440.74 6.99113 440.74 15.6259Z" fill="#7D7AB9"/>
<path d="M423.823 26.2737V214.375C423.823 219.907 419.417 224.398 413.99 224.398H86.7516C84.4581 224.398 82.3462 223.6 80.6772 222.257C80.2344 221.898 79.8256 221.505 79.4396 221.076C77.8727 219.305 76.9189 216.956 76.9189 214.375V26.2737C76.9189 20.741 81.3244 16.25 86.7516 16.25H413.99C415.807 16.25 417.51 16.7477 418.963 17.6274C420.337 18.4492 421.495 19.6067 422.335 20.9725C423.289 22.5119 423.823 24.3292 423.823 26.2737Z" fill="white"/>
<path d="M476.302 232.293V233.636C476.302 240.291 474.201 246.46 470.648 251.461C465.22 259.112 456.387 264.089 446.418 264.089H54.3246C44.3556 264.089 35.5221 259.112 30.0948 251.461C26.5409 246.449 24.4404 240.291 24.4404 233.636V232.293H476.302Z" fill="#7D7AB9"/>
<path d="M199.737 232.293V232.594C199.737 235.001 201.327 236.958 203.28 236.958H295.521C297.474 236.958 299.063 235.001 299.063 232.594V232.293H199.737Z" fill="#7D7AB9"/>
<path opacity="0.2" d="M423.823 26.2748V37.375H76.9189V26.2748C76.9189 24.1335 77.5661 22.1658 78.6902 20.5453C80.4614 17.9526 83.4135 16.2627 86.7516 16.2627H413.99C417.328 16.2627 420.28 17.9526 422.04 20.5453C423.175 22.1658 423.823 24.1335 423.823 26.2748Z" fill="#7D7AB9"/>
<path d="M340.029 30.152H156.046C155.569 30.152 155.194 29.7584 155.194 29.2839V25.4179C155.194 24.9433 155.58 24.5498 156.046 24.5498H340.029C340.494 24.5498 340.88 24.9433 340.88 25.4179V29.2839C340.88 29.77 340.494 30.152 340.029 30.152Z" fill="white"/>
<path d="M110.845 27.3508V29.4343C110.845 30.0361 110.209 30.4065 109.709 30.1056L107.938 29.0639L106.167 28.0222C105.656 27.7212 105.656 26.9804 106.167 26.6795L107.938 25.6378L109.709 24.596C110.22 24.2951 110.845 24.6655 110.845 25.2674V27.3508Z" fill="#7D7AB9"/>
<path d="M120.031 27.3508V29.4343C120.031 30.0361 120.667 30.4065 121.166 30.1056L122.937 29.0639L124.709 28.0222C125.22 27.7212 125.22 26.9804 124.709 26.6795L122.937 25.6378L121.166 24.596C120.655 24.2951 120.031 24.6655 120.031 25.2674V27.3508Z" fill="#7D7AB9"/>
<path opacity="0.2" d="M422.051 20.5336H78.7017C80.4729 17.9409 83.425 16.251 86.7631 16.251H414.001C417.339 16.251 420.28 17.9409 422.051 20.5336Z" fill="#7D7AB9"/>
<path opacity="0.1" d="M352.814 208.334H143.25C139.151 208.334 135.836 204.943 135.836 200.776C135.836 196.598 139.163 193.218 143.25 193.218H352.803C356.901 193.218 360.217 196.609 360.217 200.776C360.228 204.955 356.913 208.334 352.814 208.334Z" fill="#7D7AB9"/>
<path d="M492.289 232.896C490.348 240.616 484.921 246.462 476.609 249.818C474.407 250.71 472.283 251.311 470.455 251.716C470.523 251.624 470.58 251.543 470.648 251.45C471.943 249.633 473.044 247.665 473.918 245.57C479.402 243.533 485.647 239.528 487.623 231.669C489.519 224.111 486.453 212.814 479.811 202.871C474.543 195 462.587 181.4 441.684 178.761C423.438 176.458 411.584 179.293 401.127 181.782C392.237 183.9 383.834 185.903 373.559 184.062C366.02 182.72 360.218 180.763 355.108 179.039C345.707 175.867 339.496 173.772 329.63 177.893C312.996 184.838 305.582 213.636 305.502 213.925L300.824 212.71C301.153 211.425 308.908 181.226 327.802 173.344C339.315 168.541 346.956 171.11 356.619 174.374C361.569 176.053 367.189 177.939 374.388 179.224C383.698 180.879 391.26 179.085 400.014 176.99C410.869 174.397 423.165 171.469 442.263 173.877C451.187 174.999 459.499 178.124 466.981 183.159C473.498 187.546 479.3 193.403 483.785 200.093C491.302 211.332 494.56 223.902 492.289 232.896Z" fill="#484848"/>
<path d="M259.71 259.437L270.531 224.562C275.141 209.712 290.696 201.471 305.263 206.17C319.831 210.87 327.915 226.727 323.305 241.577L312.485 276.452C290.56 269.391 281.715 266.544 259.71 259.437Z" fill="#D5AC84"/>
<path d="M254.363 293.155C254.363 294.116 253.988 294.984 253.364 295.609C252.751 296.234 251.899 296.627 250.957 296.627H237.389V289.683H250.957C252.83 289.683 254.363 291.234 254.363 293.155Z" fill="#DCDCDC"/>
<path d="M254.363 317.844C254.363 318.804 253.988 319.672 253.364 320.297C252.751 320.922 251.899 321.316 250.957 321.316H237.389V314.371H250.957C252.83 314.371 254.363 315.922 254.363 317.844Z" fill="#DCDCDC"/>
<path d="M243.577 289.683H237.389V296.627H243.577V289.683Z" fill="#353535"/>
<path d="M243.577 314.371H237.389V321.316H243.577V314.371Z" fill="#353535"/>
<path d="M183.535 301.43L183.354 306.928C127.116 304.914 83.4938 300.736 53.7232 294.497C28.1877 289.149 12.201 282.286 4.83216 273.489C1.05123 268.975 -0.527003 263.836 0.154246 258.233C1.28966 248.777 9.53278 241.809 24.6906 237.434C24.9177 239.286 25.3037 241.091 25.8487 242.816C15.6754 245.802 6.48987 250.745 5.51341 258.905C5.02518 262.979 6.14924 266.579 8.94236 269.924C15.4029 277.644 30.8332 284.091 54.8132 289.115C84.2886 295.296 127.593 299.439 183.535 301.43Z" fill="#484848"/>
<path d="M237.388 333.713H201.497C186.215 333.713 173.816 321.085 173.816 305.494C173.816 289.914 186.203 277.274 201.497 277.274H237.388C237.388 300.736 237.388 310.181 237.388 333.713Z" fill="#D5AC84"/>
<path d="M250.531 67.8191L193.178 167.181C191.343 170.362 193.637 174.339 197.31 174.339H312.015C315.688 174.339 317.982 170.362 316.146 167.181L258.795 67.8191C256.959 64.6384 252.367 64.6384 250.531 67.8191Z" fill="#F3F3F3" stroke="#FF6C7D" stroke-width="3" stroke-miterlimit="10"/>
<path d="M259.586 135.812C259.003 135.812 258.42 135.588 257.976 135.139C256.906 134.058 255.48 133.463 253.964 133.463C252.447 133.463 251.023 134.059 249.952 135.139C249.063 136.037 247.622 136.037 246.732 135.139C245.844 134.242 245.844 132.787 246.732 131.89C248.663 129.941 251.231 128.868 253.963 128.868C256.695 128.868 259.263 129.941 261.193 131.89C262.082 132.787 262.082 134.242 261.193 135.139C260.751 135.588 260.168 135.812 259.586 135.812Z" fill="#7D7AB9"/>
<path d="M265.785 129.555C265.202 129.555 264.62 129.331 264.175 128.881C261.45 126.127 257.824 124.611 253.965 124.611C250.106 124.611 246.48 126.127 243.755 128.881C242.867 129.779 241.424 129.78 240.537 128.883C239.647 127.985 239.647 126.53 240.535 125.632C244.12 122.009 248.89 120.014 253.965 120.014C259.041 120.014 263.811 122.009 267.396 125.632C268.285 126.53 268.284 127.985 267.394 128.883C266.949 129.331 266.367 129.555 265.785 129.555Z" fill="#7D7AB9"/>
<path d="M273.149 122.119C272.566 122.119 271.984 121.894 271.539 121.445C266.846 116.705 260.605 114.094 253.965 114.094C247.324 114.094 241.082 116.705 236.39 121.445C235.501 122.342 234.06 122.343 233.171 121.446C232.283 120.549 232.282 119.094 233.17 118.196C238.723 112.588 246.107 109.499 253.966 109.499C261.823 109.499 269.208 112.588 274.761 118.196C275.65 119.094 275.649 120.549 274.76 121.446C274.314 121.894 273.732 122.119 273.149 122.119Z" fill="#7D7AB9"/>
<path d="M251.362 140.961C251.008 140.961 250.647 140.878 250.311 140.7C249.197 140.113 248.764 138.725 249.346 137.6L264.954 107.398C265.536 106.272 266.911 105.836 268.025 106.423C269.139 107.011 269.572 108.399 268.99 109.524L253.382 139.726C252.976 140.512 252.183 140.961 251.362 140.961Z" fill="#FF6C7D"/>
</g>
</svg>
