<svg width="25" height="23" viewBox="0 0 25 23" fill="none" xmlns="http://www.w3.org/2000/svg">
<path d="M13.7977 16.7674C11.7087 16.7674 9.61834 16.73 7.53003 16.7812C6.20949 16.8136 4.87716 16.051 4.75024 14.4322C4.64898 13.1424 4.45686 11.8583 4.30705 10.5711C4.17805 9.46248 4.0539 8.35325 3.92421 7.24464C3.77648 5.98114 3.62459 4.71826 3.47547 3.45476C3.44773 3.22242 3.42068 2.98946 3.40403 2.75587C3.39294 2.59286 3.31873 2.52166 3.128 2.52478C2.64251 2.5329 2.15701 2.5304 1.67152 2.52603C1.16522 2.52166 0.805262 2.20563 0.801794 1.7703C0.797633 1.31624 1.14927 0.998961 1.6736 0.996463C2.48853 0.992715 3.30347 0.992715 4.1184 0.996463C4.61499 0.998961 4.9368 1.24379 4.99714 1.69411C5.11158 2.55289 5.21284 3.41354 5.30509 4.27482C5.35502 4.74137 5.34254 4.74262 5.85716 4.74262C11.5874 4.74262 17.3176 4.742 23.0478 4.74324C23.8773 4.74324 24.5139 5.17357 24.7255 5.86872C24.8025 6.12229 24.7997 6.37711 24.7387 6.63256C24.0819 9.39315 23.4285 12.1544 22.7662 14.9137C22.4901 16.0635 21.5039 16.7662 20.1945 16.7668C18.0631 16.7687 15.9304 16.7674 13.7977 16.7674ZM14.3158 6.27469C11.5166 6.27469 8.7174 6.27469 5.91889 6.27469C5.55269 6.27469 5.53604 6.29342 5.57627 6.61945C5.67545 7.42514 5.77601 8.23021 5.87103 9.0359C6.08049 10.8103 6.30589 12.5834 6.48345 14.3603C6.54309 14.9543 6.87461 15.2435 7.58551 15.2397C9.58713 15.2279 11.5894 15.2354 13.5911 15.2354C15.7577 15.2354 17.9237 15.2366 20.0904 15.2347C20.707 15.2341 20.9733 15.0349 21.1016 14.4959C21.7314 11.8508 22.3618 9.20578 22.9916 6.56074C23.0596 6.27531 23.0602 6.27469 22.7384 6.27469C19.9316 6.27469 17.1241 6.27469 14.3158 6.27469Z" fill="#5F5F5F"/>
<path d="M8.3059 22.7626C6.89658 22.762 5.79313 21.7596 5.7959 20.4823C5.79868 19.2269 6.91184 18.2333 8.31492 18.2339C9.72562 18.2345 10.8277 19.2357 10.8249 20.5142C10.8221 21.7702 9.70967 22.7639 8.3059 22.7626ZM9.11945 20.5067C9.12638 20.1382 8.75117 19.7866 8.33295 19.7703C7.9182 19.7541 7.509 20.1088 7.50206 20.4911C7.49513 20.8596 7.87104 21.2112 8.28925 21.2274C8.7047 21.2431 9.11182 20.8895 9.11945 20.5067Z" fill="#5F5F5F"/>
<path d="M18.3092 18.2339C19.7171 18.2358 20.8164 19.2401 20.8122 20.5204C20.8081 21.7739 19.6921 22.7645 18.2863 22.7626C16.879 22.7608 15.7791 21.7558 15.7832 20.4761C15.7867 19.2232 16.9033 18.2326 18.3092 18.2339ZM19.1061 20.4948C19.1026 20.1226 18.7211 19.7766 18.3064 19.7697C17.8875 19.7628 17.4852 20.1232 17.4887 20.5017C17.4921 20.8739 17.8743 21.2199 18.289 21.2262C18.7087 21.2337 19.1095 20.8746 19.1061 20.4948Z" fill="#5F5F5F"/>
</svg>
