<svg id="Layer_1" data-name="Layer 1" xmlns="http://www.w3.org/2000/svg" viewBox="0 0 28.4 27.93"><defs><style>.cls-1{fill:#5f5f5f;stroke:#5f5f5f;stroke-miterlimit:10;stroke-width:0.45px;}</style></defs><title>Group 3628</title><path class="cls-1" d="M16.3,3.24h0V1.18c0-.11,0-.16-.14-.16q-1.32,0-2.64,0c-.11,0-.14.05-.14.16V5.3s0,.09,0,.11.07,0,.1,0l.95-.63a.63.63,0,0,1,.78,0l.94.62s.07.08.12,0,0-.08,0-.12Zm-1.47,9.58h5.25a.59.59,0,0,0,.66-.65V1.67A.58.58,0,0,0,20.1,1h-3c-.19,0-.19,0-.19.2V5.4A.63.63,0,0,1,16.6,6a.59.59,0,0,1-.68-.07c-.32-.21-.64-.41-.95-.63a.2.2,0,0,0-.26,0l-1,.65a.63.63,0,0,1-.46.12.62.62,0,0,1-.54-.65V1.21c0-.18,0-.19-.18-.19h-3a.6.6,0,0,0-.68.69V12.14a.6.6,0,0,0,.68.68Zm6.53-5.88v5.21a1.21,1.21,0,0,1-1.3,1.29H9.61a1.2,1.2,0,0,1-1.29-1.29V1.69A1.21,1.21,0,0,1,9.61.4H20.08a1.21,1.21,0,0,1,1.28,1.28Z" transform="translate(-0.18 -0.17)"/><path class="cls-1" d="M8.38,17.68h0c0-.69,0-1.38,0-2.06,0-.11,0-.16-.15-.16H5.61c-.12,0-.15,0-.15.16v4.12s0,.09,0,.11.07,0,.1,0l1-.63a.63.63,0,0,1,.78,0l.94.62s.07.08.12.05,0-.08,0-.12ZM6.91,27.26h5.25a.59.59,0,0,0,.66-.65V16.11a.58.58,0,0,0-.64-.64h-3c-.19,0-.19,0-.19.19v4.18a.62.62,0,0,1-.32.61A.6.6,0,0,1,8,20.38c-.32-.21-.64-.41-1-.63a.2.2,0,0,0-.26,0c-.31.22-.64.43-1,.65a.63.63,0,0,1-.46.12.6.6,0,0,1-.53-.65c0-1.41,0-2.81,0-4.22,0-.18,0-.18-.19-.18H1.7a.59.59,0,0,0-.68.68V26.58a.6.6,0,0,0,.68.68Zm6.53-5.88v5.21a1.21,1.21,0,0,1-1.3,1.29H1.69A1.21,1.21,0,0,1,.4,26.59V16.13a1.21,1.21,0,0,1,1.29-1.29H12.16a1.2,1.2,0,0,1,1.28,1.28Z" transform="translate(-0.18 -0.17)"/><path class="cls-1" d="M23.29,17.68h0V15.62c0-.11,0-.16-.15-.16H20.51c-.12,0-.15,0-.15.16,0,1.37,0,2.75,0,4.12,0,0,0,.09,0,.11s.08,0,.11,0l1-.63a.63.63,0,0,1,.78,0l.93.62s.08.08.12.05,0-.08,0-.12Zm-1.47,9.58h5.25a.58.58,0,0,0,.65-.65V16.11a.58.58,0,0,0-.64-.64h-3c-.19,0-.19,0-.19.19,0,1.39,0,2.79,0,4.18a.63.63,0,0,1-.33.61.61.61,0,0,1-.69-.07c-.31-.21-.63-.41-.94-.63a.2.2,0,0,0-.26,0l-1,.65a.6.6,0,0,1-.45.12.61.61,0,0,1-.54-.65V15.65c0-.18,0-.18-.18-.18h-3c-.45,0-.67.21-.67.68V26.58a.6.6,0,0,0,.68.68Zm6.53-5.88v5.21a1.21,1.21,0,0,1-1.3,1.29H16.6a1.2,1.2,0,0,1-1.29-1.29V16.13a1.2,1.2,0,0,1,1.29-1.29H27.06a1.21,1.21,0,0,1,1.29,1.28Z" transform="translate(-0.18 -0.17)"/></svg>