<svg id="Layer_1" data-name="Layer 1" xmlns="http://www.w3.org/2000/svg" viewBox="0 0 18.99 22.48"><defs><style>.cls-1,.cls-2{fill:#5f5f5f;}.cls-1{stroke:#5f6060;stroke-miterlimit:10;stroke-width:0.2px;}</style></defs><path class="cls-1" d="M17,4.85,13.8,2c0,.59,0,1.24,0,1.89a.92.92,0,0,0,1,.91h2C16.91,4.82,17,4.84,17,4.85ZM1.3,11.33v9.21c0,.62.38,1,1.06,1H16.83c.65,0,1.06-.35,1.06-.93V6c0-.18-.06-.25-.28-.25h-2.8A2,2,0,0,1,12.7,3.92c0-.82,0-1.65,0-2.47,0-.21,0-.28-.29-.28-.59,0-1.18,0-1.76,0H2.42a1.23,1.23,0,0,0-.75.2.91.91,0,0,0-.38.81Q1.31,6.76,1.3,11.33Zm.58,11.14a2.14,2.14,0,0,1-1.48-1,1.57,1.57,0,0,1-.2-.76V2A2,2,0,0,1,2.26.2H13.15a.79.79,0,0,1,.56.21l5,4.48a.72.72,0,0,1,.24.57Q19,13,19,20.54a1.89,1.89,0,0,1-1.58,1.9l-.09,0Z" transform="translate(-0.1 -0.1)"/><path class="cls-2" d="M9.57,14.14H3.94c-.39,0-.61-.17-.61-.47a.47.47,0,0,1,.37-.46,1.39,1.39,0,0,1,.41,0h11a1.54,1.54,0,0,1,.37,0,.46.46,0,0,1,.4.54.49.49,0,0,1-.52.4H9.57Z" transform="translate(-0.1 -0.1)"/><path class="cls-2" d="M9.57,16.92H3.93c-.39,0-.61-.18-.6-.48A.46.46,0,0,1,3.7,16a1.29,1.29,0,0,1,.39,0h11a1.29,1.29,0,0,1,.39,0,.46.46,0,0,1,.37.54.5.5,0,0,1-.5.39H9.57Z" transform="translate(-0.1 -0.1)"/><path class="cls-2" d="M6,5.54H5.19c-.41,0-.69.23-.73.52s.17.6.6.67c.23,0,.48,0,.72.09a2.25,2.25,0,0,1,1.91,1.6,1.86,1.86,0,0,1-1.23,2,.65.65,0,0,0-.44.44.76.76,0,0,1-.76.48.8.8,0,0,1-.82-.4c-.1-.23-.27-.27-.52-.25H3.53a.77.77,0,0,1-.81-.57.68.68,0,0,1,.62-.73,6.36,6.36,0,0,1,1.31-.05h.57c.45,0,.73-.23.75-.56s-.24-.59-.71-.62a3,3,0,0,1-2-.77A1.73,1.73,0,0,1,4,4.45a.62.62,0,0,0,.41-.39.75.75,0,0,1,.75-.52A.83.83,0,0,1,6,3.93c.1.22.28.26.53.25h.38c.48,0,.81.32.81.68s-.34.65-.82.67c-.29,0-.59,0-.88,0Z" transform="translate(-0.1 -0.1)"/><path class="cls-2" d="M7,19.71H3.89c-.36,0-.59-.21-.56-.52a.45.45,0,0,1,.36-.42,1.29,1.29,0,0,1,.39,0H9.91a1.23,1.23,0,0,1,.27,0,.52.52,0,0,1,.48.52.53.53,0,0,1-.57.44Z" transform="translate(-0.1 -0.1)"/><path class="cls-2" d="M12.21,10.81h-3c-.4,0-.64-.18-.66-.48s.27-.5.66-.5h6l.26,0a.47.47,0,0,1,.4.52.48.48,0,0,1-.52.42H12.21Z" transform="translate(-0.1 -0.1)"/></svg>