<svg id="Layer_1" data-name="Layer 1" xmlns="http://www.w3.org/2000/svg" viewBox="0 0 23.26 24.16"><defs><style>.cls-1{fill:#5f5f5f;stroke:#5f5f5f;stroke-miterlimit:10;stroke-width:0.3px;}</style></defs><path class="cls-1" d="M5.67,21.09V19.24c0-.28-.11-.38-.4-.39H3.19c-.32,0-.43.11-.43.41v3.65c0,.18.05.25.25.25q1.2,0,2.4,0c.2,0,.26-.07.26-.25C5.66,22.3,5.67,21.7,5.67,21.09Zm4.59-1.9c0,1.23,0,2.46,0,3.68,0,.21.05.29.29.29.78,0,1.57,0,2.36,0,.2,0,.27-.05.27-.25,0-2.45,0-4.89,0-7.34,0-.36-.11-.47-.49-.47H10.77c-.43,0-.51.07-.51.48ZM20.65,16V9.09c0-.33-.08-.42-.42-.42H18.17c-.33,0-.42.09-.42.4,0,4.61,0,9.22,0,13.83,0,.2.06.26.27.26h2.27c.37,0,.37,0,.37-.34ZM.48,24.06a1,1,0,0,1-.15-.14.41.41,0,0,1-.09-.48.45.45,0,0,1,.42-.28,7.48,7.48,0,0,1,.82,0c.22,0,.27-.07.27-.26V19.33a1.29,1.29,0,0,1,.46-1.11A1.34,1.34,0,0,1,3,17.93H5.3a1.27,1.27,0,0,1,1.38,1.3v3.62c0,.3,0,.3.32.3H8.94c.31,0,.31,0,.31-.29,0-2.46,0-4.92,0-7.39A1.23,1.23,0,0,1,10,14.28a1.28,1.28,0,0,1,.55-.1h2.25a1.23,1.23,0,0,1,1.34,1.27c0,2.46,0,4.91,0,7.37,0,.33,0,.33.36.33h1.89c.32,0,.32,0,.32-.31q0-6.8,0-13.61a2.17,2.17,0,0,1,0-.36A1.19,1.19,0,0,1,18,7.74a16.05,16.05,0,0,1,2.5,0A1.23,1.23,0,0,1,21.66,9a2.44,2.44,0,0,1,0,.27v13.5c0,.37,0,.37.4.37.18,0,.36,0,.54,0a.49.49,0,0,1,.51.29A.44.44,0,0,1,23,24l-.06.06Z" transform="translate(-0.05 -0.05)"/><path class="cls-1" d="M19.93,1.12H18.29a.47.47,0,0,1-.52-.39.44.44,0,0,1,.44-.52h3a.4.4,0,0,1,.44.38,22.44,22.44,0,0,1,0,2.72.46.46,0,0,1-.51.4.48.48,0,0,1-.47-.48c0-.34,0-.68,0-1V1.88c-.12,0-.17.1-.23.15l-4.55,4.3c-.42.39-.63.39-1,0L13.47,5.05c-.22-.21-.23-.21-.44,0L5.27,12.37a1.78,1.78,0,0,1-.26.22.53.53,0,0,1-.63-.08.44.44,0,0,1,0-.58l.19-.2L12.76,4c.37-.35.61-.35,1,0s1,.91,1.46,1.38c.1.1.17.11.28,0l4.35-4.1Z" transform="translate(-0.05 -0.05)"/></svg>