<svg width="23" height="22" viewBox="0 0 23 22" fill="none" xmlns="http://www.w3.org/2000/svg">
<path d="M9.45969 21.6428C8.57242 21.4211 8.13451 20.8517 8.0279 20.0147C7.98893 19.707 7.93505 19.3988 7.85882 19.0977C7.68916 18.4261 6.95493 18.0373 6.2568 18.2493C5.88252 18.3628 5.51856 18.5077 5.14772 18.6332C4.23179 18.943 3.41445 18.6678 2.92324 17.874C2.33058 16.917 1.74365 15.9572 1.16131 14.9947C0.723405 14.2702 0.887905 13.4261 1.5631 12.8881C1.83708 12.6702 2.11679 12.4593 2.39305 12.2441C3.11296 11.6834 3.1141 10.8382 2.39535 10.2781C2.12481 10.0672 1.85141 9.85901 1.58144 9.64759C0.88504 9.10147 0.719393 8.25147 1.16991 7.51015C1.75053 6.55471 2.33918 5.60305 2.91923 4.64761C3.22473 4.14474 3.67123 3.84627 4.28337 3.76678C4.54646 3.73272 4.79808 3.77435 5.04283 3.85546C5.3873 3.96955 5.72834 4.09337 6.06995 4.21449C6.97785 4.53622 7.74762 4.11338 7.90467 3.20714C7.96027 2.88758 8.01759 2.56802 8.0749 2.24846C8.22106 1.43198 8.9232 0.867472 9.80244 0.865309C11.0061 0.862605 12.2098 0.862605 13.4134 0.865309C14.2927 0.866931 14.9937 1.4309 15.1404 2.249C15.2011 2.58857 15.2608 2.92813 15.3181 3.26824C15.4539 4.07175 16.2237 4.51189 17.0439 4.24694C17.3895 4.13555 17.7271 4.00362 18.071 3.88736C18.9858 3.57753 19.8037 3.85492 20.2943 4.64869C20.8864 5.60575 21.4739 6.56552 22.0557 7.52799C22.493 8.25147 22.3262 9.09661 21.6505 9.63408C21.3765 9.85198 21.0968 10.0629 20.8205 10.2775C20.1012 10.8372 20.1023 11.6834 20.8222 12.243C21.0876 12.4496 21.3541 12.6545 21.6195 12.8605C22.3171 13.4023 22.5051 14.2312 22.0637 14.9747C21.4688 15.9767 20.8589 16.9716 20.2353 17.9578C19.7917 18.6597 18.972 18.923 18.1507 18.657C17.8188 18.5494 17.4881 18.438 17.1643 18.3109C16.2139 17.9378 15.3806 18.5213 15.3066 19.3134C15.2762 19.6351 15.2052 19.9541 15.1392 20.2721C14.9879 21.0037 14.5139 21.4503 13.7573 21.6412C12.3255 21.6428 10.8926 21.6428 9.45969 21.6428ZM4.70408 11.2335C4.68689 11.9327 4.47309 12.542 4.01456 13.0703C3.68384 13.451 3.25224 13.723 2.85904 14.036C2.74212 14.129 2.71002 14.2031 2.79599 14.3415C3.32962 15.1975 3.85579 16.0578 4.37508 16.9218C4.45762 17.0592 4.53672 17.0786 4.68173 17.0229C4.97978 16.9078 5.28299 16.8045 5.58562 16.6996C7.29998 16.107 9.16565 17.0484 9.58521 18.7251C9.67061 19.0658 9.72105 19.4151 9.77436 19.7622C9.80072 19.9363 9.86263 20.0136 10.0718 20.0115C11.0961 20.0001 12.1203 20.0001 13.1446 20.0115C13.3527 20.0136 13.4169 19.9385 13.4432 19.7638C13.4931 19.4297 13.5458 19.095 13.6221 18.7657C13.9608 17.2971 15.4551 16.333 17.029 16.5552C17.5672 16.6315 18.0504 16.8618 18.5553 17.0289C18.6855 17.0721 18.7565 17.0619 18.8305 16.9397C19.3584 16.0648 19.8926 15.1932 20.4313 14.3242C20.5059 14.2037 20.4829 14.1312 20.3763 14.0501C20.1081 13.8473 19.8433 13.6408 19.5802 13.4315C18.3307 12.4377 18.1599 10.656 19.1956 9.45942C19.5257 9.07822 19.9579 8.80678 20.3494 8.49209C20.4577 8.40503 20.5208 8.3369 20.4285 8.18983C19.8868 7.32252 19.3549 6.44981 18.8259 5.57547C18.7577 5.46246 18.69 5.443 18.568 5.48842C18.2619 5.60305 17.9535 5.71173 17.6434 5.81717C16.0466 6.36113 14.3357 5.62576 13.7396 4.13609C13.5607 3.69 13.5235 3.21471 13.4415 2.7497C13.4134 2.58911 13.3613 2.50746 13.1578 2.51016C12.1267 2.52152 11.0949 2.52098 10.0632 2.51016C9.86263 2.508 9.80302 2.5837 9.77722 2.74754C9.72449 3.08116 9.67348 3.41586 9.59782 3.74569C9.25793 5.2332 7.75164 6.20108 6.15765 5.961C5.63606 5.8826 5.16319 5.66361 4.67256 5.49491C4.53442 5.44732 4.45934 5.46084 4.38139 5.59061C3.85751 6.46008 3.32732 7.32576 2.79141 8.1882C2.71174 8.31689 2.73638 8.39205 2.85045 8.47749C3.1141 8.67485 3.37375 8.87708 3.62996 9.08309C4.33725 9.65354 4.67313 10.3868 4.70408 11.2335Z" fill="#5F5F5F"/>
<path d="M11.5917 15.3073C9.24716 15.303 7.32887 13.469 7.33289 11.2354C7.33691 9.01309 9.27244 7.19389 11.6279 7.19825C13.9737 7.20261 15.8908 9.03543 15.8862 11.2697C15.8816 13.493 13.9478 15.3117 11.5917 15.3073ZM11.6073 13.6172C12.9976 13.6177 14.0995 12.5796 14.1035 11.2653C14.1075 9.93631 13.0102 8.88945 11.6118 8.88836C10.2215 8.88782 9.11905 9.92596 9.1156 11.2403C9.11158 12.5693 10.2095 13.6167 11.6073 13.6172Z" fill="#5F5F5F"/>
</svg>
