<svg width="28" height="33" viewBox="0 0 28 33" fill="none" xmlns="http://www.w3.org/2000/svg">
<path d="M24.4933 7.02327C24.4715 6.86465 24.3327 6.77697 24.2179 6.76735C24.1033 6.75772 21.6789 6.57806 21.6789 6.57806C21.6789 6.57806 19.9951 4.90644 19.8104 4.72147C19.6254 4.53649 19.2643 4.59275 19.1242 4.63405C19.1034 4.64013 18.7563 4.74731 18.1818 4.92494C17.6193 3.30653 16.6268 1.81913 14.8804 1.81913C14.8323 1.81913 14.7826 1.82116 14.7329 1.82394C14.2363 1.16715 13.6211 0.881836 13.0897 0.881836C9.02176 0.881836 7.07826 5.96714 6.46885 8.55147C4.8882 9.04128 3.76517 9.38943 3.62175 9.43454C2.73944 9.71124 2.71157 9.73911 2.59577 10.5705C2.50835 11.1999 0.199707 29.0538 0.199707 29.0538L18.1892 32.4244L27.9366 30.3157C27.9366 30.3157 24.5148 7.18189 24.4933 7.02327ZM17.1875 5.23256C16.7357 5.37243 16.2221 5.53131 15.6654 5.70361C15.6659 5.59643 15.6664 5.49076 15.6664 5.37547C15.6664 4.36951 15.5268 3.55967 15.3028 2.91758C16.2026 3.03059 16.8019 4.05429 17.1875 5.23256ZM14.1866 3.117C14.4367 3.74389 14.5994 4.64342 14.5994 5.85742C14.5994 5.9195 14.5989 5.97626 14.5984 6.03378C13.6084 6.34038 12.5327 6.67334 11.4546 7.00731C12.0599 4.67104 13.1946 3.54269 14.1866 3.117ZM12.978 1.97294C13.1536 1.97294 13.3304 2.03248 13.4997 2.14904C12.196 2.7625 10.7985 4.30768 10.2084 7.39322C9.34585 7.6603 8.50282 7.92129 7.72339 8.16277C8.41464 5.80927 10.0561 1.97294 12.978 1.97294Z" fill="#95BF46"/>
<path d="M24.2176 6.76776C24.1031 6.75814 21.6786 6.57848 21.6786 6.57848C21.6786 6.57848 19.9948 4.90686 19.8101 4.72189C19.7409 4.65296 19.6477 4.61774 19.5501 4.60254L18.1899 32.4246L27.9364 30.3161C27.9364 30.3161 24.5146 7.18231 24.493 7.02369C24.4712 6.86507 24.3324 6.77739 24.2176 6.76776Z" fill="#5E8E3E"/>
<path d="M14.8806 12.1527L13.6788 15.7278C13.6788 15.7278 12.6257 15.1658 11.3349 15.1658C9.44259 15.1658 9.34731 16.3534 9.34731 16.6527C9.34731 18.2855 13.6038 18.9111 13.6038 22.7358C13.6038 25.7448 11.6952 27.6825 9.1218 27.6825C6.03372 27.6825 4.45459 25.7605 4.45459 25.7605L5.2814 23.0287C5.2814 23.0287 6.90463 24.4224 8.27446 24.4224C9.16943 24.4224 9.53356 23.7177 9.53356 23.2028C9.53356 21.0728 6.04158 20.9778 6.04158 17.478C6.04158 14.5323 8.15587 11.6816 12.4237 11.6816C14.0682 11.6816 14.8806 12.1527 14.8806 12.1527Z" fill="white"/>
</svg>
