<svg width="11" height="11" viewBox="0 0 11 11" fill="none" xmlns="http://www.w3.org/2000/svg">
<path fill-rule="evenodd" clip-rule="evenodd" d="M10.5291 0.538724C10.8678 0.88971 10.8579 1.44881 10.5069 1.7875L6.69376 5.46706L10.3733 9.28017C10.712 9.63116 10.7021 10.1903 10.3511 10.5289C10.0001 10.8676 9.44098 10.8577 9.10229 10.5067L5.42273 6.69358L1.60962 10.3731C1.25864 10.7118 0.69954 10.7019 0.360845 10.3509C0.0221511 9.99989 0.0321158 9.4408 0.383102 9.1021L4.1962 5.42255L0.51665 1.60945C0.177956 1.25846 0.187921 0.699364 0.538907 0.36067C0.889894 0.021976 1.44899 0.0319411 1.78769 0.382928L5.46724 4.19603L9.28034 0.516466C9.63133 0.177772 10.1904 0.187737 10.5291 0.538724Z" fill="#717171" stroke="#717171" stroke-width="0.2" stroke-linecap="round" stroke-linejoin="round"/>
</svg>
