<svg width="435" height="289" viewBox="0 0 435 289" fill="none" xmlns="http://www.w3.org/2000/svg">
<path d="M330.855 95.8096H119.262V102.095H330.855V95.8096Z" fill="url(#paint0_linear_2865_8359)"/>
<path d="M330.854 45.6797H121.351V51.4492H330.854V45.6797Z" fill="url(#paint1_linear_2865_8359)"/>
<path d="M332.647 216.117H326.016V4.24569C326.016 1.90168 327.917 0 330.261 0H332.647V216.117Z" fill="#7D7AB9"/>
<path d="M124.907 217.642H117.586V0.901367H120.277C122.833 0.901367 124.907 2.97371 124.907 5.53192V217.642Z" fill="url(#paint2_linear_2865_8359)"/>
<path d="M161.436 45.5533C163.533 45.6038 165.255 43.4444 165.255 40.7608V19.4314C165.255 16.6293 163.494 14.348 161.304 14.3184C154.73 14.2261 141.169 14.2226 130.074 15.419C128.561 15.5827 127.382 17.1692 127.328 19.1127L126.292 39.7333C126.215 42.4605 127.901 44.7401 130.034 44.7923L161.436 45.5533Z" fill="url(#paint3_linear_2865_8359)"/>
<path opacity="0.76" d="M162.477 21.7384C162.513 23.553 162.459 26.4334 162.414 28.2933C162.391 29.2616 161.542 29.9982 160.58 29.8868L153.66 29.0752C152.738 28.9673 152.089 28.1174 152.226 27.1997L153.076 21.533C153.196 20.7284 153.888 20.1328 154.701 20.1328H160.834C161.728 20.1328 162.459 20.8451 162.477 21.7384Z" fill="white"/>
<path opacity="0.37" d="M144.393 32.4782L138.62 33.1017C137.812 33.1887 137.122 32.5217 137.181 31.712L138.444 14.5376C140.864 14.461 143.252 14.4053 145.554 14.3652V31.1843C145.554 31.8478 145.053 32.4068 144.393 32.4782Z" fill="white"/>
<path d="M142.026 29.5018C142.008 29.81 141.752 30.0486 141.446 30.0486C141.434 30.0486 141.423 30.0486 141.411 30.0468C141.091 30.0277 140.847 29.7543 140.864 29.4339L141.735 14.4451C142.125 14.4346 142.513 14.4259 142.9 14.4189L142.026 29.5018Z" fill="white"/>
<path d="M159.28 27.1503C159.381 27.1503 159.466 27.072 159.473 26.9692L159.772 22.2481C159.779 22.1419 159.698 22.0496 159.591 22.0426C159.48 22.0339 159.393 22.1175 159.386 22.2237L159.086 26.9448C159.079 27.0511 159.161 27.1434 159.267 27.1503C159.271 27.1503 159.276 27.1503 159.28 27.1503Z" fill="#4E4E4E"/>
<path d="M158.662 27.1516C158.767 27.1516 158.852 27.0698 158.855 26.9653L159.012 22.1536C159.016 22.0474 158.932 21.9568 158.826 21.9534C158.702 21.9481 158.629 22.0335 158.626 22.1397L158.469 26.9514C158.465 27.0576 158.549 27.1481 158.655 27.1516C158.655 27.1516 158.66 27.1516 158.662 27.1516Z" fill="#4E4E4E"/>
<path d="M157.825 27.1514C157.719 27.1462 157.636 27.0556 157.641 26.9494C157.717 25.3333 157.864 22.2492 157.865 22.1447C157.865 22.0385 157.953 21.9531 158.059 21.9531C158.165 21.9531 158.252 22.0402 158.252 22.1464C158.252 22.2265 158.064 26.1762 158.026 26.9668C158.02 27.0713 157.935 27.1514 157.832 27.1514C157.832 27.1514 157.829 27.1514 157.825 27.1514ZM157.864 22.1464H157.867H157.864Z" fill="#4E4E4E"/>
<path d="M156.545 27.3444C156.752 27.3444 156.925 27.1807 156.932 26.97C157.095 22.3081 157.067 22.2036 157.048 22.1339C156.993 21.9267 156.778 21.8065 156.573 21.8623C156.383 21.9145 156.265 22.0973 156.291 22.2872C156.303 22.5675 156.216 25.279 156.158 26.9438C156.151 27.158 156.319 27.3374 156.531 27.3444C156.536 27.3444 156.542 27.3444 156.545 27.3444Z" fill="#4E4E4E"/>
<path d="M155.709 27.1497C155.815 27.1497 155.902 27.0626 155.902 26.9564V22.2353C155.902 22.1291 155.815 22.042 155.709 22.042C155.603 22.042 155.516 22.1291 155.516 22.2353V26.9564C155.516 27.0626 155.601 27.1497 155.709 27.1497Z" fill="#4E4E4E"/>
<path d="M155.03 27.1501C155.135 27.1501 155.222 27.0665 155.224 26.9603C155.26 25.3199 155.347 22.6397 155.426 22.3176C155.46 22.2566 155.459 22.18 155.419 22.1173C155.359 22.0267 155.241 22.0024 155.15 22.0616C155.044 22.1312 154.945 22.1957 154.837 26.9516C154.835 27.0578 154.919 27.1466 155.027 27.1501H155.03Z" fill="url(#paint4_linear_2865_8359)"/>
<path d="M160.32 27.5814C160.524 27.5814 160.697 27.4212 160.707 27.2139L160.965 22.256C160.975 22.0418 160.812 21.8607 160.597 21.8485C160.395 21.8345 160.202 22.0017 160.19 22.2159L159.932 27.1739C159.922 27.3881 160.085 27.5692 160.3 27.5814C160.307 27.5814 160.313 27.5814 160.32 27.5814Z" fill="url(#paint5_linear_2865_8359)"/>
<path d="M213.508 45.5533C215.605 45.6038 217.327 43.4444 217.327 40.7608V19.4314C217.327 16.6293 215.567 14.348 213.376 14.3184C206.802 14.2261 193.241 14.2226 182.146 15.419C180.633 15.5827 179.454 17.1692 179.4 19.1127L178.364 39.7333C178.287 42.4605 179.973 44.7401 182.106 44.7923L213.508 45.5533Z" fill="url(#paint6_linear_2865_8359)"/>
<path opacity="0.76" d="M214.549 21.7414C214.586 23.556 214.532 26.4364 214.486 28.2962C214.464 29.2645 213.614 30.0011 212.652 29.8897L205.732 29.0782C204.811 28.9702 204.161 28.1204 204.299 27.2026L205.149 21.5359C205.269 20.7313 205.96 20.1357 206.773 20.1357H212.907C213.8 20.1357 214.532 20.848 214.549 21.7414Z" fill="white"/>
<path opacity="0.37" d="M196.465 32.4782L190.692 33.1017C189.884 33.1887 189.194 32.5217 189.254 31.712L190.516 14.5376C192.937 14.461 195.324 14.4053 197.627 14.3652V31.1843C197.627 31.8478 197.125 32.4068 196.465 32.4782Z" fill="white"/>
<path d="M194.098 29.5018C194.081 29.81 193.825 30.0486 193.518 30.0486C193.506 30.0486 193.495 30.0486 193.483 30.0468C193.163 30.0277 192.919 29.7543 192.936 29.4339L193.807 14.4451C194.197 14.4346 194.586 14.4259 194.972 14.4189L194.098 29.5018Z" fill="white"/>
<path d="M211.351 27.1503C211.452 27.1503 211.537 27.072 211.544 26.9692L211.844 22.2481C211.851 22.1419 211.769 22.0496 211.663 22.0426C211.551 22.0339 211.464 22.1175 211.457 22.2237L211.158 26.9448C211.151 27.0511 211.233 27.1434 211.339 27.1503C211.342 27.1503 211.347 27.1503 211.351 27.1503Z" fill="#4E4E4E"/>
<path d="M210.733 27.1516C210.838 27.1516 210.923 27.0698 210.927 26.9653L211.083 22.1536C211.087 22.0474 211.003 21.9568 210.897 21.9534C210.773 21.9481 210.7 22.0335 210.697 22.1397L210.54 26.9514C210.537 27.0576 210.62 27.1481 210.726 27.1516C210.726 27.1516 210.732 27.1516 210.733 27.1516Z" fill="#4E4E4E"/>
<path d="M209.897 27.1514C209.791 27.1462 209.707 27.0556 209.712 26.9494C209.789 25.3333 209.935 22.2492 209.937 22.1447C209.937 22.0385 210.024 21.9531 210.13 21.9531C210.236 21.9531 210.323 22.0402 210.323 22.1464C210.323 22.2265 210.135 26.1762 210.097 26.9668C210.092 27.0713 210.006 27.1514 209.904 27.1514C209.904 27.1514 209.9 27.1514 209.897 27.1514ZM209.935 22.1464H209.939H209.935Z" fill="#4E4E4E"/>
<path d="M208.616 27.3444C208.824 27.3444 208.996 27.1807 209.003 26.97C209.167 22.3081 209.139 22.2036 209.12 22.1339C209.064 21.9267 208.85 21.8065 208.644 21.8623C208.454 21.9145 208.336 22.0973 208.362 22.2872C208.374 22.5675 208.287 25.279 208.23 26.9438C208.223 27.158 208.39 27.3374 208.602 27.3444C208.608 27.3444 208.613 27.3444 208.616 27.3444Z" fill="#4E4E4E"/>
<path d="M207.78 27.1497C207.886 27.1497 207.974 27.0626 207.974 26.9564V22.2353C207.974 22.1291 207.886 22.042 207.78 22.042C207.674 22.042 207.587 22.1291 207.587 22.2353V26.9564C207.587 27.0626 207.672 27.1497 207.78 27.1497Z" fill="#4E4E4E"/>
<path d="M207.102 27.1501C207.206 27.1501 207.293 27.0665 207.295 26.9603C207.331 25.3199 207.418 22.6397 207.497 22.3176C207.532 22.2566 207.53 22.18 207.49 22.1173C207.431 22.0267 207.312 22.0024 207.222 22.0616C207.115 22.1312 207.016 22.1957 206.908 26.9516C206.906 27.0578 206.99 27.1466 207.098 27.1501H207.102Z" fill="url(#paint7_linear_2865_8359)"/>
<path d="M212.392 27.5814C212.595 27.5814 212.768 27.4212 212.778 27.2139L213.036 22.256C213.047 22.0418 212.883 21.8607 212.669 21.8485C212.467 21.8345 212.273 22.0017 212.261 22.2159L212.003 27.1739C211.993 27.3881 212.157 27.5692 212.371 27.5814C212.378 27.5814 212.385 27.5814 212.392 27.5814Z" fill="url(#paint8_linear_2865_8359)"/>
<path d="M264.356 45.5533C266.453 45.6038 268.175 43.4444 268.175 40.7608V19.4314C268.175 16.6293 266.414 14.348 264.224 14.3184C257.65 14.2261 244.089 14.2226 232.994 15.419C231.481 15.5827 230.302 17.1692 230.248 19.1127L229.211 39.7333C229.135 42.4605 230.821 44.7401 232.954 44.7923L264.356 45.5533Z" fill="url(#paint9_linear_2865_8359)"/>
<path opacity="0.76" d="M265.397 21.7414C265.433 23.556 265.379 26.4364 265.334 28.2962C265.311 29.2645 264.461 30.0011 263.5 29.8897L256.58 29.0782C255.658 28.9702 255.009 28.1204 255.146 27.2026L255.996 21.5359C256.116 20.7313 256.808 20.1357 257.621 20.1357H263.754C264.648 20.1357 265.379 20.848 265.397 21.7414Z" fill="white"/>
<path opacity="0.37" d="M247.313 32.4782L241.54 33.1017C240.732 33.1887 240.042 32.5217 240.101 31.712L241.364 14.5376C243.784 14.461 246.172 14.4053 248.474 14.3652V31.1843C248.474 31.8478 247.973 32.4068 247.313 32.4782Z" fill="white"/>
<path d="M244.946 29.5018C244.928 29.81 244.672 30.0486 244.366 30.0486C244.354 30.0486 244.343 30.0486 244.331 30.0468C244.01 30.0277 243.767 29.7543 243.784 29.4339L244.655 14.4451C245.045 14.4346 245.433 14.4259 245.82 14.4189L244.946 29.5018Z" fill="white"/>
<path d="M262.199 27.1503C262.3 27.1503 262.385 27.072 262.392 26.9692L262.691 22.2481C262.698 22.1419 262.617 22.0496 262.51 22.0426C262.399 22.0339 262.312 22.1175 262.305 22.2237L262.005 26.9448C261.998 27.0511 262.08 27.1434 262.186 27.1503C262.19 27.1503 262.195 27.1503 262.199 27.1503Z" fill="#4E4E4E"/>
<path d="M261.581 27.1516C261.686 27.1516 261.771 27.0698 261.774 26.9653L261.931 22.1536C261.935 22.0474 261.851 21.9568 261.745 21.9534C261.621 21.9481 261.548 22.0335 261.545 22.1397L261.388 26.9514C261.384 27.0576 261.468 27.1481 261.574 27.1516C261.574 27.1516 261.579 27.1516 261.581 27.1516Z" fill="#4E4E4E"/>
<path d="M260.745 27.1514C260.639 27.1462 260.556 27.0556 260.561 26.9494C260.637 25.3333 260.784 22.2492 260.785 22.1447C260.785 22.0385 260.873 21.9531 260.979 21.9531C261.085 21.9531 261.172 22.0402 261.172 22.1464C261.172 22.2265 260.984 26.1762 260.946 26.9668C260.94 27.0713 260.855 27.1514 260.752 27.1514C260.752 27.1514 260.749 27.1514 260.745 27.1514ZM260.784 22.1464H260.787H260.784Z" fill="#4E4E4E"/>
<path d="M259.464 27.3444C259.671 27.3444 259.844 27.1807 259.851 26.97C260.014 22.3081 259.986 22.2036 259.967 22.1339C259.912 21.9267 259.697 21.8065 259.492 21.8623C259.302 21.9145 259.184 22.0973 259.21 22.2872C259.222 22.5675 259.135 25.279 259.077 26.9438C259.07 27.158 259.238 27.3374 259.45 27.3444C259.455 27.3444 259.46 27.3444 259.464 27.3444Z" fill="#4E4E4E"/>
<path d="M258.628 27.1497C258.734 27.1497 258.821 27.0626 258.821 26.9564V22.2353C258.821 22.1291 258.734 22.042 258.628 22.042C258.522 22.042 258.435 22.1291 258.435 22.2353V26.9564C258.435 27.0626 258.52 27.1497 258.628 27.1497Z" fill="#4E4E4E"/>
<path d="M257.949 27.1501C258.054 27.1501 258.141 27.0665 258.142 26.9603C258.179 25.3199 258.266 22.6397 258.345 22.3176C258.379 22.2566 258.378 22.18 258.338 22.1173C258.278 22.0267 258.16 22.0024 258.069 22.0616C257.963 22.1312 257.864 22.1957 257.756 26.9516C257.754 27.0578 257.838 27.1466 257.946 27.1501H257.949Z" fill="url(#paint10_linear_2865_8359)"/>
<path d="M263.239 27.5814C263.443 27.5814 263.616 27.4212 263.626 27.2139L263.884 22.256C263.894 22.0418 263.73 21.8607 263.516 21.8485C263.314 21.8345 263.121 22.0017 263.109 22.2159L262.851 27.1739C262.841 27.3881 263.004 27.5692 263.219 27.5814C263.225 27.5814 263.232 27.5814 263.239 27.5814Z" fill="url(#paint11_linear_2865_8359)"/>
<path d="M317.299 45.7262C319.396 45.7767 321.118 43.6173 321.118 40.9337V19.6042C321.118 16.8022 319.358 14.5209 317.167 14.4913C310.593 14.399 297.032 14.3955 285.937 15.5919C284.424 15.7556 283.245 17.342 283.191 19.2855L282.155 39.9062C282.078 42.6333 283.764 44.9129 285.897 44.9652L317.299 45.7262Z" fill="url(#paint12_linear_2865_8359)"/>
<path opacity="0.76" d="M318.341 21.9142C318.378 23.7288 318.324 26.6092 318.278 28.4691C318.256 29.4373 317.406 30.174 316.444 30.0625L309.524 29.251C308.603 29.143 307.953 28.2932 308.091 27.3755L308.94 21.7087C309.061 20.9042 309.752 20.3086 310.565 20.3086H316.699C317.592 20.3086 318.324 21.0209 318.341 21.9142Z" fill="white"/>
<path opacity="0.37" d="M300.255 32.6511L294.482 33.2745C293.674 33.3616 292.984 32.6946 293.044 31.8848L294.306 14.7105C296.727 14.6339 299.114 14.5781 301.417 14.5381V31.3571C301.417 32.0206 300.915 32.5797 300.255 32.6511Z" fill="white"/>
<path d="M297.889 29.6746C297.872 29.9829 297.616 30.2214 297.309 30.2214C297.297 30.2214 297.286 30.2214 297.274 30.2197C296.954 30.2005 296.71 29.9271 296.727 29.6067L297.598 14.6179C297.988 14.6075 298.377 14.5988 298.763 14.5918L297.889 29.6746Z" fill="white"/>
<path d="M315.143 27.3232C315.244 27.3232 315.329 27.2448 315.336 27.1421L315.636 22.421C315.643 22.3147 315.561 22.2224 315.455 22.2155C315.343 22.2068 315.256 22.2904 315.249 22.3966L314.95 27.1177C314.943 27.2239 315.025 27.3162 315.131 27.3232C315.134 27.3232 315.139 27.3232 315.143 27.3232Z" fill="#4E4E4E"/>
<path d="M314.525 27.3245C314.63 27.3245 314.715 27.2426 314.719 27.1381L314.875 22.3265C314.879 22.2202 314.795 22.1297 314.689 22.1262C314.565 22.121 314.492 22.2063 314.489 22.3125L314.332 27.1242C314.329 27.2304 314.412 27.321 314.518 27.3245C314.518 27.3245 314.524 27.3245 314.525 27.3245Z" fill="#4E4E4E"/>
<path d="M313.688 27.3242C313.582 27.319 313.498 27.2285 313.503 27.1222C313.58 25.5062 313.726 22.422 313.728 22.3175C313.728 22.2113 313.815 22.126 313.921 22.126C314.027 22.126 314.114 22.213 314.114 22.3193C314.114 22.3994 313.926 26.349 313.888 27.1397C313.883 27.2441 313.797 27.3242 313.695 27.3242C313.695 27.3242 313.691 27.3242 313.688 27.3242ZM313.726 22.3193H313.73H313.726Z" fill="#4E4E4E"/>
<path d="M312.407 27.5172C312.615 27.5172 312.787 27.3535 312.794 27.1428C312.958 22.4809 312.93 22.3764 312.911 22.3068C312.855 22.0995 312.641 21.9794 312.435 22.0351C312.245 22.0873 312.127 22.2702 312.153 22.46C312.165 22.7404 312.078 25.4519 312.021 27.1167C312.014 27.3309 312.181 27.5103 312.393 27.5172C312.399 27.5172 312.404 27.5172 312.407 27.5172Z" fill="#4E4E4E"/>
<path d="M311.571 27.3226C311.677 27.3226 311.765 27.2355 311.765 27.1293V22.4081C311.765 22.3019 311.677 22.2148 311.571 22.2148C311.465 22.2148 311.378 22.3019 311.378 22.4081V27.1293C311.378 27.2355 311.463 27.3226 311.571 27.3226Z" fill="#4E4E4E"/>
<path d="M310.893 27.323C310.997 27.323 311.084 27.2394 311.086 27.1332C311.122 25.4927 311.209 22.8126 311.288 22.4904C311.323 22.4295 311.321 22.3528 311.281 22.2901C311.222 22.1996 311.103 22.1752 311.013 22.2344C310.906 22.3041 310.807 22.3685 310.699 27.1245C310.698 27.2307 310.781 27.3195 310.889 27.323H310.893Z" fill="url(#paint13_linear_2865_8359)"/>
<path d="M316.183 27.7542C316.387 27.7542 316.559 27.594 316.569 27.3868L316.827 22.4288C316.838 22.2146 316.674 22.0335 316.46 22.0213C316.258 22.0074 316.064 22.1746 316.052 22.3888L315.794 27.3467C315.784 27.5609 315.948 27.742 316.162 27.7542C316.169 27.7542 316.176 27.7542 316.183 27.7542Z" fill="url(#paint14_linear_2865_8359)"/>
<path d="M125.985 262.851L13.5327 262.396L13.4385 119.229H121.068C123.783 119.229 125.983 121.592 125.983 124.509V262.851H125.985Z" fill="url(#paint15_linear_2865_8359)"/>
<path d="M101.627 262.851L0 262.47V125.897C0 122.214 2.61618 119.229 5.844 119.229H101.627V262.851Z" fill="url(#paint16_linear_2865_8359)"/>
<path opacity="0.37" d="M50.4879 157.438L62.9346 158.781C64.6759 158.968 66.1616 157.533 66.0343 155.785L63.3137 118.761C58.096 118.595 52.9502 118.474 47.9844 118.39V154.646C47.9818 156.082 49.0626 157.285 50.4879 157.438Z" fill="white"/>
<path d="M55.5881 151.021C55.6266 151.687 56.178 152.201 56.8373 152.201C56.8617 152.201 56.8861 152.2 56.9105 152.199C57.6006 152.159 58.1275 151.566 58.0877 150.876L56.2114 118.564C55.3696 118.543 54.5355 118.524 53.7002 118.506L55.5881 151.021Z" fill="white"/>
<path opacity="0.88" d="M103.327 128.344C103.255 132 103.363 137.8 103.453 141.548C103.499 143.497 105.211 144.983 107.148 144.757L121.089 143.123C122.946 142.906 124.255 141.194 123.978 139.345L122.267 127.929C122.024 126.308 120.632 125.109 118.992 125.109H106.636C104.836 125.108 103.362 126.544 103.327 128.344Z" fill="white"/>
<path d="M107.543 142.733C107.407 142.739 107.287 142.64 107.272 142.503L106.551 136.188C106.534 136.045 106.637 135.916 106.779 135.9C106.93 135.88 107.051 135.986 107.067 136.128L107.788 142.444C107.805 142.586 107.702 142.715 107.559 142.732C107.554 142.733 107.548 142.733 107.543 142.733Z" fill="#4E4E4E"/>
<path d="M108.372 142.692C108.232 142.698 108.111 142.594 108.099 142.454L107.563 136.008C107.552 135.864 107.658 135.738 107.801 135.726C107.966 135.71 108.07 135.821 108.083 135.964L108.618 142.41C108.63 142.554 108.523 142.68 108.381 142.692C108.381 142.691 108.374 142.692 108.372 142.692Z" fill="#4E4E4E"/>
<path d="M109.479 142.636C109.342 142.642 109.221 142.541 109.208 142.401C109.104 141.342 108.584 136.053 108.579 135.947C108.571 135.803 108.681 135.681 108.825 135.674C108.968 135.667 109.09 135.776 109.098 135.918C109.108 136.06 109.513 140.186 109.725 142.351C109.739 142.493 109.635 142.62 109.491 142.635C109.487 142.636 109.483 142.636 109.479 142.636ZM109.098 135.921H109.103H109.098Z" fill="#4E4E4E"/>
<path d="M111.224 142.808C110.946 142.822 110.704 142.612 110.681 142.332C110.145 136.086 110.177 135.944 110.198 135.85C110.259 135.568 110.538 135.391 110.817 135.453C111.075 135.509 111.246 135.748 111.224 136.004C111.227 136.381 111.526 140.015 111.717 142.243C111.741 142.53 111.529 142.782 111.242 142.806C111.236 142.808 111.23 142.808 111.224 142.808Z" fill="#4E4E4E"/>
<path d="M112.339 142.492C112.195 142.5 112.073 142.389 112.066 142.245L111.746 135.91C111.739 135.766 111.849 135.644 111.993 135.637C112.137 135.629 112.259 135.74 112.266 135.884L112.586 142.22C112.592 142.362 112.482 142.484 112.339 142.492Z" fill="#4E4E4E"/>
<path d="M113.248 142.445C113.107 142.453 112.986 142.345 112.976 142.205C112.815 140.006 112.517 136.415 112.391 135.989C112.341 135.909 112.337 135.806 112.387 135.719C112.459 135.594 112.619 135.553 112.743 135.626C112.89 135.712 113.029 135.793 113.495 142.166C113.505 142.31 113.397 142.434 113.255 142.445H113.248Z" fill="#4E4E4E"/>
<path d="M106.175 143.383C105.9 143.397 105.66 143.193 105.632 142.916L104.949 136.281C104.92 135.996 105.128 135.74 105.414 135.71C105.685 135.677 105.955 135.889 105.985 136.176L106.667 142.811C106.697 143.098 106.489 143.352 106.203 143.382C106.193 143.382 106.184 143.383 106.175 143.383Z" fill="#4E4E4E"/>
<path d="M116.398 141.882C116.262 141.889 116.142 141.79 116.127 141.652L115.406 135.337C115.389 135.194 115.492 135.066 115.635 135.049C115.785 135.03 115.906 135.135 115.923 135.278L116.644 141.593C116.66 141.736 116.558 141.864 116.415 141.881C116.408 141.882 116.403 141.882 116.398 141.882Z" fill="#4E4E4E"/>
<path d="M117.227 141.841C117.087 141.848 116.966 141.744 116.955 141.603L116.419 135.157C116.407 135.013 116.514 134.887 116.657 134.876C116.821 134.859 116.925 134.971 116.938 135.113L117.474 141.56C117.485 141.704 117.379 141.83 117.236 141.841C117.235 141.841 117.23 141.841 117.227 141.841Z" fill="#4E4E4E"/>
<path d="M118.335 141.785C118.197 141.792 118.077 141.69 118.064 141.55C117.96 140.491 117.439 135.203 117.434 135.096C117.426 134.952 117.537 134.83 117.681 134.824C117.823 134.816 117.945 134.925 117.953 135.068C117.963 135.209 118.368 139.336 118.58 141.5C118.594 141.643 118.49 141.77 118.346 141.784C118.343 141.785 118.339 141.785 118.335 141.785ZM117.953 135.072H117.958H117.953Z" fill="#4E4E4E"/>
<path d="M120.08 141.958C119.801 141.972 119.559 141.763 119.536 141.482C119 135.237 119.032 135.094 119.053 135C119.115 134.719 119.394 134.541 119.672 134.603C119.931 134.66 120.102 134.899 120.08 135.154C120.082 135.531 120.382 139.165 120.572 141.394C120.597 141.68 120.384 141.932 120.098 141.957C120.091 141.957 120.085 141.957 120.08 141.958Z" fill="#4E4E4E"/>
<path d="M121.193 141.642C121.049 141.65 120.927 141.54 120.921 141.396L120.601 135.06C120.593 134.916 120.704 134.794 120.848 134.787C120.992 134.78 121.114 134.89 121.12 135.034L121.44 141.37C121.448 141.514 121.337 141.636 121.193 141.642Z" fill="#4E4E4E"/>
<path d="M122.104 141.596C121.962 141.603 121.842 141.495 121.831 141.355C121.671 139.156 121.373 135.566 121.247 135.139C121.196 135.059 121.193 134.956 121.243 134.869C121.315 134.744 121.474 134.703 121.599 134.777C121.745 134.863 121.884 134.944 122.351 141.317C122.361 141.461 122.253 141.584 122.11 141.596H122.104Z" fill="#4E4E4E"/>
<path d="M115.031 142.531C114.756 142.545 114.515 142.341 114.487 142.065L113.805 135.43C113.775 135.144 113.983 134.888 114.27 134.859C114.541 134.826 114.811 135.038 114.84 135.324L115.523 141.959C115.552 142.245 115.344 142.5 115.059 142.53C115.049 142.531 115.04 142.531 115.031 142.531Z" fill="#4E4E4E"/>
<path d="M106.301 133.836L105.525 133.892L105.162 128.993L105.937 128.937L106.301 133.836Z" fill="url(#paint17_linear_2865_8359)"/>
<path d="M109.546 131.592L108.413 131.676L108.328 130.543L109.462 130.459L109.546 131.592Z" fill="url(#paint18_linear_2865_8359)"/>
<path d="M109.682 133.462L108.548 133.545L108.465 132.412L109.598 132.328L109.682 133.462Z" fill="url(#paint19_linear_2865_8359)"/>
<path d="M107.869 132.695L106.735 132.78L106.65 131.646L107.784 131.562L107.869 132.695Z" fill="url(#paint20_linear_2865_8359)"/>
<path d="M109.865 129.816L108.731 129.901L108.646 128.767L109.78 128.683L109.865 129.816Z" fill="url(#paint21_linear_2865_8359)"/>
<path d="M117.707 131.293L116.573 131.376L116.488 130.243L117.622 130.159L117.707 131.293Z" fill="url(#paint22_linear_2865_8359)"/>
<path d="M116.517 132.256L115.383 132.339L115.3 131.206L116.433 131.122L116.517 132.256Z" fill="url(#paint23_linear_2865_8359)"/>
<path d="M117.843 133.161L116.71 133.244L116.625 132.111L117.758 132.027L117.843 133.161Z" fill="url(#paint24_linear_2865_8359)"/>
<path d="M118.024 129.517L116.89 129.602L116.807 128.469L117.94 128.384L118.024 129.517Z" fill="url(#paint25_linear_2865_8359)"/>
<path d="M116.595 130.259L115.461 130.344L115.378 129.211L116.511 129.126L116.595 130.259Z" fill="url(#paint26_linear_2865_8359)"/>
<path d="M107.472 130.128L106.338 130.211L106.255 129.078L107.388 128.994L107.472 130.128Z" fill="url(#paint27_linear_2865_8359)"/>
<path d="M107.394 129.045L106.261 129.128L106.176 127.995L107.309 127.911L107.394 129.045Z" fill="url(#paint28_linear_2865_8359)"/>
<path d="M114.653 128.099L113.519 128.184L113.435 127.051L114.568 126.966L114.653 128.099Z" fill="url(#paint29_linear_2865_8359)"/>
<path d="M111.117 131.316L109.984 131.401L109.9 130.267L111.034 130.183L111.117 131.316Z" fill="url(#paint30_linear_2865_8359)"/>
<path d="M112.423 132.359L111.29 132.443L111.205 131.309L112.339 131.226L112.423 132.359Z" fill="url(#paint31_linear_2865_8359)"/>
<path d="M113.753 133.315L112.62 133.4L112.536 132.266L113.67 132.182L113.753 133.315Z" fill="url(#paint32_linear_2865_8359)"/>
<path d="M112.767 128.344L111.633 128.429L111.55 127.296L112.683 127.211L112.767 128.344Z" fill="url(#paint33_linear_2865_8359)"/>
<path d="M113.733 129.993L112.599 130.078L112.516 128.944L113.649 128.859L113.733 129.993Z" fill="url(#paint34_linear_2865_8359)"/>
<path d="M114.866 131.038L113.733 131.121L113.649 129.988L114.783 129.904L114.866 131.038Z" fill="url(#paint35_linear_2865_8359)"/>
<path d="M119.709 132.722L118.621 132.801L118.284 128.272L119.373 128.191L119.709 132.722Z" fill="url(#paint36_linear_2865_8359)"/>
<path d="M191.078 96.1705C193.174 96.221 194.897 94.0616 194.897 91.378V70.0485C194.897 67.2465 193.136 64.9652 190.945 64.9356C184.371 64.8433 170.81 64.8398 159.716 66.0362C158.202 66.1999 157.023 67.7864 156.969 69.7299L155.933 90.3505C155.857 93.0777 157.542 95.3572 159.676 95.4095L191.078 96.1705Z" fill="url(#paint37_linear_2865_8359)"/>
<path opacity="0.76" d="M192.118 72.3586C192.155 74.1732 192.101 77.0535 192.056 78.9134C192.033 79.8817 191.183 80.6183 190.222 80.5069L183.301 79.6953C182.38 79.5874 181.73 78.7375 181.868 77.8198L182.718 72.1531C182.838 71.3485 183.529 70.7529 184.343 70.7529H190.476C191.369 70.7529 192.101 71.4652 192.118 72.3586Z" fill="white"/>
<path opacity="0.37" d="M174.034 83.0954L168.261 83.7188C167.453 83.8059 166.764 83.1389 166.823 82.3291L168.085 65.1548C170.506 65.0782 172.894 65.0225 175.196 64.9824V81.8015C175.196 82.465 174.694 83.024 174.034 83.0954Z" fill="white"/>
<path d="M171.667 80.119C171.65 80.4272 171.394 80.6658 171.087 80.6658C171.075 80.6658 171.065 80.6658 171.053 80.664C170.732 80.6449 170.488 80.3715 170.506 80.051L171.376 65.0623C171.767 65.0518 172.155 65.0431 172.542 65.0361L171.667 80.119Z" fill="white"/>
<path d="M188.921 77.7656C189.022 77.7656 189.108 77.6872 189.115 77.5845L189.414 72.8633C189.421 72.7571 189.339 72.6648 189.233 72.6579C189.122 72.6491 189.034 72.7327 189.028 72.839L188.728 77.5601C188.721 77.6663 188.803 77.7586 188.909 77.7656C188.913 77.7656 188.918 77.7656 188.921 77.7656Z" fill="#4E4E4E"/>
<path d="M188.304 77.7669C188.408 77.7669 188.494 77.685 188.497 77.5805L188.654 72.7689C188.657 72.6626 188.574 72.5721 188.467 72.5686C188.344 72.5634 188.271 72.6487 188.267 72.7549L188.11 77.5666C188.107 77.6728 188.191 77.7634 188.297 77.7669C188.297 77.7669 188.302 77.7669 188.304 77.7669Z" fill="#4E4E4E"/>
<path d="M187.467 77.7666C187.361 77.7614 187.277 77.6708 187.282 77.5646C187.359 75.9485 187.505 72.8644 187.507 72.7599C187.507 72.6537 187.594 72.5684 187.7 72.5684C187.807 72.5684 187.894 72.6554 187.894 72.7617C187.894 72.8418 187.706 76.7914 187.667 77.582C187.662 77.6865 187.577 77.7666 187.474 77.7666C187.474 77.7666 187.471 77.7666 187.467 77.7666ZM187.505 72.7617H187.509H187.505Z" fill="#4E4E4E"/>
<path d="M186.188 77.9596C186.395 77.9596 186.567 77.7959 186.574 77.5852C186.738 72.9233 186.71 72.8188 186.691 72.7492C186.635 72.5419 186.421 72.4218 186.215 72.4775C186.026 72.5297 185.907 72.7126 185.933 72.9024C185.946 73.1828 185.858 75.8942 185.801 77.5591C185.794 77.7733 185.961 77.9526 186.174 77.9596C186.179 77.9596 186.184 77.9596 186.188 77.9596Z" fill="#4E4E4E"/>
<path d="M185.351 77.7649C185.457 77.7649 185.544 77.6779 185.544 77.5716V72.8505C185.544 72.7443 185.457 72.6572 185.351 72.6572C185.244 72.6572 185.157 72.7443 185.157 72.8505V77.5716C185.157 77.6779 185.243 77.7649 185.351 77.7649Z" fill="#4E4E4E"/>
<path d="M184.672 77.7654C184.776 77.7654 184.863 77.6818 184.865 77.5755C184.902 75.9351 184.989 73.255 185.067 72.9328C185.102 72.8719 185.1 72.7952 185.06 72.7325C185.001 72.642 184.883 72.6176 184.792 72.6768C184.686 72.7465 184.587 72.8109 184.479 77.5668C184.477 77.6731 184.56 77.7619 184.668 77.7654H184.672Z" fill="url(#paint38_linear_2865_8359)"/>
<path d="M189.962 78.1966C190.166 78.1966 190.338 78.0364 190.349 77.8292L190.606 72.8712C190.617 72.657 190.453 72.4759 190.239 72.4637C190.037 72.4498 189.844 72.617 189.831 72.8312L189.574 77.7891C189.563 78.0033 189.727 78.1844 189.941 78.1966C189.948 78.1966 189.955 78.1966 189.962 78.1966Z" fill="url(#paint39_linear_2865_8359)"/>
<path d="M241.933 96.1705C244.03 96.221 245.752 94.0616 245.752 91.378V70.0485C245.752 67.2465 243.992 64.9652 241.801 64.9356C235.227 64.8433 221.666 64.8398 210.571 66.0362C209.058 66.1999 207.879 67.7864 207.825 69.7299L206.789 90.3505C206.712 93.0777 208.398 95.3572 210.531 95.4095L241.933 96.1705Z" fill="url(#paint40_linear_2865_8359)"/>
<path opacity="0.76" d="M242.974 72.3586C243.01 74.1732 242.956 77.0535 242.911 78.9134C242.888 79.8817 242.039 80.6183 241.077 80.5069L234.157 79.6953C233.235 79.5874 232.586 78.7375 232.723 77.8198L233.573 72.1531C233.693 71.3485 234.385 70.7529 235.198 70.7529H241.332C242.225 70.7529 242.956 71.4652 242.974 72.3586Z" fill="white"/>
<path opacity="0.37" d="M224.89 83.0954L219.117 83.7188C218.309 83.8059 217.619 83.1389 217.678 82.3291L218.941 65.1548C221.362 65.0782 223.749 65.0225 226.051 64.9824V81.8015C226.051 82.465 225.55 83.024 224.89 83.0954Z" fill="white"/>
<path d="M222.523 80.119C222.505 80.4272 222.249 80.6658 221.943 80.6658C221.931 80.6658 221.92 80.6658 221.908 80.664C221.588 80.6449 221.344 80.3715 221.361 80.051L222.232 65.0623C222.622 65.0518 223.01 65.0431 223.397 65.0361L222.523 80.119Z" fill="white"/>
<path d="M239.776 77.7656C239.877 77.7656 239.962 77.6872 239.969 77.5845L240.269 72.8633C240.276 72.7571 240.194 72.6648 240.087 72.6579C239.976 72.6491 239.889 72.7327 239.882 72.839L239.582 77.5601C239.575 77.6663 239.657 77.7586 239.764 77.7656C239.767 77.7656 239.772 77.7656 239.776 77.7656Z" fill="#4E4E4E"/>
<path d="M239.158 77.7669C239.263 77.7669 239.348 77.685 239.352 77.5805L239.508 72.7689C239.512 72.6626 239.428 72.5721 239.322 72.5686C239.198 72.5634 239.125 72.6487 239.122 72.7549L238.965 77.5666C238.961 77.6728 239.045 77.7634 239.151 77.7669C239.151 77.7669 239.157 77.7669 239.158 77.7669Z" fill="#4E4E4E"/>
<path d="M238.322 77.7666C238.215 77.7614 238.132 77.6708 238.137 77.5646C238.214 75.9485 238.36 72.8644 238.362 72.7599C238.362 72.6537 238.449 72.5684 238.555 72.5684C238.661 72.5684 238.748 72.6554 238.748 72.7617C238.748 72.8418 238.56 76.7914 238.522 77.582C238.517 77.6865 238.431 77.7666 238.329 77.7666C238.329 77.7666 238.325 77.7666 238.322 77.7666ZM238.36 72.7617H238.363H238.36Z" fill="#4E4E4E"/>
<path d="M237.041 77.9596C237.248 77.9596 237.421 77.7959 237.428 77.5852C237.591 72.9233 237.564 72.8188 237.544 72.7492C237.489 72.5419 237.274 72.4218 237.069 72.4775C236.879 72.5297 236.761 72.7126 236.787 72.9024C236.799 73.1828 236.712 75.8942 236.655 77.5591C236.648 77.7733 236.815 77.9526 237.027 77.9596C237.032 77.9596 237.038 77.9596 237.041 77.9596Z" fill="#4E4E4E"/>
<path d="M236.205 77.7649C236.311 77.7649 236.398 77.6779 236.398 77.5716V72.8505C236.398 72.7443 236.311 72.6572 236.205 72.6572C236.099 72.6572 236.012 72.7443 236.012 72.8505V77.5716C236.012 77.6779 236.097 77.7649 236.205 77.7649Z" fill="#4E4E4E"/>
<path d="M235.526 77.7654C235.631 77.7654 235.718 77.6818 235.72 77.5755C235.756 75.9351 235.843 73.255 235.922 72.9328C235.956 72.8719 235.955 72.7952 235.915 72.7325C235.855 72.642 235.737 72.6176 235.646 72.6768C235.54 72.7465 235.441 72.8109 235.333 77.5668C235.331 77.6731 235.415 77.7619 235.523 77.7654H235.526Z" fill="url(#paint41_linear_2865_8359)"/>
<path d="M240.817 78.1966C241.02 78.1966 241.193 78.0364 241.203 77.8292L241.461 72.8712C241.471 72.657 241.308 72.4759 241.093 72.4637C240.891 72.4498 240.698 72.617 240.686 72.8312L240.428 77.7891C240.418 78.0033 240.581 78.1844 240.796 78.1966C240.803 78.1966 240.81 78.1966 240.817 78.1966Z" fill="url(#paint42_linear_2865_8359)"/>
<path d="M294.871 96.3443C296.967 96.3948 298.69 94.2354 298.69 91.5518V70.2224C298.69 67.4204 296.929 65.139 294.738 65.1094C288.164 65.0171 274.603 65.0137 263.509 66.21C261.995 66.3737 260.816 67.9602 260.762 69.9037L259.726 90.5244C259.65 93.2515 261.335 95.5311 263.469 95.5833L294.871 96.3443Z" fill="url(#paint43_linear_2865_8359)"/>
<path opacity="0.76" d="M295.912 72.5324C295.949 74.347 295.895 77.2274 295.85 79.0873C295.827 80.0555 294.977 80.7922 294.016 80.6807L287.095 79.8692C286.174 79.7612 285.524 78.9114 285.662 77.9936L286.512 72.3269C286.632 71.5223 287.323 70.9268 288.137 70.9268H294.27C295.163 70.9268 295.895 71.639 295.912 72.5324Z" fill="white"/>
<path opacity="0.37" d="M277.827 83.2692L272.054 83.8927C271.246 83.9797 270.557 83.3128 270.616 82.503L271.878 65.3287C274.299 65.252 276.687 65.1963 278.989 65.1562V81.9753C278.989 82.6388 278.487 83.1978 277.827 83.2692Z" fill="white"/>
<path d="M275.46 80.2928C275.443 80.601 275.187 80.8396 274.88 80.8396C274.868 80.8396 274.858 80.8396 274.846 80.8379C274.525 80.8187 274.281 80.5453 274.299 80.2249L275.169 65.2361C275.56 65.2256 275.948 65.2169 276.334 65.21L275.46 80.2928Z" fill="white"/>
<path d="M292.715 77.9374C292.816 77.9374 292.902 77.8591 292.909 77.7563L293.208 73.0352C293.215 72.929 293.133 72.8367 293.027 72.8297C292.915 72.821 292.828 72.9046 292.821 73.0108L292.522 77.7319C292.515 77.8382 292.597 77.9305 292.703 77.9374C292.707 77.9374 292.712 77.9374 292.715 77.9374Z" fill="#4E4E4E"/>
<path d="M292.098 77.9387C292.202 77.9387 292.288 77.8569 292.291 77.7524L292.448 72.9407C292.451 72.8345 292.368 72.7439 292.261 72.7405C292.138 72.7352 292.065 72.8206 292.061 72.9268L291.904 77.7385C291.901 77.8447 291.984 77.9353 292.091 77.9387C292.091 77.9387 292.096 77.9387 292.098 77.9387Z" fill="#4E4E4E"/>
<path d="M291.26 77.9385C291.154 77.9333 291.07 77.8427 291.075 77.7365C291.152 76.1204 291.298 73.0363 291.3 72.9318C291.3 72.8256 291.387 72.7402 291.493 72.7402C291.6 72.7402 291.687 72.8273 291.687 72.9335C291.687 73.0136 291.499 76.9633 291.46 77.7539C291.455 77.8584 291.37 77.9385 291.267 77.9385C291.267 77.9385 291.263 77.9385 291.26 77.9385ZM291.298 72.9335H291.302H291.298Z" fill="#4E4E4E"/>
<path d="M289.98 78.1315C290.187 78.1315 290.359 77.9678 290.366 77.7571C290.53 73.0952 290.502 72.9907 290.483 72.921C290.427 72.7138 290.213 72.5936 290.007 72.6494C289.818 72.7016 289.699 72.8845 289.725 73.0743C289.738 73.3547 289.65 76.0661 289.593 77.731C289.586 77.9452 289.753 78.1245 289.966 78.1315C289.971 78.1315 289.976 78.1315 289.98 78.1315Z" fill="#4E4E4E"/>
<path d="M289.143 77.9368C289.25 77.9368 289.337 77.8497 289.337 77.7435V73.0224C289.337 72.9162 289.25 72.8291 289.143 72.8291C289.037 72.8291 288.95 72.9162 288.95 73.0224V77.7435C288.95 77.8497 289.036 77.9368 289.143 77.9368Z" fill="#4E4E4E"/>
<path d="M288.465 77.9372C288.569 77.9372 288.656 77.8537 288.658 77.7474C288.695 76.107 288.782 73.4268 288.86 73.1047C288.895 73.0437 288.893 72.9671 288.853 72.9044C288.794 72.8138 288.676 72.7895 288.585 72.8487C288.479 72.9183 288.379 72.9828 288.272 77.7387C288.27 77.8449 288.353 77.9338 288.461 77.9372H288.465Z" fill="url(#paint44_linear_2865_8359)"/>
<path d="M293.755 78.3685C293.959 78.3685 294.131 78.2083 294.142 78.001L294.399 73.0431C294.41 72.8289 294.246 72.6478 294.032 72.6356C293.83 72.6216 293.637 72.7888 293.624 73.003L293.367 77.961C293.356 78.1752 293.52 78.3563 293.734 78.3685C293.741 78.3685 293.748 78.3685 293.755 78.3685Z" fill="url(#paint45_linear_2865_8359)"/>
<path d="M383.311 281.106C386.501 281.383 392.035 281.83 396.4 282.022C399.023 282.137 400.535 281.88 401.403 281.533C401.4 281.63 401.398 281.725 401.395 281.809C401.374 282.269 401 282.635 400.538 282.661C392.292 283.121 385.733 282.821 383.4 282.679C382.916 282.65 382.629 282.124 382.877 281.714C382.998 281.509 383.148 281.306 383.311 281.106Z" fill="#3D3D3D"/>
<path d="M396.401 282.024C392.038 281.832 386.502 281.385 383.312 281.109C386.447 277.261 396.401 274.668 396.401 274.668H399.213C401.146 277.456 401.427 280.11 401.406 281.535C400.536 281.882 399.023 282.137 396.401 282.024Z" fill="#3D3D3D"/>
<path d="M399.684 270.079L399.421 275.284C399.393 275.846 398.972 276.32 398.406 276.401C397.843 276.483 397.091 276.491 396.294 276.225C395.802 276.062 395.44 275.649 395.347 275.144L394.438 270.076H399.684V270.079Z" fill="url(#paint46_linear_2865_8359)"/>
<path d="M432.312 287.116C433.696 286.866 434.322 285.938 434.585 284.946C434.587 284.954 434.587 284.965 434.59 284.973C434.792 286.019 434.322 287.106 433.378 287.621C432.239 288.244 430.992 288.352 430.024 288.3C428.985 288.244 428.033 287.689 427.51 286.8L427.502 286.787C428.543 287.453 430.006 287.532 432.312 287.116Z" fill="#3D3D3D"/>
<path d="M425.788 271.685H428.106C431.638 271.593 433.855 281.217 434.581 284.946C434.318 285.937 433.692 286.869 432.308 287.116C430.002 287.531 428.539 287.452 427.498 286.787C425.591 283.542 424.644 278.792 424.189 276.017C423.674 272.861 425.788 271.685 425.788 271.685Z" fill="#3D3D3D"/>
<path d="M427.813 266.85L429.099 271.97C429.257 272.599 428.957 273.249 428.376 273.546C427.655 273.917 426.643 274.303 425.709 274.19C425.27 274.137 424.907 273.83 424.762 273.417L422.871 268.031L427.813 266.85Z" fill="url(#paint47_linear_2865_8359)"/>
<path d="M381.458 197.61C381.458 197.61 393.364 275.265 393.175 275.66C393.175 275.66 397.17 278.608 400.634 277.348C400.634 277.348 399.44 233.463 397.002 218.724C397.002 218.724 417.874 258.128 424.107 275.247C424.107 275.247 428.373 275.802 431.064 274.029C431.064 274.029 407.672 206.2 402.033 197.963L381.458 197.61Z" fill="#4E49A0"/>
<path d="M378.304 149.639C378.838 149.055 379.893 149.239 380.713 149.195C385.203 148.95 399.991 148.5 412.229 152.277C414.804 153.071 416.737 155.383 417.05 157.879C417.757 163.523 412.169 165.885 407.022 166.579C405.167 171.258 404.105 176.261 403.295 181.216C402.64 185.224 401.743 189.69 402.261 193.737C402.358 194.492 402.374 195.297 402.024 195.975C401.285 197.404 398.713 197.364 397.367 197.517C395.302 197.748 393.23 197.88 391.152 197.935C388.443 198.008 385.723 197.959 383.02 197.751C382.554 197.714 382.17 197.404 382.062 196.985C377.988 180.953 380.608 170.493 381.605 163.581C365.819 172.092 373.72 154.641 378.304 149.639Z" fill="#7D7AB9"/>
<path d="M399.634 139.207C399.634 139.207 400.481 148.168 401.228 150.816C401.341 151.218 401.167 151.642 400.802 151.85C399.537 152.573 396.499 153.754 392.343 151.718C391.67 151.389 391.265 150.687 391.297 149.946L391.662 141.287L399.634 139.207Z" fill="#F7B896"/>
<path d="M391.48 127.743C391.48 127.743 388.768 133.969 388.587 137.238C388.405 140.507 387.701 142.627 391.48 143.284C395.259 143.942 398.442 142.061 400.167 138.805C400.167 138.805 402.868 133.79 402.263 131.736C401.656 129.679 391.48 127.743 391.48 127.743Z" fill="#F7B896"/>
<path d="M398.874 136.467L398.659 136.372C398.385 136.251 398.267 135.925 398.406 135.66C398.94 134.631 399.979 132.272 398.635 131.72C396.728 130.939 387.539 129.353 389.635 126.431C391.579 123.722 393.63 123.211 396.702 123.78C402.559 124.861 404.303 127.27 404.905 132.901C404.937 133.2 404.968 133.5 405.002 133.8C405.402 137.522 404.216 140.654 399.687 139.92C399.685 139.92 399.682 139.92 399.679 139.918C399.535 139.894 399.44 139.752 399.471 139.61L400.095 136.78C400.129 136.62 400.008 136.467 399.845 136.467H398.874Z" fill="#4E4E4E"/>
<path d="M378.303 149.682C372.328 157.735 367.507 175.848 360.708 187.176L367.352 192.42C375.46 182.208 381.738 171.974 383.161 161.68L378.303 149.682Z" fill="#7D7AB9"/>
<path d="M385.331 166.862L381.446 166.986L381.562 149.517C381.565 149.049 381.972 148.686 382.435 148.736L385.328 149.046V166.862H385.331Z" fill="#4E49A0"/>
<path d="M401.953 169.487L398.231 169.526L401.311 150.285C401.369 149.93 401.719 149.701 402.066 149.793L404.625 150.471L401.953 169.487Z" fill="#4E49A0"/>
<path d="M401.37 195.798C395.815 197.929 388.354 197.153 381.471 194.744C379.93 185.672 379.427 176.725 380.303 167.946C380.245 166.633 381.339 165.563 382.649 165.647C388.54 167.123 394.742 167.423 401.18 166.825C402.427 166.904 402.911 168.272 402.856 168.764C400.46 178.561 399.552 187.742 401.37 195.798Z" fill="#4E49A0"/>
<path d="M381.564 193.649C387.676 195.569 394.82 195.996 402.728 194.917L402.584 198.507C402.578 198.607 402.51 198.691 402.413 198.712C395.114 200.34 388.187 199.88 381.462 197.605C381.185 197.513 381.009 197.242 381.028 196.953L381.22 193.92C381.238 193.728 381.401 193.6 381.564 193.649Z" fill="#3D3D3D"/>
<path d="M378.879 188.424C382.945 188.46 389.87 188.205 395.485 184.255C396.235 186.067 397.053 187.243 401.347 190.741C395.69 193.116 386.706 194.928 376.993 192.027L378.879 188.424Z" fill="#7D7AB9"/>
<path d="M375.793 192.662C376.369 193.135 377.223 193.048 377.681 192.459C378.454 191.465 379.63 189.845 379.809 188.93C380.082 187.549 380.214 185.666 377.876 184.927C375.538 184.188 372.529 183.819 372.529 183.819C372.529 183.819 371.866 185.463 373.768 185.779L372.353 186.058C372.353 186.058 371.866 187.394 373.594 187.415L372.121 187.985C372.121 187.985 372.197 189.321 373.554 189.169C374.688 189.043 374.154 191.312 375.793 192.662Z" fill="#7D7AB9"/>
<path d="M394.942 184.51C396.31 184.031 397.449 183.111 398.138 182.164C401.415 177.669 403.808 167.457 403.808 167.457C403.808 167.457 408.369 152.868 414.918 154.167C414.918 154.167 422.408 163.477 408.892 183.821C407.709 185.601 403.172 189.712 401.181 190.833C398.624 189.005 396.552 187.056 394.942 184.51Z" fill="#7D7AB9"/>
<path d="M387.822 128.056C392.07 113.028 410.933 121.499 404.994 134.697C398.463 131.749 390.831 126.891 387.822 128.056Z" fill="#7D7AB9"/>
<path d="M398.914 131.487L387.191 133.747C386.894 133.804 386.594 133.683 386.402 133.431C385.014 131.585 383.265 130.606 381.234 130.314C380.977 130.278 380.963 129.872 381.213 129.794L388.27 127.626C388.278 127.624 388.285 127.621 388.293 127.621C391.904 127.111 395.45 128.76 398.971 131.177C399.09 131.256 399.05 131.458 398.914 131.487Z" fill="#7D7AB9"/>
<path d="M347.04 206.028C346.875 206.715 331.015 266.194 326.994 281.272C326.531 283.01 327.825 284.717 329.603 284.717C330.844 284.717 331.925 283.862 332.225 282.645L349.831 211.267L347.04 206.028Z" fill="#3D3D3D"/>
<path d="M355.726 206.028C355.892 206.715 371.751 266.194 375.772 281.272C376.235 283.01 374.941 284.717 373.163 284.717C371.922 284.717 370.841 283.862 370.541 282.645L352.936 211.267L355.726 206.028Z" fill="#3D3D3D"/>
<path d="M356.39 204.084H346.514V212.016C346.514 213.155 347.426 214.081 348.552 214.081H349.906V231.897C349.906 232.76 350.598 233.459 351.45 233.459C352.302 233.459 352.994 232.76 352.994 231.897V214.081H353.681C355.174 214.081 356.387 212.855 356.387 211.34V204.084H356.39Z" fill="#3D3D3D"/>
<path d="M316.002 202.179H383.453C384.394 202.179 385.218 202.707 385.454 203.462L386.396 206.481C386.735 207.568 385.738 208.625 384.381 208.62L315.174 208.291C313.833 208.286 312.854 207.239 313.18 206.163L313.998 203.473C314.23 202.713 315.056 202.179 316.002 202.179Z" fill="#3D3D3D"/>
<path d="M380.019 197.437V152.053C380.019 148.655 377.286 145.888 373.888 145.851C363.689 145.74 342.648 145.735 325.435 147.184C323.086 147.382 321.258 149.307 321.174 151.663L319.564 196.19C319.446 199.499 322.06 202.263 325.372 202.326L374.093 203.252C377.347 203.312 380.019 200.693 380.019 197.437Z" fill="#CA9765"/>
<path opacity="0.37" d="M352.171 167.876L345.167 168.631C344.186 168.736 343.352 167.929 343.423 166.945L344.954 146.115C347.889 146.023 350.785 145.955 353.578 145.907V166.306C353.58 167.113 352.973 167.789 352.171 167.876Z" fill="white"/>
<path d="M349.301 164.268C349.28 164.641 348.969 164.931 348.598 164.931C348.585 164.931 348.572 164.931 348.556 164.928C348.167 164.904 347.873 164.573 347.894 164.184L348.948 146.002C349.422 145.992 349.892 145.981 350.361 145.971L349.301 164.268Z" fill="white"/>
<path opacity="0.82" d="M374.102 157.843C374.173 160.689 374.066 165.202 373.981 168.116C373.937 169.634 372.269 170.788 370.384 170.612L356.81 169.342C355 169.173 353.727 167.84 353.998 166.401L355.666 157.52C355.902 156.26 357.257 155.326 358.853 155.326H370.883C372.632 155.324 374.068 156.441 374.102 157.843Z" fill="white"/>
<path d="M361.771 165.716C361.895 165.727 362.005 165.642 362.026 165.519L362.921 159.851C362.942 159.722 362.852 159.604 362.726 159.583C362.592 159.559 362.479 159.651 362.458 159.777L361.564 165.445C361.543 165.574 361.632 165.692 361.758 165.713C361.758 165.713 361.766 165.713 361.771 165.716Z" fill="#4E4E4E"/>
<path d="M361.027 165.642C361.153 165.652 361.266 165.563 361.282 165.437L362.016 159.643C362.031 159.514 361.939 159.396 361.813 159.38C361.666 159.359 361.566 159.456 361.55 159.582L360.816 165.376C360.8 165.505 360.892 165.624 361.019 165.639L361.027 165.642Z" fill="#4E4E4E"/>
<path d="M360.022 165.55C359.893 165.532 359.803 165.414 359.822 165.285C360.098 163.341 360.621 159.635 360.637 159.509C360.65 159.38 360.763 159.288 360.892 159.299C361.021 159.312 361.116 159.425 361.105 159.554C361.097 159.651 360.424 164.398 360.287 165.35C360.269 165.477 360.158 165.563 360.032 165.55C360.027 165.553 360.024 165.55 360.022 165.55ZM360.632 159.512H360.637H360.632Z" fill="#4E4E4E"/>
<path d="M358.45 165.639C358.7 165.663 358.926 165.484 358.957 165.231C359.681 159.619 359.66 159.49 359.644 159.403C359.599 159.148 359.354 158.977 359.099 159.022C358.865 159.064 358.702 159.272 358.71 159.503C358.694 159.842 358.281 163.109 358.024 165.11C357.989 165.368 358.171 165.602 358.429 165.636C358.437 165.639 358.444 165.639 358.45 165.639Z" fill="#4E4E4E"/>
<path d="M357.46 165.31C357.589 165.323 357.705 165.228 357.715 165.097L358.249 159.395C358.262 159.266 358.167 159.15 358.036 159.14C357.907 159.127 357.791 159.221 357.781 159.353L357.247 165.055C357.236 165.184 357.331 165.299 357.46 165.31Z" fill="#4E4E4E"/>
<path d="M356.641 165.234C356.767 165.247 356.88 165.155 356.896 165.029C357.125 163.051 357.532 159.826 357.664 159.445C357.711 159.377 357.719 159.282 357.677 159.203C357.616 159.087 357.474 159.045 357.359 159.106C357.224 159.177 357.096 159.245 356.428 164.976C356.412 165.105 356.504 165.221 356.633 165.236L356.641 165.234Z" fill="#4E4E4E"/>
<path d="M362.981 166.353C363.228 166.377 363.452 166.203 363.489 165.953L364.359 159.996C364.396 159.739 364.22 159.502 363.962 159.462C363.72 159.423 363.468 159.602 363.428 159.86L362.558 165.817C362.521 166.074 362.697 166.311 362.955 166.351C362.965 166.351 362.973 166.351 362.981 166.353Z" fill="#4E4E4E"/>
<path d="M369.466 166.94C369.589 166.95 369.7 166.866 369.721 166.743L370.615 161.075C370.636 160.946 370.547 160.827 370.42 160.806C370.286 160.783 370.173 160.875 370.152 161.001L369.258 166.669C369.237 166.798 369.326 166.916 369.453 166.937C369.453 166.94 369.463 166.94 369.466 166.94Z" fill="#4E4E4E"/>
<path d="M368.721 166.871C368.847 166.881 368.96 166.792 368.976 166.665L369.71 160.871C369.726 160.742 369.634 160.624 369.507 160.608C369.36 160.587 369.26 160.685 369.244 160.811L368.511 166.605C368.495 166.734 368.587 166.852 368.713 166.868L368.721 166.871Z" fill="#4E4E4E"/>
<path d="M367.715 166.779C367.586 166.76 367.497 166.642 367.515 166.513C367.791 164.57 368.315 160.864 368.33 160.738C368.344 160.609 368.457 160.517 368.586 160.527C368.714 160.54 368.809 160.653 368.799 160.782C368.791 160.88 368.115 165.627 367.981 166.579C367.962 166.705 367.852 166.792 367.725 166.779C367.723 166.779 367.718 166.779 367.715 166.779ZM368.325 160.738H368.33H368.325Z" fill="#4E4E4E"/>
<path d="M366.144 166.868C366.394 166.891 366.62 166.712 366.652 166.46C367.375 160.847 367.354 160.718 367.338 160.632C367.293 160.377 367.049 160.206 366.794 160.25C366.56 160.292 366.397 160.5 366.404 160.732C366.389 161.071 365.976 164.337 365.718 166.339C365.684 166.597 365.865 166.831 366.123 166.865C366.134 166.865 366.139 166.868 366.144 166.868Z" fill="#4E4E4E"/>
<path d="M365.154 166.539C365.283 166.552 365.399 166.457 365.409 166.325L365.943 160.624C365.956 160.495 365.862 160.379 365.73 160.368C365.601 160.355 365.486 160.45 365.475 160.581L364.941 166.283C364.931 166.412 365.025 166.525 365.154 166.539Z" fill="#4E4E4E"/>
<path d="M364.335 166.462C364.461 166.475 364.574 166.383 364.59 166.257C364.819 164.279 365.227 161.055 365.358 160.673C365.405 160.605 365.413 160.51 365.371 160.431C365.311 160.316 365.169 160.274 365.053 160.334C364.919 160.405 364.79 160.474 364.122 166.204C364.106 166.333 364.198 166.449 364.327 166.465L364.335 166.462Z" fill="#4E4E4E"/>
<path d="M370.679 167.576C370.926 167.6 371.15 167.426 371.187 167.176L372.057 161.219C372.094 160.961 371.918 160.725 371.66 160.685C371.418 160.646 371.166 160.825 371.126 161.082L370.256 167.039C370.219 167.297 370.395 167.534 370.653 167.573C370.663 167.576 370.671 167.576 370.679 167.576Z" fill="#4E4E4E"/>
<path d="M307.095 168.443C307.095 168.443 317.976 183.23 330.805 179.621L325.937 182.877C325.937 182.877 309.499 185.284 304.688 176.462L307.095 168.443Z" fill="#F7B896"/>
<path d="M287.846 136.32C287.846 136.32 288.456 137.541 284.485 139.447C282.27 140.51 277.962 142.08 277.394 146.67C277.099 149.039 275.348 150.936 272.989 151.298C267.11 152.198 258.055 155.251 256.606 165.453C255.499 173.241 259.47 176.195 263.636 177.218C266.697 177.967 268.73 180.945 268.112 184.035C267.518 186.999 268.404 190.423 273.538 193.132C285.042 199.202 296.533 178.751 296.533 178.751L298.887 143.04L287.846 136.32Z" fill="#4E4E4E"/>
<path d="M260.799 275.281L260.329 279.16C260.239 279.897 259.661 280.478 258.924 280.562C257.68 280.704 255.687 280.849 253.735 280.644C252.878 280.554 252.323 279.686 252.583 278.863C253.059 277.367 253.93 275.118 255.184 273.795H259.487C260.281 273.795 260.897 274.492 260.799 275.281Z" fill="#3D3D3D"/>
<path d="M294.494 229.853L295.22 234.124C295.22 234.124 292.787 258.754 292.356 268.606C292.287 270.15 292.687 271.678 293.497 272.993L297.726 279.86L286.98 273.519L286.767 272.207L288.526 269.787L286.222 242.195C286.088 240.575 286.422 238.95 287.185 237.514L289.407 233.337L294.494 229.853Z" fill="#F7B896"/>
<path d="M298.436 280.852H295.006C294.365 280.852 293.76 280.558 293.368 280.05C292.3 278.661 290.083 275.95 289.026 275.881C287.6 275.787 287.782 280.855 287.782 280.855H286.982L285.969 274.556C285.714 272.97 286.503 271.403 287.926 270.658C287.926 270.658 288.252 273.067 290.02 274.135C291.787 275.2 297.21 279.019 297.21 279.019C297.21 279.019 297.876 278.924 298.604 279.056C299.685 279.248 299.535 280.852 298.436 280.852Z" fill="#3D3D3D"/>
<path d="M279.776 231.879C279.776 231.879 265.532 258.9 263.267 265.07C261.003 271.24 260.209 276.387 260.18 276.874C260.132 277.637 259.186 278.365 256.574 278.365C255.227 278.365 254.567 277.826 254.244 277.303C253.967 276.856 253.954 276.298 254.186 275.827C255.009 274.16 257.626 268.831 258.594 266.414C259.751 263.529 262.236 250.45 263.601 245.902C264.966 241.355 266.508 236.424 272.449 231.879C272.446 231.879 276.523 227.886 279.776 231.879Z" fill="#F7B896"/>
<path d="M288.772 187.604C292.446 172.034 283.139 163.226 283.139 163.226C287.857 158.697 295.695 156.148 298.593 155.322C299.303 155.12 300.063 155.275 300.639 155.741C303.124 157.747 309.702 163.576 308.716 168.331C308.006 171.755 301.539 188.845 301.539 188.845C301.539 188.845 295.555 191.678 288.772 187.604Z" fill="#7D7AB9"/>
<path d="M280.625 195.31C282.122 190.805 288.773 187.602 288.773 187.602C295.556 191.676 301.537 188.846 301.537 188.846C301.537 188.846 302.878 193.972 301.952 198.737C301.026 203.503 295.219 234.122 295.219 234.122C286.067 235.976 271.993 232.257 271.993 232.257C277.821 221.905 279.131 199.816 280.625 195.31Z" fill="#4E49A0"/>
<path d="M293.039 144.732L290.052 158.15C289.765 159.331 290.843 159.139 292.037 158.913C293.994 158.545 296.516 157.785 297.361 156.262C297.447 156.107 297.489 155.93 297.513 155.757L298.797 146.452C298.899 145.713 298.499 144.997 297.818 144.695L295.341 143.595C294.389 143.175 293.284 143.719 293.039 144.732Z" fill="#F7B896"/>
<path d="M298.76 132.501C298.76 132.501 301.94 134.655 303.308 140.136C304.675 145.62 302.453 147.585 300.178 147.466C297.9 147.345 294.6 146.641 291.741 142.709C288.877 138.774 294.592 129.871 298.76 132.501Z" fill="#F7B896"/>
<path d="M294.625 140.496C294.625 140.496 293.46 132.64 299.982 133.842L301.3 135.215C301.3 135.215 304.493 131.62 300.961 128.9C297.429 126.183 292.524 126.878 289.812 131.828C287.1 136.775 286.114 140.252 288.389 143.326C290.661 146.401 292.374 143.763 292.374 143.763C292.374 143.763 291.332 141.101 292.195 139.96C293.06 138.818 294.175 140.625 294.175 140.625L294.625 140.496Z" fill="#4E4E4E"/>
<path d="M294.784 140.904C294.784 140.904 294.208 136.862 292.144 138.019C290.079 139.173 292.888 141.796 294.014 142.687L294.784 140.904Z" fill="#F7B896"/>
<path d="M283.098 163.458C283.098 163.458 276.757 173.605 275.489 181.214C274.222 188.822 286.27 191.994 290.71 187.555L290.076 184.383C290.076 184.383 283.101 185.65 282.467 181.847C281.833 178.042 288.174 170.433 288.174 170.433C288.174 170.433 286.267 164.726 283.098 163.458Z" fill="#F7B896"/>
<path d="M265.062 172.624C264.894 172.624 264.699 172.547 264.528 172.437C261.845 170.688 260.415 167.082 261.048 163.663C261.43 161.617 262.445 159.849 263.907 158.692C264.946 157.869 266.18 157.367 267.353 156.922C269.336 156.173 271.377 155.512 273.423 154.96C273.591 154.915 273.76 154.871 273.928 154.826C275.125 154.508 276.363 154.179 277.484 153.616C278.922 152.896 279.972 151.849 280.437 150.668C280.727 149.934 280.811 149.121 280.89 148.335C280.987 147.375 281.089 146.381 281.571 145.531C281.579 145.516 281.6 145.51 281.615 145.518C281.631 145.526 281.637 145.547 281.629 145.563C281.155 146.399 281.053 147.386 280.955 148.34C280.874 149.132 280.79 149.947 280.498 150.692C280.027 151.888 278.967 152.948 277.513 153.674C276.384 154.237 275.143 154.568 273.944 154.889C273.775 154.934 273.607 154.979 273.439 155.023C271.395 155.576 269.354 156.236 267.374 156.983C266.203 157.425 264.975 157.924 263.944 158.742C262.492 159.892 261.488 161.643 261.109 163.676C260.478 167.069 261.898 170.648 264.56 172.382C264.762 172.513 265.149 172.674 265.32 172.437C265.33 172.421 265.351 172.419 265.364 172.429C265.38 172.44 265.383 172.461 265.372 172.474C265.301 172.582 265.191 172.624 265.062 172.624Z" fill="#5F5F5F"/>
<path d="M264.375 169.403C264.365 169.403 264.354 169.398 264.349 169.39C263.313 167.844 262.776 166.218 262.789 164.693C262.808 162.907 263.636 161.247 264.951 160.361C264.967 160.351 264.985 160.356 264.996 160.369C265.006 160.385 265.001 160.403 264.988 160.414C263.689 161.289 262.873 162.928 262.855 164.693C262.839 166.205 263.376 167.817 264.402 169.353C264.412 169.369 264.407 169.387 264.394 169.398C264.388 169.401 264.383 169.403 264.375 169.403Z" fill="#91B3FA"/>
<path d="M249.729 163.725L254.194 165.464C255.097 165.814 256.109 165.369 256.462 164.467L256.809 163.578C257.159 162.676 256.714 161.663 255.812 161.311L251.346 159.573C250.444 159.223 249.431 159.667 249.079 160.569L248.732 161.458C248.379 162.36 248.826 163.373 249.729 163.725Z" fill="#4E4E4E"/>
<path d="M255.845 158.668L308.333 182.307L304.885 190.044L252.037 166.808C250.914 166.313 250.312 165.088 250.598 163.896C250.896 162.673 251.635 161.027 253.373 159.162C254.004 158.484 255.001 158.286 255.845 158.668Z" fill="#F0F0F0"/>
<path d="M308.332 182.306C304.626 185.672 304.884 190.043 304.884 190.043L314.457 191.403C314.691 189.507 315.009 188.986 315.717 188.236L308.332 182.306Z" fill="#F0F0F0"/>
<path d="M314.565 189.613C314.218 190.486 314.168 191.288 314.455 191.404C314.741 191.517 315.257 190.902 315.604 190.029C315.951 189.155 316.001 188.353 315.715 188.238C315.428 188.122 314.915 188.74 314.565 189.613Z" fill="#F0F0F0"/>
<path d="M315.067 190.54L316.659 191.174C316.964 191.295 317.313 191.145 317.434 190.84L317.492 190.693C317.613 190.388 317.463 190.038 317.158 189.917L315.567 189.283C315.262 189.162 314.912 189.312 314.791 189.617L314.733 189.764C314.612 190.07 314.762 190.419 315.067 190.54Z" fill="#747474"/>
<path d="M289.818 184.067L297.823 183.415L301.29 186.611C301.29 186.611 300.469 187.744 297.905 187.092C295.341 186.44 291.827 186.279 291.827 186.279C291.827 186.279 288.287 187.876 288.242 184.888L289.818 184.067Z" fill="url(#paint48_linear_2865_8359)"/>
<path d="M327.322 183.915L318.312 174.905L334.767 158.449L343.727 167.41C344.524 168.206 344.524 169.496 343.727 170.292L330.103 183.917C329.334 184.682 328.089 184.682 327.322 183.915Z" fill="#3D3D3D"/>
<path d="M327.171 183.764L318.05 174.643C317.343 173.936 317.343 172.789 318.05 172.082L331.894 158.238C332.63 157.501 333.822 157.501 334.559 158.238L343.628 167.307L327.171 183.764Z" fill="#4E4E4E"/>
<path d="M319.443 173.962L319.018 173.537C318.767 173.287 318.767 172.879 319.018 172.627L319.887 171.757C320.138 171.507 320.546 171.507 320.798 171.757L321.223 172.182C321.474 172.433 321.474 172.841 321.223 173.093L320.354 173.962C320.102 174.213 319.694 174.213 319.443 173.962Z" fill="#E6E6E6"/>
<path d="M321.385 175.901L320.959 175.476C320.709 175.225 320.709 174.817 320.959 174.565L321.829 173.696C322.079 173.445 322.487 173.445 322.739 173.696L323.165 174.121C323.415 174.371 323.415 174.779 323.165 175.032L322.295 175.901C322.043 176.153 321.635 176.153 321.385 175.901Z" fill="#E6E6E6"/>
<path d="M323.409 177.925L322.984 177.5C322.733 177.25 322.733 176.842 322.984 176.589L323.853 175.72C324.104 175.47 324.512 175.47 324.764 175.72L325.189 176.145C325.44 176.396 325.44 176.804 325.189 177.056L324.32 177.925C324.067 178.176 323.661 178.176 323.409 177.925Z" fill="#E6E6E6"/>
<path d="M325.293 179.812L324.868 179.387C324.617 179.136 324.617 178.728 324.868 178.476L325.737 177.607C325.987 177.356 326.395 177.356 326.648 177.607L327.073 178.032C327.323 178.283 327.323 178.69 327.073 178.943L326.203 179.812C325.951 180.063 325.543 180.063 325.293 179.812Z" fill="#E6E6E6"/>
<path d="M327.235 181.751L326.81 181.326C326.559 181.076 326.559 180.668 326.81 180.416L327.679 179.546C327.93 179.296 328.338 179.296 328.59 179.546L329.015 179.971C329.266 180.222 329.266 180.63 329.015 180.882L328.146 181.751C327.894 182.004 327.486 182.004 327.235 181.751Z" fill="#E6E6E6"/>
<path d="M321.85 171.373L321.425 170.947C321.175 170.697 321.175 170.289 321.425 170.037L322.294 169.167C322.545 168.917 322.953 168.917 323.205 169.167L323.63 169.593C323.881 169.843 323.881 170.251 323.63 170.503L322.761 171.373C322.509 171.623 322.103 171.623 321.85 171.373Z" fill="#E6E6E6"/>
<path d="M323.788 173.315L323.363 172.89C323.112 172.639 323.112 172.231 323.363 171.979L324.232 171.11C324.483 170.859 324.89 170.859 325.143 171.11L325.568 171.535C325.818 171.786 325.818 172.193 325.568 172.446L324.699 173.315C324.446 173.566 324.038 173.566 323.788 173.315Z" fill="#E6E6E6"/>
<path d="M325.811 175.338L325.386 174.913C325.136 174.663 325.136 174.255 325.386 174.002L326.255 173.133C326.506 172.883 326.914 172.883 327.166 173.133L327.591 173.558C327.842 173.809 327.842 174.217 327.591 174.469L326.722 175.338C326.47 175.589 326.064 175.589 325.811 175.338Z" fill="#E6E6E6"/>
<path d="M327.699 177.226L327.274 176.801C327.023 176.55 327.023 176.143 327.274 175.89L328.143 175.021C328.394 174.77 328.802 174.77 329.054 175.021L329.479 175.446C329.73 175.697 329.73 176.104 329.479 176.357L328.61 177.226C328.357 177.477 327.951 177.477 327.699 177.226Z" fill="#E6E6E6"/>
<path d="M329.64 179.167L329.215 178.742C328.965 178.492 328.965 178.084 329.215 177.832L330.085 176.962C330.335 176.712 330.743 176.712 330.995 176.962L331.42 177.387C331.671 177.638 331.671 178.046 331.42 178.298L330.551 179.167C330.299 179.418 329.891 179.418 329.64 179.167Z" fill="#E6E6E6"/>
<path d="M324.498 168.003L332.205 160.194C332.427 159.969 332.786 159.965 333.012 160.183L340.485 167.364C340.716 167.587 340.722 167.956 340.493 168.185L332.779 175.928C332.558 176.15 332.202 176.155 331.975 175.939L324.51 168.824C324.278 168.601 324.271 168.231 324.498 168.003Z" fill="#91B3FA"/>
<path d="M324.882 168.006L332.258 160.532C332.469 160.318 332.814 160.313 333.03 160.522L340.183 167.395C340.404 167.607 340.41 167.961 340.192 168.179L332.809 175.589C332.598 175.802 332.256 175.805 332.04 175.6L324.894 168.791C324.671 168.578 324.666 168.226 324.882 168.006Z" fill="#E6E6E6"/>
<path d="M171.675 278.666C171.67 278.58 171.678 278.496 171.702 278.407C173.209 273.28 181.24 270.022 181.24 270.022L184.458 270.19C186.416 274.678 186.248 277.441 185.982 278.676C185.974 278.711 185.962 278.743 185.952 278.777C183.307 278.99 177.854 279.163 171.675 278.666Z" fill="#3D3D3D"/>
<path d="M185.952 278.78C185.818 279.192 185.443 279.516 184.951 279.602C181.195 280.264 175.189 279.815 172.668 279.58C172.112 279.528 171.695 279.126 171.675 278.669C177.854 279.163 183.307 278.99 185.952 278.78Z" fill="#3D3D3D"/>
<path d="M145.78 142.774C145.78 142.774 146.592 141.305 146.506 140.122C146.419 138.939 147.155 137.203 146.372 137.331C145.589 137.459 145.426 137.356 145.214 138.773C144.999 140.193 143.083 145.426 145.78 142.774Z" fill="url(#paint49_linear_2865_8359)"/>
<path d="M185.583 265.254L184.489 270.527C184.41 270.912 184.111 271.204 183.753 271.236C183.313 271.278 182.686 271.303 182.056 271.209C181.491 271.125 181.098 270.552 181.197 269.934L181.958 265.252H185.583V265.254Z" fill="url(#paint50_linear_2865_8359)"/>
<path d="M162.892 277.817C165.747 277.738 167.226 277.4 167.989 277.089C167.992 277.373 167.989 277.662 167.98 277.961C167.97 278.279 167.733 278.536 167.441 278.534L151.762 278.432C151.26 278.43 150.969 277.85 151.186 277.39C153.241 277.563 158.476 277.941 162.892 277.817Z" fill="#3D3D3D"/>
<path d="M151.188 277.395C151.208 277.355 151.223 277.313 151.25 277.276C152.636 275.34 156.162 271.488 163.132 269.818L166.475 269.712C166.475 269.712 167.965 272.3 167.992 277.094C167.229 277.405 165.752 277.743 162.894 277.822C158.479 277.943 153.243 277.565 151.188 277.395Z" fill="#3D3D3D"/>
<path d="M167.095 264.646C167.058 264.895 166.599 268.683 166.424 270.15C166.382 270.499 166.13 270.77 165.811 270.807C165.241 270.876 164.32 270.938 163.514 270.773C163.08 270.684 162.764 270.266 162.764 269.78V263.833L167.095 264.646Z" fill="url(#paint51_linear_2865_8359)"/>
<path d="M139.699 168.471C137.889 158.624 139.887 144.335 139.887 144.335L143.784 148.185C143.784 148.185 143.361 159.948 145.88 165.43C144.223 165.628 142.27 165.729 139.699 168.471Z" fill="#F7B896"/>
<path d="M163.816 170.745C163.823 170.745 163.831 170.745 163.841 170.742C163.944 170.73 164.019 170.636 164.004 170.53C163.994 170.446 162.974 162.178 163.527 159.797C163.552 159.696 163.488 159.594 163.386 159.57C163.285 159.545 163.184 159.609 163.159 159.711C162.591 162.158 163.586 170.234 163.628 170.577C163.641 170.676 163.722 170.745 163.816 170.745Z" fill="url(#paint52_linear_2865_8359)"/>
<path d="M139.021 120.039C138.994 119.575 139.177 119.123 139.515 118.807C139.856 118.491 140.318 118.34 140.78 118.399L152.283 119.866C152.73 119.923 153.061 120.306 153.056 120.758L152.624 150.327C152.621 150.455 152.57 150.576 152.478 150.665C152.387 150.754 152.263 150.801 152.135 150.798L142.197 150.561C141.382 150.541 140.72 149.902 140.673 149.087L139.021 120.039Z" fill="#5F5F5F"/>
<path d="M142.351 121.418C142.341 121.154 142.448 120.9 142.645 120.724C142.84 120.549 143.107 120.467 143.366 120.507L150.95 121.638C151.39 121.702 151.711 122.082 151.704 122.527L151.313 147.71C151.311 147.843 151.254 147.967 151.158 148.055C151.059 148.144 150.931 148.189 150.797 148.179L143.85 147.626C143.608 147.606 143.421 147.411 143.411 147.169L142.351 121.418Z" fill="url(#paint53_linear_2865_8359)"/>
<path d="M146.541 120.336C146.531 120.425 146.662 120.514 146.832 120.534L149.358 120.805C149.529 120.823 149.677 120.766 149.687 120.677L149.697 120.59C149.707 120.502 149.576 120.413 149.405 120.393L146.879 120.121C146.708 120.104 146.56 120.161 146.55 120.25L146.541 120.336Z" fill="url(#paint54_linear_2865_8359)"/>
<path d="M137.974 137.57C138.849 137.248 140.558 134.29 140.886 135.263C141.214 136.236 140.748 137.57 140.886 137.984C141.024 138.399 141.97 140.699 141.545 141.756C141.239 142.519 140.73 144.867 140.474 146.117C140.387 146.532 140.34 147.07 139.918 147.073C139.496 147.073 139.108 146.547 139.021 146.132C138.984 145.964 137.1 137.891 137.974 137.57Z" fill="#F7B896"/>
<path d="M194.342 169.788C198.99 159.537 199.486 152.338 194.342 149.275C194.036 149.196 193.722 149.137 193.406 149.095C191.769 148.888 189.502 148.599 186.891 148.255C186.891 148.255 186.884 148.255 186.869 148.25C186.491 148.166 181.271 147.05 175.598 146.699C170.15 146.359 164.292 146.727 161.929 149.396C161.929 149.396 160.306 153.434 157.258 157.432C152.88 163.179 150.729 169.583 148.457 168.333C147.834 167.993 146.513 166.19 146.039 165.155C144.382 165.353 141.947 165.367 139.376 168.109C141.275 178.439 147.568 182.709 162.988 170.025C165.917 178.308 169.733 189.957 168.685 197.549C168.599 198.196 169.029 198.799 169.676 198.892C173.188 199.413 183.659 200.713 189.097 198.532C189.415 198.406 189.618 198.1 189.618 197.756C189.606 195.247 189.825 184.351 193.962 171.26C194.113 170.781 194.241 170.287 194.342 169.788Z" fill="#7D7AB9"/>
<path d="M184.026 138.414L185.073 149.122C185.073 149.122 179.05 150.937 174.666 147.845L177.746 138.112L184.026 138.414Z" fill="#F7B896"/>
<path d="M173.799 129.286C173.728 129.471 173.424 142.634 173.424 142.634L180.944 142.646L183.085 130.214C183.083 130.214 174.997 126.174 173.799 129.286Z" fill="#F7B896"/>
<path d="M180.508 131.769C180.753 131.999 180.876 132.325 180.847 132.658L180.242 139.195C180.232 139.294 180.212 139.39 180.175 139.484C179.975 139.995 179.207 141.573 177.606 140.697C176.243 139.951 174.979 139.284 173.951 139.252C173.351 139.232 172.857 139.716 172.845 140.316C172.82 141.551 172.823 144.045 173.136 146.258C173.215 146.814 173.712 147.211 174.272 147.174C175.749 147.08 178.626 146.814 180.938 146.07C181.318 145.949 181.597 145.628 181.671 145.236C181.99 143.509 182.904 138.676 183.371 137.353C183.805 136.123 185.494 135.696 186.282 135.562C186.581 135.51 186.845 135.34 187.011 135.086C187.51 134.325 188.231 132.68 186.25 131.433C185.759 131.124 185.615 130.462 185.914 129.964C186.45 129.07 186.838 127.692 185.272 126.511C183.687 125.316 182.151 125.879 181.21 126.481C180.792 126.748 180.234 126.731 179.866 126.402C179.703 126.254 179.478 126.17 179.175 126.249C177.626 126.642 177.893 124.481 177.098 123.804C175.981 122.858 174.776 124.234 174.327 125.249C174.077 125.812 173.9 126.407 173.625 126.958C173.196 127.822 172.529 128.568 171.716 129.087C171.593 129.166 171.457 129.247 171.39 129.378C171.294 129.566 171.363 129.803 171.504 129.961C171.645 130.117 171.842 130.208 172.035 130.292C173.628 130.969 175.278 131.04 176.937 130.487C178.374 130.01 179.834 131.137 180.508 131.769Z" fill="#4E4E4E"/>
<path d="M182.776 139.659C182.776 139.659 182.643 135.78 184.201 135.184C185.76 134.589 187.659 135.515 186.607 138.089C185.3 141.287 182.776 139.659 182.776 139.659Z" fill="#F7B896"/>
<path d="M171.398 128.994C173.722 116.786 191.062 121.884 187.083 132.792C181.077 131.014 173.93 127.823 171.398 128.994Z" fill="#7D7AB9"/>
<path d="M181.448 130.77L171.375 133.536C171.118 133.605 170.844 133.538 170.654 133.353C169.263 132.014 167.638 131.39 165.828 131.328C165.598 131.32 165.549 131.002 165.761 130.92L171.75 128.619C171.757 128.616 171.762 128.614 171.77 128.611C174.891 127.907 178.154 128.91 181.47 130.52C181.582 130.575 181.567 130.738 181.448 130.77Z" fill="#7D7AB9"/>
<path d="M170.601 161.867L167.094 162.198V146.807L170.072 146.661L170.601 161.867Z" fill="#4E49A0"/>
<path d="M189.004 163.234H185.944L186.344 148.125L189.004 148.532V163.234Z" fill="#4E49A0"/>
<path d="M186.913 187.514C182.008 189.761 176.308 189.855 169.939 188.075L167.247 163.06C167.119 161.877 168.047 160.845 169.238 160.845H189.002L186.913 187.514Z" fill="#4E49A0"/>
<path d="M167.54 189.884C167.54 189.884 161.707 231.722 161.855 270.287C161.858 270.991 166.982 271.922 167.093 271.272C168.224 264.642 175.72 221.478 179.417 215.412C179.417 215.412 180.918 253.617 180.14 270.877C180.121 271.307 184.914 271.989 184.986 271.49C185.791 265.879 191.212 226.839 191.014 202.775C191.002 201.419 190.57 190.025 190.57 190.025C182.605 191.41 174.492 191.412 167.54 189.884Z" fill="#4E49A0"/>
<path d="M151.864 152.57C153.027 150.928 154.406 151.542 154.406 151.542C156.932 159.5 167.781 165.311 178.353 167.746C177.894 170.67 172.118 170.973 169.11 175.041C153.941 166.508 151.864 152.57 151.864 152.57Z" fill="#F7B896"/>
<path d="M152.204 152.941C152.103 153.375 153.703 153.909 154.486 152.098C154.456 151.261 154.693 147.646 154.145 147.004C151.216 143.581 145.724 139.427 145.724 139.427C144.919 140.35 145.699 141.141 145.699 141.141L148.393 143.556C147.941 144.539 147.364 145.386 147.151 146.549C146.991 147.431 147.198 148.345 147.694 149.1C148.193 149.858 148.868 150.839 149.495 151.602C150.675 153.042 152.204 152.941 152.204 152.941Z" fill="#F7B896"/>
<path d="M188.777 157.178C183.085 165.051 181.227 166.767 171.722 165.755L167.01 174.399C174.668 178.829 187.194 175.07 194.341 169.785C199.169 162.102 201.135 144.336 188.777 157.178Z" fill="#7D7AB9"/>
<path d="M167.959 187.055C174.592 188.44 182.085 188.413 190.43 186.983L190.568 190.525C182.673 192.508 174.983 192.32 167.445 190.525L167.608 187.324C167.621 187.144 167.786 187.018 167.959 187.055Z" fill="#3D3D3D"/>
<defs>
<linearGradient id="paint0_linear_2865_8359" x1="-193.124" y1="274.039" x2="56.8834" y2="156.087" gradientUnits="userSpaceOnUse">
<stop stop-color="#7D7AB9"/>
<stop offset="1" stop-color="#7D7AB9"/>
</linearGradient>
<linearGradient id="paint1_linear_2865_8359" x1="-187.95" y1="209.291" x2="52.4393" y2="86.9645" gradientUnits="userSpaceOnUse">
<stop stop-color="#7D7AB9"/>
<stop offset="1" stop-color="#7D7AB9"/>
</linearGradient>
<linearGradient id="paint2_linear_2865_8359" x1="285.634" y1="48.7603" x2="200.468" y2="80.1099" gradientUnits="userSpaceOnUse">
<stop stop-color="#7D7AB9"/>
<stop offset="1" stop-color="#7D7AB9"/>
</linearGradient>
<linearGradient id="paint3_linear_2865_8359" x1="180.042" y1="6.73754" x2="96.0189" y2="65.3585" gradientUnits="userSpaceOnUse">
<stop stop-color="#D7B28E"/>
<stop offset="1" stop-color="#CA9765"/>
</linearGradient>
<linearGradient id="paint4_linear_2865_8359" x1="154.182" y1="23.195" x2="166.572" y2="41.1982" gradientUnits="userSpaceOnUse">
<stop stop-color="#4E4E4E"/>
<stop offset="1" stop-color="#4E4E4E"/>
</linearGradient>
<linearGradient id="paint5_linear_2865_8359" x1="157.726" y1="20.7573" x2="170.115" y2="38.7605" gradientUnits="userSpaceOnUse">
<stop stop-color="#4E4E4E"/>
<stop offset="1" stop-color="#4E4E4E"/>
</linearGradient>
<linearGradient id="paint6_linear_2865_8359" x1="232.115" y1="6.73754" x2="148.091" y2="65.3585" gradientUnits="userSpaceOnUse">
<stop stop-color="#D7B28E"/>
<stop offset="1" stop-color="#CA9765"/>
</linearGradient>
<linearGradient id="paint7_linear_2865_8359" x1="206.254" y1="23.195" x2="218.643" y2="41.1982" gradientUnits="userSpaceOnUse">
<stop stop-color="#4E4E4E"/>
<stop offset="1" stop-color="#4E4E4E"/>
</linearGradient>
<linearGradient id="paint8_linear_2865_8359" x1="209.797" y1="20.7573" x2="222.187" y2="38.7605" gradientUnits="userSpaceOnUse">
<stop stop-color="#4E4E4E"/>
<stop offset="1" stop-color="#4E4E4E"/>
</linearGradient>
<linearGradient id="paint9_linear_2865_8359" x1="282.962" y1="6.73754" x2="198.939" y2="65.3585" gradientUnits="userSpaceOnUse">
<stop stop-color="#D7B28E"/>
<stop offset="1" stop-color="#CA9765"/>
</linearGradient>
<linearGradient id="paint10_linear_2865_8359" x1="257.101" y1="23.195" x2="269.491" y2="41.1982" gradientUnits="userSpaceOnUse">
<stop stop-color="#4E4E4E"/>
<stop offset="1" stop-color="#4E4E4E"/>
</linearGradient>
<linearGradient id="paint11_linear_2865_8359" x1="260.645" y1="20.7573" x2="273.034" y2="38.7605" gradientUnits="userSpaceOnUse">
<stop stop-color="#4E4E4E"/>
<stop offset="1" stop-color="#4E4E4E"/>
</linearGradient>
<linearGradient id="paint12_linear_2865_8359" x1="335.906" y1="6.9104" x2="251.882" y2="65.5314" gradientUnits="userSpaceOnUse">
<stop stop-color="#D7B28E"/>
<stop offset="1" stop-color="#CA9765"/>
</linearGradient>
<linearGradient id="paint13_linear_2865_8359" x1="310.045" y1="23.3678" x2="322.434" y2="41.371" gradientUnits="userSpaceOnUse">
<stop stop-color="#4E4E4E"/>
<stop offset="1" stop-color="#4E4E4E"/>
</linearGradient>
<linearGradient id="paint14_linear_2865_8359" x1="313.588" y1="20.9301" x2="325.978" y2="38.9333" gradientUnits="userSpaceOnUse">
<stop stop-color="#4E4E4E"/>
<stop offset="1" stop-color="#4E4E4E"/>
</linearGradient>
<linearGradient id="paint15_linear_2865_8359" x1="60.091" y1="190.757" x2="-83.9171" y2="189.796" gradientUnits="userSpaceOnUse">
<stop stop-color="#CA9765"/>
<stop offset="1" stop-color="#FF928E"/>
</linearGradient>
<linearGradient id="paint16_linear_2865_8359" x1="134.027" y1="83.458" x2="12.1915" y2="221.985" gradientUnits="userSpaceOnUse">
<stop stop-color="#CA9765"/>
<stop offset="1" stop-color="#D7B28E"/>
</linearGradient>
<linearGradient id="paint17_linear_2865_8359" x1="106.956" y1="105.313" x2="83.5482" y2="131.661" gradientUnits="userSpaceOnUse">
<stop stop-color="#4E4E4E"/>
<stop offset="1" stop-color="#4E4E4E"/>
</linearGradient>
<linearGradient id="paint18_linear_2865_8359" x1="110.247" y1="124.657" x2="107.981" y2="135.773" gradientUnits="userSpaceOnUse">
<stop stop-color="#4E4E4E"/>
<stop offset="1" stop-color="#4E4E4E"/>
</linearGradient>
<linearGradient id="paint19_linear_2865_8359" x1="110.382" y1="126.526" x2="108.113" y2="137.641" gradientUnits="userSpaceOnUse">
<stop stop-color="#4E4E4E"/>
<stop offset="1" stop-color="#4E4E4E"/>
</linearGradient>
<linearGradient id="paint20_linear_2865_8359" x1="108.57" y1="125.754" x2="106.299" y2="136.88" gradientUnits="userSpaceOnUse">
<stop stop-color="#4E4E4E"/>
<stop offset="1" stop-color="#4E4E4E"/>
</linearGradient>
<linearGradient id="paint21_linear_2865_8359" x1="110.566" y1="122.875" x2="108.295" y2="134.001" gradientUnits="userSpaceOnUse">
<stop stop-color="#4E4E4E"/>
<stop offset="1" stop-color="#4E4E4E"/>
</linearGradient>
<linearGradient id="paint22_linear_2865_8359" x1="118.408" y1="124.357" x2="116.141" y2="135.473" gradientUnits="userSpaceOnUse">
<stop stop-color="#4E4E4E"/>
<stop offset="1" stop-color="#4E4E4E"/>
</linearGradient>
<linearGradient id="paint23_linear_2865_8359" x1="117.217" y1="125.32" x2="114.948" y2="136.435" gradientUnits="userSpaceOnUse">
<stop stop-color="#4E4E4E"/>
<stop offset="1" stop-color="#4E4E4E"/>
</linearGradient>
<linearGradient id="paint24_linear_2865_8359" x1="118.544" y1="126.225" x2="116.278" y2="137.341" gradientUnits="userSpaceOnUse">
<stop stop-color="#4E4E4E"/>
<stop offset="1" stop-color="#4E4E4E"/>
</linearGradient>
<linearGradient id="paint25_linear_2865_8359" x1="118.724" y1="122.576" x2="116.451" y2="133.702" gradientUnits="userSpaceOnUse">
<stop stop-color="#4E4E4E"/>
<stop offset="1" stop-color="#4E4E4E"/>
</linearGradient>
<linearGradient id="paint26_linear_2865_8359" x1="117.295" y1="123.318" x2="115.022" y2="134.444" gradientUnits="userSpaceOnUse">
<stop stop-color="#4E4E4E"/>
<stop offset="1" stop-color="#4E4E4E"/>
</linearGradient>
<linearGradient id="paint27_linear_2865_8359" x1="108.172" y1="123.192" x2="105.903" y2="134.307" gradientUnits="userSpaceOnUse">
<stop stop-color="#4E4E4E"/>
<stop offset="1" stop-color="#4E4E4E"/>
</linearGradient>
<linearGradient id="paint28_linear_2865_8359" x1="108.095" y1="122.109" x2="105.829" y2="133.225" gradientUnits="userSpaceOnUse">
<stop stop-color="#4E4E4E"/>
<stop offset="1" stop-color="#4E4E4E"/>
</linearGradient>
<linearGradient id="paint29_linear_2865_8359" x1="115.354" y1="121.158" x2="113.083" y2="132.285" gradientUnits="userSpaceOnUse">
<stop stop-color="#4E4E4E"/>
<stop offset="1" stop-color="#4E4E4E"/>
</linearGradient>
<linearGradient id="paint30_linear_2865_8359" x1="111.818" y1="124.375" x2="109.544" y2="135.5" gradientUnits="userSpaceOnUse">
<stop stop-color="#4E4E4E"/>
<stop offset="1" stop-color="#4E4E4E"/>
</linearGradient>
<linearGradient id="paint31_linear_2865_8359" x1="113.124" y1="125.424" x2="110.858" y2="136.54" gradientUnits="userSpaceOnUse">
<stop stop-color="#4E4E4E"/>
<stop offset="1" stop-color="#4E4E4E"/>
</linearGradient>
<linearGradient id="paint32_linear_2865_8359" x1="114.453" y1="126.374" x2="112.18" y2="137.499" gradientUnits="userSpaceOnUse">
<stop stop-color="#4E4E4E"/>
<stop offset="1" stop-color="#4E4E4E"/>
</linearGradient>
<linearGradient id="paint33_linear_2865_8359" x1="113.467" y1="121.403" x2="111.194" y2="132.529" gradientUnits="userSpaceOnUse">
<stop stop-color="#4E4E4E"/>
<stop offset="1" stop-color="#4E4E4E"/>
</linearGradient>
<linearGradient id="paint34_linear_2865_8359" x1="114.433" y1="123.051" x2="112.16" y2="134.177" gradientUnits="userSpaceOnUse">
<stop stop-color="#4E4E4E"/>
<stop offset="1" stop-color="#4E4E4E"/>
</linearGradient>
<linearGradient id="paint35_linear_2865_8359" x1="115.567" y1="124.102" x2="113.298" y2="135.217" gradientUnits="userSpaceOnUse">
<stop stop-color="#4E4E4E"/>
<stop offset="1" stop-color="#4E4E4E"/>
</linearGradient>
<linearGradient id="paint36_linear_2865_8359" x1="120.53" y1="106.215" x2="100.365" y2="136.757" gradientUnits="userSpaceOnUse">
<stop stop-color="#4E4E4E"/>
<stop offset="1" stop-color="#4E4E4E"/>
</linearGradient>
<linearGradient id="paint37_linear_2865_8359" x1="209.684" y1="57.3547" x2="125.661" y2="115.976" gradientUnits="userSpaceOnUse">
<stop stop-color="#D7B28E"/>
<stop offset="1" stop-color="#CA9765"/>
</linearGradient>
<linearGradient id="paint38_linear_2865_8359" x1="183.824" y1="73.8102" x2="196.213" y2="91.8134" gradientUnits="userSpaceOnUse">
<stop stop-color="#4E4E4E"/>
<stop offset="1" stop-color="#4E4E4E"/>
</linearGradient>
<linearGradient id="paint39_linear_2865_8359" x1="187.367" y1="71.3725" x2="199.757" y2="89.3757" gradientUnits="userSpaceOnUse">
<stop stop-color="#4E4E4E"/>
<stop offset="1" stop-color="#4E4E4E"/>
</linearGradient>
<linearGradient id="paint40_linear_2865_8359" x1="260.539" y1="57.3547" x2="176.516" y2="115.976" gradientUnits="userSpaceOnUse">
<stop stop-color="#D7B28E"/>
<stop offset="1" stop-color="#CA9765"/>
</linearGradient>
<linearGradient id="paint41_linear_2865_8359" x1="234.678" y1="73.8102" x2="247.068" y2="91.8134" gradientUnits="userSpaceOnUse">
<stop stop-color="#4E4E4E"/>
<stop offset="1" stop-color="#4E4E4E"/>
</linearGradient>
<linearGradient id="paint42_linear_2865_8359" x1="238.222" y1="71.3725" x2="250.611" y2="89.3757" gradientUnits="userSpaceOnUse">
<stop stop-color="#4E4E4E"/>
<stop offset="1" stop-color="#4E4E4E"/>
</linearGradient>
<linearGradient id="paint43_linear_2865_8359" x1="313.477" y1="57.5286" x2="229.453" y2="116.15" gradientUnits="userSpaceOnUse">
<stop stop-color="#D7B28E"/>
<stop offset="1" stop-color="#CA9765"/>
</linearGradient>
<linearGradient id="paint44_linear_2865_8359" x1="287.617" y1="73.9821" x2="300.006" y2="91.9853" gradientUnits="userSpaceOnUse">
<stop stop-color="#4E4E4E"/>
<stop offset="1" stop-color="#4E4E4E"/>
</linearGradient>
<linearGradient id="paint45_linear_2865_8359" x1="291.16" y1="71.5444" x2="303.55" y2="89.5476" gradientUnits="userSpaceOnUse">
<stop stop-color="#4E4E4E"/>
<stop offset="1" stop-color="#4E4E4E"/>
</linearGradient>
<linearGradient id="paint46_linear_2865_8359" x1="399.684" y1="273.265" x2="394.439" y2="273.265" gradientUnits="userSpaceOnUse">
<stop stop-color="#FF928E"/>
<stop offset="1" stop-color="#FEB3B1"/>
</linearGradient>
<linearGradient id="paint47_linear_2865_8359" x1="429.141" y1="270.531" x2="422.873" y2="270.531" gradientUnits="userSpaceOnUse">
<stop stop-color="#FF928E"/>
<stop offset="1" stop-color="#FEB3B1"/>
</linearGradient>
<linearGradient id="paint48_linear_2865_8359" x1="307.964" y1="170.608" x2="288.37" y2="193.095" gradientUnits="userSpaceOnUse">
<stop stop-color="#FF928E"/>
<stop offset="1" stop-color="#FEB3B1"/>
</linearGradient>
<linearGradient id="paint49_linear_2865_8359" x1="143.981" y1="138.189" x2="149.766" y2="146.35" gradientUnits="userSpaceOnUse">
<stop stop-color="#FF928E"/>
<stop offset="1" stop-color="#FEB3B1"/>
</linearGradient>
<linearGradient id="paint50_linear_2865_8359" x1="182.518" y1="260.18" x2="184.748" y2="279.641" gradientUnits="userSpaceOnUse">
<stop stop-color="#FF928E"/>
<stop offset="1" stop-color="#FEB3B1"/>
</linearGradient>
<linearGradient id="paint51_linear_2865_8359" x1="164.357" y1="262.26" x2="166.587" y2="281.721" gradientUnits="userSpaceOnUse">
<stop stop-color="#FF928E"/>
<stop offset="1" stop-color="#FEB3B1"/>
</linearGradient>
<linearGradient id="paint52_linear_2865_8359" x1="187.393" y1="21.0681" x2="182.453" y2="50.9505" gradientUnits="userSpaceOnUse">
<stop stop-color="#4042E2"/>
<stop offset="1" stop-color="#4F52FF"/>
</linearGradient>
<linearGradient id="paint53_linear_2865_8359" x1="164.646" y1="97.7894" x2="159.213" y2="108.985" gradientUnits="userSpaceOnUse">
<stop stop-color="white"/>
<stop offset="1" stop-color="#E7E7E7"/>
</linearGradient>
<linearGradient id="paint54_linear_2865_8359" x1="150.525" y1="99.9932" x2="149.537" y2="108.39" gradientUnits="userSpaceOnUse">
<stop stop-color="white"/>
<stop offset="1" stop-color="white"/>
</linearGradient>
</defs>
</svg>
