<svg width="25" height="25" viewBox="0 0 25 25" fill="none" xmlns="http://www.w3.org/2000/svg">
<path fill-rule="evenodd" clip-rule="evenodd" d="M12.1949 0.0595097C12.1244 0.0918828 9.3934 1.96117 6.12606 4.21352C0.950283 7.78139 0.173038 8.33295 0.0891021 8.4974C-0.0056733 8.68319 -0.00699166 8.80429 0.00560599 16.1455L0.0184478 23.6047L0.169571 23.9221C0.361563 24.3254 0.664883 24.6288 1.06825 24.8207L1.38564 24.9719H12.494H23.6024L23.9276 24.8178C24.3314 24.6265 24.6219 24.3344 24.8184 23.9221L24.9696 23.6047L24.9814 16.134L24.9933 8.66327L24.8838 8.47333C24.7919 8.31396 23.8132 7.62138 18.8002 4.16869C15.5145 1.9056 12.7789 0.0412968 12.7211 0.0257695C12.5554 -0.0186641 12.3345 -0.00450395 12.1949 0.0595097ZM18.001 5.51386L23.4279 9.24921L23.4297 16.2522C23.4314 22.7016 23.4251 23.2623 23.3507 23.3445C23.2753 23.4278 23.1533 23.4338 21.5206 23.4338H19.7712L19.7711 17.742C19.7708 11.4399 19.7913 11.8418 19.4582 11.6042L19.3056 11.4953H12.494H5.68251L5.52982 11.6042C5.19672 11.8418 5.21723 11.4399 5.21698 17.742L5.21684 23.4338H3.47597C1.9246 23.4338 1.72538 23.425 1.64584 23.353C1.5601 23.2754 1.55663 22.993 1.55893 16.2607L1.56127 9.24921L7.01225 5.49979C10.0103 3.43764 12.4882 1.75673 12.5187 1.76444C12.5492 1.77221 15.0162 3.45941 18.001 5.51386ZM18.2069 14.0588V15.0842H12.494H6.78114V14.0588V13.0334H12.494H18.2069V14.0588ZM18.2069 17.965V19.2834H12.494H6.78114V17.965V16.6467H12.494H18.2069V17.965ZM18.2069 22.1398V23.4338H12.494H6.78114V22.1398V20.8459H12.494H18.2069V22.1398Z" fill="#5F5F5F"/>
</svg>
