<svg width="25" height="25" viewBox="0 0 25 25" fill="none" xmlns="http://www.w3.org/2000/svg">
<path d="M13.2666 24.5017C12.5976 24.5017 11.9286 24.5017 11.2596 24.5017C10.6921 24.4249 10.1246 24.3585 9.56497 24.231C3.00781 22.7355 -1.20268 16.2551 0.307111 9.56131C1.78696 2.99633 8.29727 -1.24149 14.9729 0.32687C19.6246 1.42016 22.6377 4.38247 24.0654 8.94438C24.301 9.69797 24.4038 10.4802 24.4976 11.2624C24.4976 11.9314 24.4976 12.6004 24.4976 13.2694C24.4221 13.8369 24.3674 14.4069 24.2242 14.9627C23.0333 19.6001 20.153 22.6379 15.5833 24.0683C14.8297 24.3052 14.0488 24.4067 13.2666 24.5017ZM7.5 9.56131C7.51432 9.17605 5.68477 -0.934324 8.5 4.31349C8.15379 3.2241 12.6444 3.91392 11.6227 4.31349C10.8483 4.61545 10.4839 5.2467 10.3667 6.03673C10.2457 6.8502 10.3667 7.65845 10.4813 8.4589C10.7286 10.1769 11.1516 11.8585 11.6357 13.5245C11.6852 13.6924 11.749 13.8564 11.8648 13.9931C12.1004 14.2703 12.2657 12.2772 12.5 12C12.6367 11.8373 12.8644 13.6351 12.9177 13.4347C13.1052 12.7358 11.2882 17.2015 11.4639 16.5C11.8427 14.9772 7.44664 11.1349 7.5 9.56131ZM7.5 18.1502C7.5039 17.6595 13.7026 17.4421 13.3225 17.1129C12.8253 16.6807 16.1807 19.0087 15.5833 19.2469C15.0093 19.476 10.7663 17.5411 10.7051 18.1502C10.6335 18.8504 10.8288 19.4556 11.4639 19.8292C12.4062 20.3836 7.51952 19.6456 7.5 18.1502Z" fill="#38A06C"/>
<path d="M6 12.0909L10.5882 17L19 8" stroke="#E1FCEF" stroke-width="2" stroke-linecap="round" stroke-linejoin="round"/>
</svg>
