<svg width="263" height="34" viewBox="0 0 263 34" fill="none" xmlns="http://www.w3.org/2000/svg">
<path d="M53.0895 25.6782C53.0895 25.6782 56.028 29.2418 60.621 29.2418C63.8101 29.2418 66.3758 27.1708 66.3758 24.0633C66.3758 16.8617 52.0127 18.3021 52.0127 9.26959C52.0127 5.20836 55.531 1.81055 60.9109 1.81055C63.7273 1.81055 68.7758 3.01298 68.7758 6.8298V8.90078H66.0445V7.52813C66.0445 5.7823 63.6466 4.50348 60.9523 4.50348C57.1855 4.50348 54.9926 6.70104 54.9926 9.18666C54.9926 15.9408 69.3557 14.2845 69.3557 23.8974C69.3557 28.2489 66.003 31.937 60.5403 31.937C58.7962 31.9382 57.0717 31.5693 55.4804 30.8546C53.8892 30.1399 52.4673 29.0956 51.3086 27.7906L53.0895 25.6782Z" fill="#0E1030"/>
<path d="M74.9441 13.953C74.9572 13.83 74.9426 13.7057 74.9014 13.5891C74.8602 13.4725 74.7935 13.3665 74.7062 13.2791C74.6188 13.1916 74.513 13.1248 74.3965 13.0836C74.28 13.0424 74.1558 13.0278 74.033 13.0408H72.2891V10.5967H75.2275C77.0063 10.5967 77.7518 11.3408 77.7518 13.0408V23.1099C77.7518 26.3833 78.2902 29.2836 82.3055 29.2836C87.0249 29.2836 89.9634 25.1001 89.9634 20.5828V10.5967H92.7776V28.0833C92.7776 28.7053 93.1089 28.9955 93.6888 28.9955H95.4327V31.4397H92.577C90.8332 31.4397 90.0528 30.6933 90.0528 29.1177V28.1662C90.0526 27.6675 90.0803 27.1692 90.1356 26.6736H90.0528C89.3528 28.2418 88.2141 29.5734 86.7742 30.5076C85.3344 31.4417 83.6551 31.9382 81.9393 31.9372C77.0128 31.9372 74.9441 29.2836 74.9441 23.8628V13.953Z" fill="#0E1030"/>
<path d="M99.9876 13.9525C100.001 13.8291 99.986 13.7044 99.9446 13.5874C99.9032 13.4704 99.8361 13.3643 99.7482 13.2767C99.6604 13.1892 99.554 13.1225 99.437 13.0816C99.3199 13.0407 99.1952 13.0266 99.072 13.0403H97.3281V10.5962H100.227C101.971 10.5962 102.752 11.3404 102.752 12.916V13.8696C102.752 14.3676 102.724 14.8652 102.669 15.3601H102.752C103.785 12.5428 107.057 10.0986 110.285 10.0986C114.133 10.0986 116.121 11.8794 116.742 15.3187H116.825C117.943 12.5013 120.967 10.0986 124.483 10.0986C129.531 10.0986 131.395 13.0403 131.395 18.1731V28.0763C131.395 28.6982 131.726 28.9885 132.304 28.9885H134.048V31.4326H131.116C129.335 31.4326 128.59 30.6863 128.59 28.9034V18.8823C128.59 15.4845 127.888 12.6672 124.079 12.6672C120.934 12.6672 118.325 15.4845 117.498 18.5593C117.219 19.5423 117.094 20.5626 117.126 21.584V31.4479H114.309V18.8823C114.309 15.7333 113.854 12.6672 109.921 12.6672C106.527 12.6672 104.001 15.6089 103.133 18.7994C102.896 19.7051 102.784 20.6391 102.802 21.5753V31.4392H99.9876V13.9525Z" fill="#0E1030"/>
<path d="M138.775 12.9584H136.041V10.5972H138.816V4.83594H141.58V10.5972H146.812V12.9584H141.58V23.5686C141.58 28.4591 144.684 29.0789 146.258 29.0789C146.577 29.0829 146.895 29.0558 147.208 28.9982V31.5253C146.811 31.5829 146.411 31.6106 146.01 31.6082C143.612 31.6082 138.766 30.8204 138.766 23.8589L138.775 12.9584Z" fill="#0E1030"/>
<path d="M152.393 13.9523C152.406 13.8293 152.392 13.705 152.351 13.5884C152.309 13.4718 152.243 13.3659 152.155 13.2784C152.068 13.1909 151.962 13.1242 151.846 13.0829C151.729 13.0417 151.605 13.0271 151.482 13.0401H149.738V10.596H152.635C154.379 10.596 155.16 11.2987 155.16 12.9572V14.3648C155.16 14.8911 155.132 15.417 155.077 15.9404H155.16C156.154 12.7914 158.471 10.3887 161.741 10.3887C162.117 10.3927 162.491 10.4343 162.859 10.5131V13.2889C162.516 13.2361 162.17 13.2084 161.823 13.206C158.885 13.206 156.692 15.5258 155.781 18.5919C155.386 19.909 155.19 21.2779 155.201 22.6531V31.439H152.393V13.9523Z" fill="#0E1030"/>
<path d="M176.814 18.5921H177.982V18.3433C177.982 13.994 176.411 12.4511 172.603 12.4511C171.567 12.4511 168.546 12.7414 168.546 14.2755V15.6002H165.845V13.6208C165.845 10.7206 170.811 10.0986 172.633 10.0986C179.214 10.0986 180.788 13.6208 180.788 18.0945V28.0828C180.788 28.7048 181.119 28.995 181.697 28.995H183.441V31.4392H180.585C178.804 31.4392 178.1 30.6514 178.1 28.9536C178.1 28.0414 178.142 27.426 178.142 27.426H178.059C178.1 27.426 176.363 31.9433 171.146 31.9433C167.659 31.9433 164.068 29.9116 164.068 25.7674C164.068 18.8474 173.224 18.5986 176.818 18.5986L176.814 18.5921ZM171.602 29.5384C175.576 29.5384 177.976 25.3921 177.976 21.7891V20.8311H176.777C173.507 20.8311 166.968 20.914 166.968 25.5972C166.968 27.5438 168.493 29.5253 171.604 29.5253" fill="#0E1030"/>
<path d="M196.933 10.0986C199.292 10.0986 204.345 11.0916 204.345 14.5308V16.3967H201.692V15.1943C201.692 13.4484 198.671 12.6257 196.933 12.6257C192.462 12.6257 188.868 15.9821 188.868 21.0384C188.868 26.1755 192.635 29.366 197.023 29.366C198.282 29.3605 199.526 29.0966 200.68 28.5906C201.833 28.0846 202.87 27.3474 203.728 26.4243L205.051 28.5389C205.051 28.5389 202.237 31.9367 196.898 31.9367C190.688 31.9367 185.971 27.5023 185.971 21.0384C185.971 14.6552 190.732 10.0986 196.94 10.0986" fill="#0E1030"/>
<path d="M209.518 5.67367C209.531 5.55068 209.517 5.42632 209.476 5.30971C209.434 5.1931 209.368 5.08719 209.28 4.99973C209.193 4.91227 209.087 4.84549 208.971 4.80426C208.854 4.76304 208.73 4.74842 208.607 4.76148H206.863V2.30859H209.81C211.589 2.30859 212.335 2.93054 212.335 4.7091V18.5491H214.488C215.273 18.5491 216.267 18.3004 216.847 17.5562L222.186 10.5947H225.621L219.62 18.2196C218.587 19.505 218.048 19.7123 218.048 19.7123V19.7952C218.048 19.7952 218.667 20.0855 219.33 21.3228L223.097 28.0879C223.469 28.7928 223.884 29.0001 225.002 29.0001H226.118V31.4442H224.174C222.105 31.4442 221.525 31.1125 220.572 29.3711L216.431 21.912C215.975 21.0849 214.983 21.002 214.238 21.002H212.333V31.4442H209.518V5.67367Z" fill="#0E1030"/>
<path d="M238.163 10.0986C243.916 10.0986 246.896 14.5308 246.896 19.7116C246.896 20.2091 246.813 21.1213 246.813 21.1213H230.837C230.917 26.3828 234.603 29.414 238.902 29.414C242.71 29.414 245.154 26.8455 245.154 26.8455L246.519 28.9601C244.383 30.8583 241.633 31.9181 238.778 31.9433C232.611 31.9433 227.892 27.4674 227.892 21.045C227.892 14.2079 232.57 10.1052 238.159 10.1052L238.163 10.0986ZM243.994 18.8889C243.829 14.5789 241.18 12.4664 238.109 12.4664C234.673 12.4664 231.652 14.7032 230.95 18.8889H243.994Z" fill="#0E1030"/>
<path d="M252.535 13.9523C252.548 13.8293 252.533 13.705 252.492 13.5884C252.451 13.4718 252.384 13.3659 252.297 13.2784C252.21 13.1909 252.104 13.1242 251.987 13.0829C251.871 13.0417 251.747 13.0271 251.624 13.0401H249.88V10.596H252.777C254.521 10.596 255.301 11.2987 255.301 12.9572V14.3648C255.301 14.8911 255.273 15.417 255.218 15.9404H255.301C256.295 12.7914 258.612 10.3887 261.882 10.3887C262.258 10.3927 262.633 10.4343 263 10.5131V13.2889C262.658 13.2361 262.312 13.2084 261.965 13.206C259.027 13.206 256.834 15.5258 255.922 18.5919C255.527 19.909 255.332 21.2779 255.343 22.6531V31.439H252.535V13.9523Z" fill="#0E1030"/>
<path d="M33.1339 4.86213C33.0323 4.58833 32.9144 4.32089 32.7808 4.06123C32.4476 3.40571 32.0161 2.80517 31.5012 2.28049L31.4641 2.24775C30.7247 1.50587 29.8318 0.935273 28.8483 0.576123C27.0303 0 25.3474 0 21.9621 0H11.756C8.37067 0 6.6791 0 4.85673 0.576123C3.87366 0.933999 2.98088 1.50321 2.24121 2.2437C1.50154 2.98419 0.932963 3.87796 0.575484 4.86213C0 6.68651 0 8.37997 0 11.7691V21.9865C0 25.3756 0 27.0603 0.575484 28.8934C0.934236 29.878 1.5042 30.7719 2.24526 31.5122L2.27796 31.5493C2.80206 32.0647 3.40194 32.4967 4.05672 32.8303C4.3164 32.9596 4.58354 33.0732 4.85673 33.1707C6.6791 33.7468 8.37067 33.7468 11.756 33.7468H21.9621C25.3474 33.7468 27.039 33.7468 28.8614 33.1707C29.842 32.8127 30.7325 32.2443 31.4705 31.5055C32.2086 30.7666 32.7763 29.8751 33.1339 28.8934C33.7094 27.069 33.7094 25.3756 33.7094 21.9865V11.7691C33.7094 8.37997 33.7094 6.68651 33.1339 4.86213Z" fill="#7D7AB9"/>
<path d="M11.8464 9.86279C11.7767 14.6878 17.2961 20.7938 12.9015 24.6696C14.6628 27.476 16.5789 28.2725 18.1441 27.1552C19.1838 26.4045 19.9686 24.591 20.8471 22.7121C26.1856 15.408 22.8678 19.2204 20.5615 10.3582C20.0798 9.6402 10.0786 7.15458 11.8421 9.86279" fill="#CA9765"/>
<path d="M24.001 17.8773C22.6534 17.076 21.5737 15.8924 20.8985 14.4764C20.2233 13.0604 19.983 11.4757 20.208 9.92285L20.6244 9.98396C20.411 11.4543 20.6385 12.9549 21.2781 14.2957C21.9176 15.6364 22.9404 16.7569 24.2168 17.515L24.001 17.8773Z" fill="#EEEFEF"/>
<path d="M27.7015 12.1372C28.3118 9.85452 26.472 8.87467 22.6704 9.60137C21.9401 9.74104 21.042 9.6232 20.7085 10.0116C19.1826 11.7837 22.6028 17.6758 24.3205 17.4576C25.4366 17.3245 26.8165 15.439 27.7015 12.1328" fill="#EEEFEF"/>
<path d="M16.3496 13.365C16.3616 13.4717 16.4015 13.5733 16.4651 13.6596C16.521 13.7194 16.5885 13.767 16.6635 13.7997C16.7385 13.8323 16.8194 13.8493 16.9011 13.8495C17.0514 13.864 17.2026 13.8353 17.3371 13.7666C17.4053 13.7327 17.4655 13.6846 17.5136 13.6255C17.5617 13.5664 17.5967 13.4977 17.6161 13.4239C17.6324 13.3455 17.6324 13.2645 17.6161 13.1861C17.6005 13.0915 17.5657 13.0011 17.514 12.9204C17.4623 12.8398 17.3947 12.7705 17.3153 12.7169C17.2376 12.6665 17.1493 12.635 17.0574 12.6247C16.9654 12.6145 16.8724 12.6259 16.7856 12.658C16.7856 12.658 16.2733 12.9024 16.3627 13.3563" fill="#0E1030"/>
<path d="M16.1537 13.4207C16.1671 13.5191 16.2001 13.6138 16.2506 13.6993C16.3012 13.7847 16.3683 13.8592 16.448 13.9183C16.612 14.0217 16.8038 14.072 16.9973 14.0623C17.2055 14.0707 17.4091 13.9997 17.5669 13.8635C17.7247 13.7274 17.825 13.5364 17.8475 13.329C17.8543 13.1284 17.7935 12.9313 17.6749 12.7694C17.5563 12.6075 17.3868 12.4902 17.1935 12.4365C17.0773 12.407 16.956 12.4042 16.8386 12.4284C16.7211 12.4526 16.6107 12.5031 16.5156 12.5761C16.4004 12.6597 16.3027 12.7649 16.2279 12.886C16.1353 13.0479 16.105 13.2381 16.1428 13.4207C16.1591 13.4738 16.1949 13.5188 16.2432 13.5464C16.2914 13.574 16.3483 13.5821 16.4022 13.5691C16.4581 13.5565 16.5068 13.5225 16.5378 13.4743C16.5688 13.4261 16.5796 13.3677 16.5679 13.3116C16.5679 13.2548 16.5679 13.3552 16.5679 13.3007V13.2243C16.5679 13.1894 16.5679 13.2243 16.5679 13.2243C16.5679 13.2243 16.581 13.1675 16.5854 13.1545C16.5863 13.1436 16.5863 13.1326 16.5854 13.1217C16.5854 13.1064 16.5854 13.1217 16.5854 13.1392V13.1152C16.5854 13.0955 16.6071 13.0759 16.6202 13.0563C16.6258 13.0493 16.6309 13.0421 16.6355 13.0344C16.6616 12.9973 16.6028 13.0715 16.6355 13.0344C16.6616 13.0032 16.69 12.974 16.7205 12.9471C16.7205 12.9471 16.7597 12.9079 16.7641 12.91C16.7685 12.9122 16.7183 12.9428 16.7641 12.91L16.7815 12.8991L16.8535 12.8533L16.8905 12.8337C16.9058 12.8206 16.823 12.8533 16.8905 12.8337L16.9298 12.8206H16.969C16.9995 12.8184 17.0301 12.8184 17.0606 12.8206C17.1194 12.8206 17.0257 12.8097 17.0845 12.8206H17.126L17.1826 12.8402C17.1826 12.8402 17.1543 12.8249 17.1826 12.8402L17.235 12.8708C17.235 12.8708 17.2851 12.91 17.2546 12.8708C17.2787 12.8916 17.3013 12.9142 17.3221 12.9384L17.3483 12.9668C17.32 12.9319 17.3483 12.9821 17.3483 12.9864C17.3653 13.0138 17.3806 13.0422 17.3941 13.0715C17.3941 13.0715 17.381 13.0344 17.3941 13.0715C17.4019 13.0922 17.4085 13.1133 17.4137 13.1348C17.4337 13.1915 17.4382 13.2525 17.4268 13.3116C17.4268 13.2788 17.4268 13.3421 17.4268 13.3443C17.4268 13.3465 17.4268 13.3683 17.4268 13.3792C17.442 13.3378 17.4268 13.3923 17.4137 13.3967C17.4048 13.4135 17.3946 13.4295 17.3832 13.4447C17.4072 13.4141 17.3832 13.4447 17.3832 13.4447L17.3505 13.4796L17.32 13.5036C17.3548 13.4774 17.3047 13.5036 17.3003 13.5036L17.2676 13.5233C17.2676 13.5233 17.2044 13.5516 17.2393 13.5385C17.2022 13.5517 17.1644 13.5627 17.126 13.5713C17.126 13.5713 17.0715 13.5713 17.1063 13.5713H17.0409H16.9123C16.8535 13.5713 16.9363 13.5713 16.9014 13.5713L16.836 13.556H16.799L16.7619 13.5429C16.7794 13.5429 16.7815 13.5429 16.7619 13.5429L16.7205 13.5211C16.7205 13.5211 16.6725 13.4862 16.7009 13.5102L16.6333 13.5298C16.605 13.5014 16.6333 13.5451 16.6181 13.508L16.6028 13.4796C16.6028 13.4949 16.6028 13.4796 16.6028 13.4796C16.6018 13.4673 16.6018 13.4549 16.6028 13.4425C16.5886 13.3996 16.577 13.3559 16.5679 13.3116C16.5679 13.278 16.5602 13.2449 16.5453 13.2148C16.5304 13.1846 16.5088 13.1584 16.4822 13.138C16.4555 13.1176 16.4245 13.1037 16.3915 13.0973C16.3586 13.0909 16.3246 13.0922 16.2923 13.1011C16.2599 13.1099 16.2301 13.1262 16.205 13.1485C16.1799 13.1708 16.1604 13.1987 16.1478 13.2298C16.1352 13.2609 16.13 13.2946 16.1326 13.3281C16.1351 13.3615 16.1453 13.394 16.1625 13.4229" fill="#0E1030"/>
<path d="M25.2215 8.96776C25.2412 9.40422 25.3066 9.9847 25.6096 10.3339C25.7582 10.4946 25.9607 10.5948 26.1785 10.6154C26.3841 10.6238 26.5901 10.6114 26.7932 10.5783C27.0112 10.5608 27.0919 10.6612 27.1202 10.862C27.1237 11.0945 27.1537 11.3259 27.2096 11.5516C27.2878 11.741 27.422 11.9019 27.5943 12.0127C27.7665 12.1235 27.9685 12.1789 28.1731 12.1714C28.4412 12.1583 28.4434 11.7349 28.1731 11.7502C28.0939 11.7557 28.0143 11.745 27.9394 11.7188C27.8644 11.6925 27.7956 11.6512 27.7371 11.5974C27.6752 11.5365 27.6267 11.4633 27.5948 11.3825C27.5629 11.3017 27.5483 11.215 27.5518 11.1282C27.5344 10.7594 27.4951 10.3142 27.0788 10.1833C26.7344 10.0742 26.342 10.3273 26.0172 10.1331C25.8698 10.0154 25.7725 9.84621 25.7447 9.65954C25.6841 9.43352 25.6483 9.20156 25.6379 8.96776C25.6379 8.69934 25.2019 8.69716 25.2172 8.96776" fill="#0E1030"/>
<path d="M18.1636 28.518C18.0779 28.5182 17.9935 28.4975 17.9177 28.4575C17.8419 28.4176 17.7769 28.3597 17.7286 28.289C17.6802 28.2182 17.6499 28.1366 17.6402 28.0514C17.6306 27.9662 17.6419 27.8799 17.6732 27.8C18.9145 24.6113 20.6026 21.6156 22.6868 18.9029C23.1817 18.2482 23.707 17.6197 24.2127 17.0021C25.5882 15.3305 27.0095 13.5999 27.9185 11.638C28.1342 11.2214 28.2647 10.7659 28.3022 10.2981C28.3141 10.1142 28.2826 9.93008 28.2103 9.76062C28.138 9.59115 28.0268 9.44111 27.8858 9.32264C27.4956 9.05203 26.8853 9.1546 26.2378 9.29427C25.0389 9.55178 23.816 9.77873 22.604 9.97077C20.7707 10.261 18.6497 10.512 16.6966 9.80056C16.4568 9.71327 16.2192 9.6107 15.9816 9.51031C15.5771 9.31576 15.1514 9.16927 14.7129 9.07386C14.1375 9.00912 13.5555 9.03637 12.9886 9.1546L11.9794 9.30736C10.7238 9.49285 9.81693 9.62816 8.35206 9.96205C8.2162 9.99388 8.07327 9.97038 7.95472 9.89671C7.83616 9.82304 7.7517 9.70525 7.7199 9.56923C7.6881 9.43322 7.71158 9.29013 7.78516 9.17145C7.85875 9.05276 7.97641 8.96821 8.11227 8.93637C9.61856 8.58066 10.545 8.44318 11.818 8.25332L12.8208 8.10274C13.4995 7.96578 14.1958 7.93925 14.8829 8.02418C15.4052 8.13289 15.9124 8.30435 16.3936 8.53483C16.6116 8.62867 16.8295 8.72251 17.0475 8.80325C18.7653 9.42739 20.7271 9.1917 22.4318 8.92328C23.6242 8.73342 24.8296 8.51083 26.0089 8.25768C26.6629 8.11365 27.6809 7.89761 28.4766 8.44972C28.7635 8.6644 28.9931 8.94655 29.1452 9.27123C29.2973 9.5959 29.3671 9.95309 29.3485 10.3112C29.311 10.9243 29.1478 11.523 28.8689 12.0701C27.9032 14.1651 26.4384 15.948 25.0215 17.6764C24.5179 18.2875 23.9991 18.9181 23.5152 19.551C21.4932 22.1836 19.8564 25.0912 18.6541 28.1863C18.616 28.2855 18.5488 28.3708 18.4612 28.4308C18.3735 28.4908 18.2698 28.5228 18.1636 28.5224" fill="#0E1030"/>
<path d="M8.03296 25.0329C9.17739 25.2904 10.3676 25.1376 11.5207 24.9107C12.0139 24.8324 12.4938 24.6855 12.9464 24.4742C13.8183 24.0225 14.3873 23.1038 14.5834 22.1392C14.7445 21.1646 14.6697 20.1656 14.3655 19.2258C14.093 18.2809 13.6919 17.3796 13.354 16.4543C12.8959 15.2077 12.5543 13.9212 12.3338 12.6113C12.166 11.6228 12.0635 10.608 11.6973 9.674C11.6375 9.48476 11.5248 9.31664 11.3725 9.18953C11.1733 9.07941 10.944 9.03655 10.7185 9.06732C9.74312 9.09864 8.77684 9.26611 7.84767 9.56488C7.30403 9.78208 6.86673 10.2034 6.62913 10.739C6.39486 11.2695 6.23777 11.831 6.16264 12.4062C6.05146 13.0609 5.94465 13.7156 5.85746 14.3703C5.71213 15.345 5.56681 16.3198 5.42148 17.2945C5.2035 18.7698 4.98551 20.245 4.9114 21.7333C4.87626 22.1095 4.89609 22.4889 4.97025 22.8593C5.18824 23.7759 6.08416 24.5877 8.02206 25.0285" fill="#0E1030"/>
<path d="M7.89326 25.5323C8.72652 25.7005 9.58221 25.7263 10.4241 25.6086C11.2128 25.5393 11.991 25.3796 12.7435 25.1329C13.3746 24.8801 13.9273 24.464 14.3452 23.9272C14.763 23.3904 15.031 22.7522 15.1217 22.0777C15.3854 20.4432 14.8492 18.8676 14.2628 17.364C13.6574 15.877 13.1967 14.335 12.8873 12.7594C12.7478 11.9912 12.6693 11.2121 12.4819 10.4527C12.3227 9.77836 12.1113 8.83561 11.3571 8.59993C10.9841 8.51649 10.5989 8.50391 10.2214 8.56283C9.8377 8.59338 9.45404 8.63921 9.07474 8.70468C8.33141 8.83343 7.5314 8.99274 6.93412 9.48157C5.72866 10.4636 5.64146 12.2814 5.43001 13.6999C5.18587 15.3279 4.93737 16.9537 4.71502 18.5839C4.58641 19.5222 4.47087 20.465 4.40984 21.4208C4.36406 22.1519 4.34444 22.8895 4.68668 23.5595C5.28614 24.7314 6.69433 25.2573 7.89326 25.5366C8.54722 25.6872 8.83278 24.6637 8.17228 24.5197C7.60788 24.4054 7.06256 24.2114 6.55264 23.9436C6.37575 23.8463 6.20858 23.7323 6.05345 23.6031C5.98588 23.542 5.92048 23.4787 5.85727 23.4111L5.77225 23.3107C5.74827 23.2823 5.75045 23.2845 5.77225 23.3107C5.75045 23.2845 5.73301 23.2561 5.7134 23.2299C5.6698 23.1601 5.63056 23.0903 5.59132 23.0117C5.59132 22.9986 5.52157 22.8568 5.56735 22.9659C5.55209 22.931 5.53901 22.8939 5.52593 22.8568C5.44502 22.5793 5.41258 22.2899 5.43001 22.0013C5.44527 21.2484 5.52375 20.4955 5.61094 19.7514C5.78315 18.298 6.0164 16.8511 6.23002 15.4021C6.3412 14.6492 6.44801 13.8985 6.56572 13.1456C6.6769 12.456 6.75537 11.7162 7.03875 11.0703C7.13487 10.8172 7.28668 10.5891 7.48292 10.4029C7.67915 10.2166 7.91477 10.077 8.17228 9.9944C8.81191 9.80331 9.46922 9.67755 10.1342 9.61905C10.4233 9.58247 10.7151 9.57225 11.0061 9.5885C11.0998 9.5885 11.0977 9.62342 11.1565 9.72598C11.2336 9.88877 11.2935 10.0592 11.3353 10.2345C11.5234 10.9049 11.6618 11.5884 11.7494 12.2793C11.9692 13.7203 12.3254 15.1372 12.8132 16.5107C13.295 17.8419 13.9598 19.16 14.1211 20.585C14.2606 21.8442 13.9533 23.326 12.7565 23.9916C12.1222 24.3451 11.3026 24.428 10.5941 24.5415C9.79595 24.6808 8.97924 24.6749 8.18318 24.524C7.52922 24.3822 7.24148 25.397 7.90416 25.541" fill="#0E1030"/>
<path d="M12.8477 24.8936C12.8477 24.8936 14.9425 27.7654 18.269 27.7305L12.8477 24.8936Z" fill="#EEEFEF"/>
<path d="M18.2141 28.5886C14.5344 28.5886 12.2652 25.5334 12.1693 25.4025C12.0375 25.2222 11.9826 24.9969 12.0167 24.7761C12.0509 24.5553 12.1712 24.3571 12.3513 24.2251C12.4405 24.1598 12.5416 24.1127 12.649 24.0865C12.7564 24.0603 12.8678 24.0555 12.977 24.0724C13.1976 24.1066 13.3955 24.2271 13.5274 24.4074C13.5535 24.4401 15.4086 26.9017 18.2141 26.9017H18.2707C18.4868 26.9127 18.6903 27.0064 18.8394 27.1633C18.9884 27.3203 19.0715 27.5286 19.0715 27.7452C19.0715 27.9617 18.9884 28.17 18.8394 28.327C18.6903 28.4839 18.4868 28.5776 18.2707 28.5886H18.2075" fill="#0E1030"/>
<path d="M28.706 10.9177C28.7105 10.8679 28.7105 10.8182 28.7105 10.7684C28.8094 10.4368 28.7959 10.0781 28.6566 9.75475C28.6543 9.7506 28.6521 9.74853 28.6498 9.74439C28.6498 9.74231 28.6498 9.74231 28.6521 9.74024C28.6813 9.69256 28.688 9.63037 28.6588 9.57025C28.6476 9.54952 28.6319 9.53087 28.6206 9.50806C28.6633 9.45002 28.6656 9.3671 28.6004 9.29455C28.4543 9.13285 28.27 8.99811 28.061 8.91105C27.9127 8.85093 27.7082 8.76594 27.5621 8.85508C27.5037 8.85093 27.4452 8.84886 27.3868 8.84886C27.3666 8.77837 27.3081 8.72033 27.2115 8.7307C27.1958 8.73277 27.18 8.73691 27.1643 8.73899C26.8721 8.81362 26.5687 8.77008 26.2721 8.7991C26.0024 8.82605 25.7507 8.90068 25.5529 9.07896C25.4855 9.13907 25.4945 9.23443 25.5462 9.29662C25.5394 9.39198 25.5709 9.48112 25.6271 9.56196C25.6923 9.80658 25.7867 10.0429 25.9193 10.2668C25.9732 10.358 26.1058 10.3621 26.1867 10.302C26.2878 10.3393 26.3979 10.3393 26.5081 10.2668C26.5171 10.2606 26.5216 10.2523 26.5305 10.246C26.589 10.2502 26.6564 10.246 26.7261 10.2315C26.7575 10.2792 26.8137 10.3145 26.8834 10.3186C26.998 10.3248 27.1688 10.3331 27.2834 10.3953C27.2969 10.6938 27.3778 10.9757 27.5194 11.2432C27.5284 11.2597 27.5396 11.2742 27.5554 11.2846C27.5868 11.3862 27.625 11.4857 27.6745 11.5831C27.688 11.608 27.7059 11.6246 27.7262 11.637C27.7329 11.6474 27.7374 11.6578 27.7441 11.666C27.7734 11.7034 27.8138 11.722 27.8588 11.7303C27.9127 11.7655 27.9779 11.7883 28.061 11.7842C28.1195 11.7821 28.1644 11.7655 28.2049 11.7427C28.2768 11.749 28.3554 11.7116 28.3869 11.6557C28.4139 11.608 28.4318 11.5582 28.4521 11.5064C28.4633 11.5002 28.4745 11.4961 28.4858 11.4878C28.6543 11.3675 28.688 11.1063 28.706 10.9177Z" fill="#0E1030"/>
</svg>
