<svg width="426" height="180" viewBox="0 0 426 180" fill="none" xmlns="http://www.w3.org/2000/svg">
<path d="M425.035 179.999H425.998C411.589 144.892 390.224 112.665 362.6 85.0404C307.758 30.1989 234.785 0 157.125 0C100.524 0 46.4235 16.0579 0 45.9883L0 47.0903C45.2937 17.7526 99.2554 0.694547 157.125 0.694547C277.819 0.694547 381.501 74.8537 425.035 179.999Z" fill="#7D7AB9"/>
<path d="M412.913 179.999H413.876C400.068 147.883 380.158 118.369 354.71 92.9305C301.98 40.2005 231.812 11.1592 157.125 11.1592C100.219 11.1592 45.9512 28.0413 0 59.3885L0 60.4998C44.7659 29.8286 98.8757 11.8537 157.125 11.8537C271.54 11.8537 370.055 81.1695 412.913 179.999Z" fill="#7D7AB9"/>
<path d="M400.716 179.996H401.679C388.52 150.871 370.082 124.08 346.819 100.818C296.191 50.1899 228.83 22.3154 157.134 22.3154C99.8939 22.3154 45.4137 40.1051 0.00878906 73.0359V74.1564C44.1542 42.0035 98.4585 23.01 157.134 23.01C265.242 23.01 358.58 87.4825 400.716 179.996Z" fill="#7D7AB9"/>
<path d="M388.4 179.999H389.381C376.935 153.866 359.988 129.779 338.929 108.72C290.413 60.2037 225.848 33.4775 157.134 33.4775C99.4957 33.4775 44.7932 52.2859 0.00878906 86.9854V88.1152C43.4319 54.3232 97.9677 34.1721 157.134 34.1721C258.927 34.1721 347.051 93.8198 388.4 179.999Z" fill="#7D7AB9"/>
<path d="M375.953 180H376.953C365.294 156.849 349.885 135.466 331.03 116.611C284.616 70.197 222.857 44.6377 157.134 44.6377C99.0327 44.6377 44.0523 64.6221 0.00878906 101.303V102.443C42.5892 66.8076 97.3936 45.323 157.134 45.323C252.592 45.3322 335.475 100.174 375.953 180Z" fill="#7D7AB9"/>
<path d="M363.359 179.999H364.368C353.589 159.821 339.763 141.133 323.14 124.501C278.837 80.1977 219.875 55.7959 157.134 55.7959C98.4863 55.7959 43.1633 77.1139 0.00878906 116.073V117.231C41.5705 79.5124 96.7175 56.4904 157.134 56.4904C246.221 56.4904 323.844 106.544 363.359 179.999Z" fill="#7D7AB9"/>
<path d="M350.607 179.998H351.608C341.801 162.783 329.623 146.78 315.241 132.398C273.04 90.1978 216.893 66.9629 157.125 66.9629C97.8293 66.9629 42.0896 89.8552 0 131.435L0 132.63C40.3208 92.5037 95.8753 67.6574 157.125 67.6574C239.832 67.6482 312.148 112.933 350.607 179.998Z" fill="#7D7AB9"/>
<path d="M157.134 78.8088C233.395 78.8088 300.359 119.343 337.624 180H338.633C329.919 165.738 319.463 152.403 307.351 140.29C267.261 100.201 213.911 78.1143 157.134 78.1143C100.357 78.1143 47.0065 100.201 6.90796 140.29C4.5465 142.652 2.2406 145.069 0.00878906 147.523V148.782C38.783 105.85 94.8561 78.8088 157.134 78.8088Z" fill="#7D7AB9"/>
<path d="M157.134 89.9753C226.903 89.9753 288.45 125.795 324.39 179.998H325.418C317.945 168.663 309.277 158.004 299.46 148.178C261.473 110.191 210.929 89.2715 157.134 89.2715C103.339 89.2715 52.7944 110.191 14.8073 148.178C9.53798 153.448 4.61132 158.967 0.00878906 164.69V166.042C36.7735 119.73 93.5411 89.9753 157.134 89.9753Z" fill="#7D7AB9"/>
<path d="M3.43612 179.999C37.8579 132.27 93.9217 101.136 157.135 101.136C220.348 101.136 276.412 132.27 310.833 179.999H311.871C305.823 171.563 299.054 163.562 291.571 156.079C255.696 120.204 207.948 100.441 157.135 100.441C106.322 100.441 58.5832 120.204 22.6982 156.079C15.2156 163.562 8.44612 171.563 2.39893 179.999H3.43612Z" fill="#7D7AB9"/>
<path d="M17.4288 179.999C50.1003 138.78 100.58 112.294 157.135 112.294C213.699 112.294 264.178 138.78 296.85 179.999H297.905C293.516 174.424 288.765 169.062 283.672 163.968C249.898 130.195 204.957 111.6 157.135 111.6C109.303 111.6 64.3709 130.195 30.5974 163.968C25.5041 169.062 20.7811 174.424 16.3916 179.999H17.4288Z" fill="#7D7AB9"/>
<path d="M31.9575 179.997C62.5917 145.344 107.348 123.452 157.124 123.452C206.9 123.452 251.657 145.344 282.291 179.997H283.384C280.948 177.219 278.411 174.496 275.771 171.857C244.109 140.195 201.973 122.748 157.124 122.748C112.284 122.748 70.1483 140.186 38.477 171.857C35.8377 174.496 33.3096 177.21 30.874 179.997H31.9575Z" fill="#7D7AB9"/>
<path d="M47.2845 179.998C75.4831 151.966 114.322 134.612 157.134 134.612C199.946 134.612 238.785 151.966 266.984 179.998H268.123C268.039 179.915 267.965 179.831 267.882 179.757C238.322 150.197 198.992 133.917 157.125 133.917C115.258 133.917 75.9277 150.197 46.3677 179.757C46.2844 179.84 46.2103 179.924 46.127 179.998H47.2845Z" fill="#7D7AB9"/>
<path d="M63.7775 180C88.9942 158.663 121.582 145.773 157.134 145.773C192.676 145.773 225.264 158.663 250.49 180H251.74C225.422 157.404 192.241 145.078 157.143 145.078C122.045 145.078 88.8553 157.404 62.5273 180H63.7775Z" fill="#7D7AB9"/>
<path d="M82.1791 179.998C103.562 165.45 129.371 156.93 157.135 156.93C184.898 156.93 210.698 165.44 232.09 179.998H233.498C211.235 164.561 184.833 156.235 157.135 156.235C129.436 156.235 103.034 164.551 80.7715 179.998H82.1791Z" fill="#7D7AB9"/>
<path d="M104.497 179.998C120.453 172.367 138.299 168.089 157.125 168.089C175.952 168.089 193.807 172.367 209.754 179.998H211.541C194.825 171.756 176.313 167.395 157.116 167.395C137.919 167.395 119.407 171.756 102.691 179.998H104.497Z" fill="#7D7AB9"/>
<path d="M144.291 179.999C148.504 179.508 152.792 179.258 157.126 179.258C161.469 179.258 165.748 179.517 169.961 179.999H175.036C169.202 179.054 163.219 178.563 157.126 178.563C151.032 178.563 145.05 179.064 139.216 179.999H144.291Z" fill="#7D7AB9"/>
</svg>
