<svg width="153" height="103" viewBox="0 0 153 103" fill="none" xmlns="http://www.w3.org/2000/svg">
<path d="M126.682 50.6333H30.1904V93.3341H126.682V50.6333Z" fill="#929292"/>
<path d="M131.673 92.7385C143.135 89.9796 150.191 78.451 147.432 66.9887C144.673 55.5264 133.144 48.4708 121.682 51.2297C110.22 53.9886 103.164 65.5172 105.923 76.9795C108.682 88.4418 120.211 95.4974 131.673 92.7385Z" fill="#929292"/>
<path d="M45.2853 87.076C53.622 78.7393 53.622 65.2227 45.2853 56.8859C36.9485 48.5491 23.4319 48.5491 15.0951 56.8859C6.7583 65.2227 6.7583 78.7393 15.0951 87.076C23.4319 95.4128 36.9485 95.4128 45.2853 87.076Z" fill="#929292"/>
<path d="M113.47 67.2699C122.658 65.1344 128.374 55.9553 126.239 46.7679C124.103 37.5806 114.924 31.8639 105.737 33.9995C96.5494 36.135 90.8328 45.3141 92.9683 54.5015C95.1039 63.6888 104.283 69.4055 113.47 67.2699Z" fill="#929292"/>
<path d="M43.5697 61.3894C49.5102 61.3894 54.3259 56.5737 54.3259 50.6332C54.3259 44.6927 49.5102 39.877 43.5697 39.877C37.6292 39.877 32.8135 44.6927 32.8135 50.6332C32.8135 56.5737 37.6292 61.3894 43.5697 61.3894Z" fill="#929292"/>
<path d="M78.8781 69.8003C96.0642 65.6228 106.61 48.3042 102.432 31.1182C98.2545 13.9321 80.9359 3.38672 63.7499 7.56428C46.5638 11.7418 36.0184 29.0604 40.196 46.2464C44.3735 63.4325 61.6921 73.9779 78.8781 69.8003Z" fill="#929292"/>
<path d="M89.5986 60.3223H67.2783V93.3339H89.5986V60.3223Z" fill="white"/>
<path d="M77.3756 41.9864L58.4662 64.3864C57.7032 65.289 58.3465 66.6753 59.5283 66.6753H97.3471C98.5339 66.6753 99.1722 65.289 98.4093 64.3864L79.5049 41.9864C78.9464 41.3281 77.9291 41.3281 77.3756 41.9864Z" fill="white"/>
</svg>
