<svg width="74" height="30" viewBox="0 0 74 30" fill="none" xmlns="http://www.w3.org/2000/svg">
<path d="M60.3886 14.6558C59.8117 14.5005 59.8822 14.1255 60.0781 13.7647C60.8927 12.2657 61.656 10.7319 62.5721 9.29738C63.8455 7.30379 65.2585 5.39979 66.5689 3.43009C67.0431 2.71699 67.3955 1.92147 67.804 1.16417C67.7502 1.1128 67.6965 1.06264 67.6415 1.01127C67.4265 1.06861 67.2008 1.09966 66.9989 1.18686C65.2143 1.9573 63.8813 3.29153 62.639 4.7273C58.2314 9.82175 55.2189 15.6568 53.5323 22.1643C53.0521 24.0158 52.8909 25.9293 53.3209 27.8369C53.6386 29.2452 53.9886 29.3849 54.998 28.3589C55.9703 27.3699 56.8422 26.2769 57.7166 25.1971C59.6815 22.7699 61.6213 20.3224 63.5719 17.8833C63.609 17.8367 63.6484 17.7913 63.6866 17.7459C63.892 17.4951 64.1226 17.1941 64.4702 17.4401C64.8524 17.7101 64.5681 18.0075 64.3842 18.256C63.4154 19.5675 62.4575 20.8886 61.4601 22.1798C59.6493 24.5246 57.8432 26.8765 55.975 29.1747C54.9514 30.4337 53.0892 30.0753 52.4573 28.5464C51.8899 27.1716 51.8386 25.7215 51.9903 24.2642C52.5182 19.1518 54.7364 14.6785 57.3415 10.3724C58.8561 7.86878 60.5415 5.46429 62.6378 3.4062C63.6233 2.43868 64.7795 1.64196 65.8916 0.810601C66.4136 0.420006 67.0491 0.30653 67.7084 0.390144C68.32 0.467785 68.7416 0.990967 68.5159 1.56671C68.1778 2.42673 67.8195 3.30467 67.3083 4.06556C65.5763 6.63847 63.7475 9.14568 62.0107 11.7162C61.3932 12.6324 60.9333 13.6572 60.3886 14.6558ZM56.3561 13.7134C56.3979 13.7337 56.4385 13.754 56.4803 13.7743C56.7921 13.1579 57.1038 12.5404 57.4168 11.924C57.3726 11.9025 57.3284 11.881 57.2854 11.8595C56.9748 12.4771 56.6654 13.0958 56.3561 13.7134Z" fill="#626262"/>
<path d="M26.7153 17.4577C27.0007 17.091 27.2958 16.7302 27.5693 16.354C27.9205 15.8714 28.2275 15.3554 28.6085 14.9003C28.7339 14.751 29.0421 14.6674 29.2416 14.702C29.3467 14.7199 29.4817 15.0735 29.453 15.2515C29.3383 15.9753 29.1604 16.6884 29.017 17.4075C28.9752 17.6153 28.9681 17.8304 28.9442 18.0418C28.9991 18.0657 29.0529 18.0896 29.1078 18.1146C29.4315 17.5449 29.7767 16.9859 30.0729 16.4018C30.3417 15.8714 30.5746 15.3196 30.7932 14.7665C31.0058 14.2266 31.4 14.0379 31.9519 14.0188C32.8238 13.9889 33.6934 13.9196 34.3779 13.8778C34.7458 13.3391 34.9667 12.8327 35.3454 12.5101C35.7933 12.1279 36.344 12.2533 36.8325 12.5938C37.2685 12.8972 37.3115 13.3093 37.167 13.7536C37.1192 13.9005 36.934 14.0032 36.8122 14.1263C36.7119 13.9662 36.6115 13.805 36.5136 13.6437C36.5052 13.6306 36.5231 13.6055 36.5208 13.5852C36.5004 13.3272 36.4789 13.0692 36.4562 12.8112C36.2353 12.8601 35.9283 12.8374 35.8124 12.9748C35.6165 13.2077 35.5174 13.5362 35.429 13.8396C35.4003 13.9387 35.5281 14.0892 35.5938 14.2099C36.1863 15.3064 36.7811 16.4006 37.4166 17.5723C38.9742 16.3898 40.6071 15.1511 42.2554 13.8993C42.6675 14.3747 42.3689 14.6065 42.0667 14.8561C40.6286 16.0494 39.1844 17.2343 37.775 18.4598C37.5384 18.6665 37.376 19.0475 37.3318 19.37C37.1049 21.0053 36.387 22.3467 35.0671 23.3465C34.8497 23.5113 34.5702 23.7263 34.3349 23.7096C33.9478 23.6809 33.445 23.5866 33.2312 23.3238C33.0544 23.1064 33.0783 22.5008 33.2622 22.2499C34.0828 21.1343 34.9261 20.021 35.8948 19.038C36.4467 18.4766 36.6032 17.9665 36.3296 17.3072C35.9008 16.2728 35.4218 15.2598 34.9978 14.3102C34.0625 14.4153 33.3148 14.5025 32.567 14.5814C31.971 14.6447 31.5493 14.886 31.2889 15.4808C30.8207 16.5535 30.2951 17.6022 29.7492 18.6378C29.5868 18.9472 29.367 19.3569 28.8868 19.204C28.4138 19.0523 28.0997 18.7429 28.1678 18.1851C28.1988 17.9295 28.2215 17.6739 28.2466 17.4171C28.2693 17.1841 28.2908 16.9524 28.1976 16.6538C27.9062 17.0384 27.6314 17.435 27.3197 17.8017C27.0784 18.0872 26.9064 18.5423 26.388 18.3583C25.8529 18.1684 25.8481 17.7073 25.9078 17.2654C25.9926 16.6407 26.1276 16.0231 26.2781 15.2025C25.6641 15.709 25.1839 16.1211 24.687 16.5117C23.6096 17.3585 22.5394 18.2174 21.4321 19.0248C20.8563 19.4453 20.1922 19.5313 19.5137 19.1968C18.8186 18.854 18.5211 18.3774 18.6418 17.6082C18.7266 17.0683 18.907 16.5427 19.079 15.8774C18.4734 16.3265 17.9609 16.7099 17.4449 17.0886C17.0925 17.3466 16.7426 17.6106 16.377 17.8507C15.8921 18.1696 15.4238 18.0478 14.9926 17.73C14.5973 17.4386 14.4527 17.036 14.6259 16.5714C14.952 15.7006 15.2889 14.8334 15.6604 13.9817C15.7165 13.8515 15.9841 13.8133 16.1525 13.7333C16.1931 13.9232 16.3137 14.1394 16.26 14.2971C16.0175 15.0102 15.7069 15.7006 15.4609 16.4125C15.351 16.7302 15.3319 17.079 15.2722 17.4135C15.3247 17.441 15.3773 17.4672 15.4298 17.4947C15.7272 17.3131 16.039 17.1519 16.3185 16.9464C17.7949 15.8654 19.2665 14.7785 20.7297 13.6795C21.0881 13.4096 21.493 13.2806 21.8119 13.5804C22.0305 13.7847 22.1762 14.1932 22.1583 14.499C22.101 15.4629 21.3126 15.9694 20.3786 15.7436C20.2495 15.7125 19.9796 15.8009 19.9533 15.8881C19.7311 16.6227 19.4731 17.3597 19.3812 18.1146C19.3035 18.7429 19.6224 18.9627 20.1755 18.6665C21.1155 18.1624 22.0317 17.595 22.8929 16.9644C24.1758 16.0243 25.3966 15.0006 26.6567 14.0295C26.8072 13.9137 27.0342 13.8957 27.2265 13.8324C27.2552 14.0283 27.3448 14.2397 27.3029 14.4189C27.0975 15.2873 26.8526 16.1461 26.6293 17.0109C26.597 17.134 26.6078 17.2678 26.5982 17.3968C26.6376 17.4147 26.6758 17.4362 26.7153 17.4577ZM36.2018 20.1345C35.3872 20.6027 34.176 22.189 34.1425 22.8245C35.1053 22.1365 35.7694 21.2752 36.2018 20.1345ZM21.5933 14.0869C21.5145 14.0427 21.4345 13.9985 21.3556 13.9543C21.1144 14.3616 20.8731 14.7689 20.6318 15.1762C20.6879 15.2097 20.7429 15.2431 20.799 15.2766C21.2935 15.0293 21.5886 14.653 21.5933 14.0869Z" fill="#626262"/>
<path d="M1.11861 29.3915C1.43515 29.0702 1.78035 28.8194 1.99417 28.4861C3.17312 26.6466 4.33654 24.7964 5.47607 22.9318C9.08221 17.0263 12.6764 11.1124 16.2742 5.20093C17.256 3.58719 18.2248 1.96509 19.221 0.360903C19.3285 0.187703 19.6354 -0.0404423 19.7525 0.00614238C20.1598 0.166203 19.9042 0.474378 19.7764 0.690579C18.4027 3.01862 17.0183 5.34188 15.6339 7.66395C13.0765 11.9497 10.5204 16.2379 7.95462 20.5189C7.14715 21.8651 6.30027 23.1886 5.48802 24.5324C4.60172 25.9992 3.74288 27.4816 2.85061 28.9448C2.68816 29.2112 2.44329 29.4357 2.20439 29.6424C1.43396 30.3113 0.446121 30.0079 0.191697 29.0153C-0.115285 27.8172 -0.00061464 26.6012 0.169001 25.402C1.08397 18.9554 2.99036 12.7847 5.37813 6.74659C5.54416 6.32733 5.59433 5.85909 5.77589 5.44819C5.87025 5.23677 6.13662 5.10179 6.32654 4.93218C6.3576 5.17585 6.47585 5.44819 6.40538 5.65842C5.91684 7.10613 5.38529 8.53951 4.87525 9.98005C3.24479 14.5931 1.93803 19.2958 1.16998 24.1287C0.932274 25.6277 0.962136 27.1686 0.878522 28.6916C0.871355 28.8265 0.913162 28.9663 0.948997 29.1001C0.966914 29.1682 1.02305 29.2291 1.11861 29.3915Z" fill="#626262"/>
<path d="M67.1177 17.2371C68.1796 16.7664 68.5463 15.959 68.3468 14.8672C69.9605 14.6857 71.5767 14.5029 73.1916 14.3213C73.2322 14.3572 73.2728 14.3918 73.3134 14.4276C73.1486 14.5614 73.0017 14.7788 72.8177 14.8159C71.8287 15.0129 70.8313 15.1706 69.8351 15.3295C69.6034 15.3665 69.3645 15.3546 69.1041 15.3653C69.0623 15.6699 69.0874 15.9697 68.9751 16.2026C68.7422 16.6876 68.4889 17.1857 68.1354 17.5811C67.9669 17.7698 67.519 17.8463 67.2502 17.7746C66.819 17.6611 66.5037 17.3362 66.5109 16.813C66.5264 15.6448 67.1284 14.7442 67.8451 13.9021C67.918 13.8173 68.1258 13.8471 68.2703 13.8232C68.2799 14.006 68.3528 14.2186 68.2859 14.3679C68.0279 14.9401 67.6994 15.4812 67.4461 16.0557C67.3004 16.3866 67.2467 16.7593 67.1177 17.2371Z" fill="#626262"/>
<path d="M46.3548 16.7376C45.5127 16.6146 45.4255 16.4892 45.6381 15.7271C44.845 15.2326 44.8163 14.9901 45.5915 14.4502C45.92 14.2208 46.3393 14.0202 46.7263 14.0034C47.136 13.9855 47.3331 13.8374 47.5063 13.5197C48.1943 12.2667 48.8919 11.0172 49.5871 9.76781C49.6743 9.61134 49.777 9.46322 49.8726 9.31152C49.9347 9.33541 49.9968 9.35811 50.0577 9.382C50.0255 9.54922 50.0302 9.73556 49.9538 9.8801C49.2216 11.2669 48.481 12.6501 47.7213 14.0226C47.652 14.1468 47.4191 14.2603 47.2722 14.2483C46.614 14.1958 45.9833 14.5218 45.6441 15.1406C45.9176 15.1239 46.1948 15.1059 46.5925 15.0809C46.4289 15.4643 46.3166 15.7259 46.1326 16.1559C46.4755 15.9206 46.6785 15.7474 46.9114 15.6363C47.0321 15.579 47.2292 15.5897 47.3474 15.6518C47.4155 15.6877 47.4537 15.9122 47.4107 16.0114C46.7263 17.5845 46.0275 19.1505 45.33 20.7176C45.3252 20.7284 45.2929 20.7272 45.1018 20.7714C45.2738 19.3153 45.9821 18.0945 46.3548 16.7376Z" fill="#626262"/>
<path d="M17.0052 10.5022C16.9575 10.3564 16.832 10.1797 16.875 10.0686C17.1163 9.44505 17.3887 8.83348 17.6765 8.23027C17.7183 8.14188 17.8975 8.11918 18.0134 8.06543C18.0528 8.18129 18.1591 8.32583 18.1233 8.40825C17.8199 9.10463 17.4902 9.79026 17.1689 10.4795C17.1139 10.4866 17.0602 10.495 17.0052 10.5022Z" fill="#626262"/>
<path d="M56.3555 13.7115C56.6648 13.0927 56.9742 12.4752 57.2836 11.8564C57.3278 11.8779 57.372 11.8994 57.415 11.9209C57.1032 12.5373 56.7915 13.1548 56.4785 13.7712C56.4379 13.7521 56.3961 13.7318 56.3555 13.7115Z" fill="white"/>
<path d="M36.2038 20.1348C35.7714 21.2755 35.1061 22.1367 34.1445 22.8247C34.1792 22.1893 35.3892 20.603 36.2038 20.1348Z" fill="white"/>
<path d="M21.5953 14.0874C21.5918 14.6536 21.2955 15.0299 20.801 15.2783C20.7449 15.2449 20.6899 15.2115 20.6338 15.178C20.8751 14.7707 21.1164 14.3634 21.3576 13.9561C21.4365 13.9991 21.5153 14.0433 21.5953 14.0874Z" fill="white"/>
</svg>
