<svg width="17" height="22" viewBox="0 0 17 22" fill="none" xmlns="http://www.w3.org/2000/svg">
<path d="M0.496976 21.0284C0.0881903 20.8188 -0.0726974 20.5156 0.034561 20.1583C0.125402 19.8562 0.36947 19.6658 0.686867 19.6614C1.06282 19.6565 1.43932 19.651 1.81527 19.6636C1.99859 19.6696 2.0473 19.6061 2.0462 19.4283C2.03964 18.2107 2.04785 16.9936 2.04128 15.776C2.0369 14.9864 2.3335 14.3461 2.93163 13.8328C3.85592 13.0409 4.77308 12.2409 5.69299 11.4435C5.7603 11.3855 5.82597 11.3259 5.88999 11.264C6.34146 10.8284 6.35186 10.2035 5.88562 9.77994C5.28858 9.23763 4.67185 8.71666 4.06277 8.18693C3.63976 7.81919 3.20416 7.46403 2.79482 7.08152C2.31435 6.63278 2.04839 6.07077 2.04456 5.40697C2.0369 4.14833 2.03799 2.89023 2.0462 1.63159C2.0473 1.43184 1.9871 1.3711 1.79064 1.37876C1.43549 1.39299 1.07924 1.38478 0.724079 1.38205C0.31201 1.37876 0.00665191 1.08873 8.50705e-05 0.699642C-0.00593453 0.308368 0.308179 0.00136809 0.728457 0.000820855C5.90586 -0.000273618 11.0833 -0.000273618 16.2612 0.000820855C16.6875 0.000820855 16.9984 0.295234 17 0.689792C17.0016 1.08326 16.6892 1.37986 16.2656 1.38259C15.9099 1.38478 15.5542 1.39244 15.199 1.37931C15.0113 1.3722 14.9522 1.4302 14.9539 1.62174C14.9621 2.72989 14.9539 3.8375 14.9593 4.94565C14.9632 5.70303 14.6879 6.33071 14.1193 6.82869C13.0446 7.77049 11.9698 8.71228 10.8923 9.65134C10.414 10.0683 10.2947 10.58 10.5765 11.0517C10.6586 11.1896 10.7796 11.2909 10.8978 11.3943C11.9988 12.358 13.1064 13.3145 14.1987 14.2886C14.6901 14.727 14.9479 15.2983 14.9544 15.9599C14.9659 17.1091 14.9621 18.2577 14.9544 19.4069C14.9533 19.6012 15.0042 19.6723 15.2062 19.6636C15.5476 19.6483 15.8897 19.6587 16.2317 19.6598C16.6405 19.6608 16.8971 19.8529 16.9814 20.2174C17.0531 20.5299 16.8938 20.8243 16.5584 20.9988C16.5403 21.0081 16.5223 21.018 16.5042 21.0278C11.1681 21.0284 5.83253 21.0284 0.496976 21.0284ZM8.51126 1.38314C6.90402 1.38314 5.29679 1.38533 3.68956 1.3804C3.51772 1.37986 3.44494 1.42199 3.44603 1.6086C3.4526 2.84645 3.45096 4.0843 3.44932 5.32215C3.44877 5.66034 3.58284 5.92849 3.83567 6.14684C4.78293 6.96441 5.72254 7.79074 6.67583 8.60119C7.92134 9.6601 7.95198 11.3231 6.72398 12.4012C5.77343 13.2357 4.81358 14.0599 3.85373 14.8835C3.58722 15.1122 3.44768 15.3864 3.44822 15.7404C3.45151 16.9712 3.45096 18.2025 3.44713 19.4332C3.44658 19.5957 3.492 19.6625 3.66821 19.6625C6.88925 19.6581 10.1103 19.6587 13.3319 19.6619C13.4867 19.6619 13.5535 19.6187 13.5529 19.454C13.548 18.3119 13.5491 17.1698 13.5497 16.0277C13.5497 15.7131 13.4222 15.4603 13.1879 15.2556C12.0699 14.2799 10.9514 13.3052 9.83557 12.3268C8.75751 11.3822 8.74821 9.67761 9.8197 8.73143C10.9114 7.76775 12.0065 6.80735 13.1097 5.8568C13.4129 5.59522 13.5579 5.29369 13.554 4.89312C13.5436 3.81944 13.5508 2.74576 13.5502 1.67208C13.5502 1.38424 13.5491 1.38369 13.2503 1.38369C11.671 1.38314 10.0911 1.38314 8.51126 1.38314Z" fill="#C68335"/>
<path d="M8.49383 19.026C7.19415 19.026 5.89446 19.0265 4.59477 19.026C4.16519 19.026 4.06341 18.9236 4.06286 18.493C4.06231 17.6245 4.06833 16.7555 4.06012 15.887C4.05684 15.5395 4.18161 15.2801 4.4503 15.0525C5.41015 14.2387 6.35742 13.4108 7.30469 12.5823C7.8771 12.0815 8.19176 11.4473 8.24429 10.6861C8.24812 10.6275 8.23499 10.5422 8.3127 10.5339C8.40354 10.5241 8.38876 10.6144 8.39205 10.6697C8.44239 11.5857 8.93108 12.2441 9.60472 12.8159C10.6313 13.6882 11.6361 14.5862 12.6517 15.4711C12.8591 15.6517 12.9374 15.881 12.9374 16.1464C12.9379 16.9536 12.9396 17.7608 12.9368 18.5679C12.9358 18.9028 12.8115 19.0254 12.475 19.026C11.1479 19.0271 9.82088 19.026 8.49383 19.026Z" fill="#C68335"/>
</svg>
