<svg width="49" height="30" viewBox="0 0 49 30" fill="none" xmlns="http://www.w3.org/2000/svg">
<path d="M5.43065 0.759766H44.3091C46.7695 0.759766 48.7613 2.75145 48.7613 5.212V20.0525C48.7613 22.5129 46.7697 24.5048 44.3091 24.5048H30.3669L32.2806 29.1912L23.8644 24.5048H5.45042C2.99006 24.5048 0.998189 22.5131 0.998189 20.0525V5.212C0.978662 2.77104 2.97047 0.759766 5.43083 0.759766H5.43065Z" fill="#7F54B3"/>
<path d="M3.71734 4.81836C3.98916 4.44947 4.39691 4.2553 4.94055 4.21647C5.93076 4.13881 6.49382 4.60479 6.62974 5.61442C7.23163 9.67243 7.89177 13.1089 8.59083 15.9244L12.8429 7.82795C13.2312 7.09014 13.7166 6.70182 14.2991 6.66299C15.1534 6.60474 15.6776 7.14839 15.8912 8.29394C16.3766 10.8763 16.9979 13.0703 17.7357 14.9341C18.2405 10.0024 19.0948 6.44946 20.2987 4.25534C20.5899 3.7117 21.017 3.43987 21.5801 3.40103C22.0267 3.3622 22.4344 3.49811 22.8033 3.78935C23.1722 4.08059 23.3664 4.44949 23.4052 4.89605C23.4246 5.24555 23.3664 5.53677 23.211 5.82801C22.4538 7.22596 21.8325 9.57537 21.3278 12.8371C20.8424 16.0019 20.6676 18.4677 20.7841 20.2346C20.8229 20.72 20.7453 21.1471 20.5511 21.516C20.3181 21.9432 19.9686 22.1762 19.5221 22.215C19.0173 22.2538 18.493 22.0208 17.9882 21.4966C16.1826 19.6521 14.7457 16.8951 13.6974 13.2254C12.4354 15.7105 11.5034 17.5746 10.9016 18.8172C9.75603 21.0111 8.78524 22.1373 7.96972 22.1955C7.44548 22.2343 6.99891 21.7878 6.6106 20.8558C5.62039 18.3122 4.55249 13.4001 3.40692 6.1192C3.32926 5.61439 3.44575 5.16782 3.71757 4.81833L3.71734 4.81836ZM45.4429 7.86662C44.744 6.64342 43.7149 5.90554 42.3365 5.61429C41.9676 5.53663 41.6181 5.4978 41.288 5.4978C39.4241 5.4978 37.9097 6.4686 36.7253 8.41023C35.7157 10.0606 35.2109 11.8857 35.2109 13.8855C35.2109 15.3805 35.5215 16.6619 36.1428 17.7298C36.8418 18.953 37.8709 19.6909 39.2493 19.9822C39.6182 20.0598 39.9677 20.0987 40.2978 20.0987C42.1811 20.0987 43.6955 19.1279 44.8605 17.1862C45.8701 15.5165 46.3749 13.6913 46.3749 11.6916C46.3943 10.1771 46.0643 8.91518 45.4429 7.86662V7.86662ZM42.9966 13.2448C42.7248 14.5263 42.2394 15.4776 41.521 16.1185C40.9579 16.6233 40.4337 16.8368 39.9483 16.7398C39.4823 16.6427 39.094 16.235 38.8027 15.4777C38.5698 14.8758 38.4533 14.274 38.4533 13.7109C38.4533 13.2255 38.4921 12.7401 38.5892 12.2935C38.7639 11.4975 39.094 10.7208 39.6182 9.983C40.2589 9.03162 40.9385 8.6433 41.6375 8.77922C42.1035 8.8763 42.4918 9.28403 42.783 10.0412C43.016 10.6431 43.1325 11.245 43.1325 11.8081C43.1325 12.3129 43.0937 12.7983 42.9966 13.2449L42.9966 13.2448ZM33.2885 7.86662C32.5896 6.64342 31.5411 5.90554 30.1821 5.61429C29.8132 5.53663 29.4637 5.4978 29.1336 5.4978C27.2697 5.4978 25.7553 6.4686 24.5709 8.41023C23.5613 10.0606 23.0565 11.8857 23.0565 13.8855C23.0565 15.3805 23.3671 16.6619 23.9884 17.7298C24.6874 18.953 25.7164 19.6909 27.0949 19.9822C27.4638 20.0598 27.8133 20.0987 28.1434 20.0987C30.0266 20.0987 31.5411 19.1279 32.706 17.1862C33.7157 15.5165 34.2205 13.6913 34.2205 11.6916C34.2205 10.1771 33.9098 8.91518 33.2885 7.86662V7.86662ZM30.8228 13.2448C30.5509 14.5263 30.0655 15.4776 29.3472 16.1185C28.7841 16.6233 28.2599 16.8368 27.7745 16.7398C27.3085 16.6427 26.9201 16.235 26.6289 15.4777C26.3959 14.8758 26.2794 14.274 26.2794 13.7109C26.2794 13.2255 26.3183 12.7401 26.4153 12.2935C26.5901 11.4975 26.9202 10.7208 27.4444 9.983C28.0851 9.03162 28.7647 8.6433 29.4637 8.77922C29.9297 8.8763 30.318 9.28403 30.6092 10.0412C30.8422 10.6431 30.9587 11.245 30.9587 11.8081C30.9781 12.3129 30.9199 12.7983 30.8228 13.2449L30.8228 13.2448Z" fill="white"/>
</svg>
